G04 #@! TF.GenerationSoftware,KiCad,Pcbnew,(5.1.5)-3*
G04 #@! TF.CreationDate,2020-06-22T20:56:45+02:00*
G04 #@! TF.ProjectId,PCB Interface imprimante 3d,50434220-496e-4746-9572-666163652069,rev?*
G04 #@! TF.SameCoordinates,Original*
G04 #@! TF.FileFunction,Legend,Bot*
G04 #@! TF.FilePolarity,Positive*
%FSLAX46Y46*%
G04 Gerber Fmt 4.6, Leading zero omitted, Abs format (unit mm)*
G04 Created by KiCad (PCBNEW (5.1.5)-3) date 2020-06-22 20:56:45*
%MOMM*%
%LPD*%
G04 APERTURE LIST*
%ADD10C,0.150000*%
G04 APERTURE END LIST*
D10*
X130477366Y-128177380D02*
X130352366Y-127177380D01*
X129917842Y-127510714D02*
X130001175Y-128177380D01*
X129929747Y-127605952D02*
X129876175Y-127558333D01*
X129774985Y-127510714D01*
X129632127Y-127510714D01*
X129542842Y-127558333D01*
X129507127Y-127653571D01*
X129572604Y-128177380D01*
X129155937Y-127510714D02*
X128774985Y-127510714D01*
X128971413Y-127177380D02*
X129078556Y-128034523D01*
X129042842Y-128129761D01*
X128953556Y-128177380D01*
X128858318Y-128177380D01*
X128138080Y-128129761D02*
X128239270Y-128177380D01*
X128429747Y-128177380D01*
X128519032Y-128129761D01*
X128554747Y-128034523D01*
X128507127Y-127653571D01*
X128447604Y-127558333D01*
X128346413Y-127510714D01*
X128155937Y-127510714D01*
X128066651Y-127558333D01*
X128030937Y-127653571D01*
X128042842Y-127748809D01*
X128530937Y-127844047D01*
X127667842Y-128177380D02*
X127584508Y-127510714D01*
X127608318Y-127701190D02*
X127548794Y-127605952D01*
X127495223Y-127558333D01*
X127394032Y-127510714D01*
X127298794Y-127510714D01*
X127108318Y-127510714D02*
X126727366Y-127510714D01*
X127048794Y-128177380D02*
X126941651Y-127320238D01*
X126882127Y-127225000D01*
X126780937Y-127177380D01*
X126685699Y-127177380D01*
X126048794Y-128177380D02*
X125983318Y-127653571D01*
X126019032Y-127558333D01*
X126108318Y-127510714D01*
X126298794Y-127510714D01*
X126399985Y-127558333D01*
X126042842Y-128129761D02*
X126144032Y-128177380D01*
X126382127Y-128177380D01*
X126471413Y-128129761D01*
X126507127Y-128034523D01*
X126495223Y-127939285D01*
X126435699Y-127844047D01*
X126334508Y-127796428D01*
X126096413Y-127796428D01*
X125995223Y-127748809D01*
X125138080Y-128129761D02*
X125239270Y-128177380D01*
X125429747Y-128177380D01*
X125519032Y-128129761D01*
X125560699Y-128082142D01*
X125596413Y-127986904D01*
X125560699Y-127701190D01*
X125501175Y-127605952D01*
X125447604Y-127558333D01*
X125346413Y-127510714D01*
X125155937Y-127510714D01*
X125066651Y-127558333D01*
X124328556Y-128129761D02*
X124429747Y-128177380D01*
X124620223Y-128177380D01*
X124709508Y-128129761D01*
X124745223Y-128034523D01*
X124697604Y-127653571D01*
X124638080Y-127558333D01*
X124536889Y-127510714D01*
X124346413Y-127510714D01*
X124257127Y-127558333D01*
X124221413Y-127653571D01*
X124233318Y-127748809D01*
X124721413Y-127844047D01*
X123096413Y-128177380D02*
X122971413Y-127177380D01*
X122590461Y-127177380D01*
X122501175Y-127225000D01*
X122459508Y-127272619D01*
X122423794Y-127367857D01*
X122441651Y-127510714D01*
X122501175Y-127605952D01*
X122554747Y-127653571D01*
X122655937Y-127701190D01*
X123036889Y-127701190D01*
X121513080Y-128082142D02*
X121566651Y-128129761D01*
X121715461Y-128177380D01*
X121810699Y-128177380D01*
X121947604Y-128129761D01*
X122030937Y-128034523D01*
X122066651Y-127939285D01*
X122090461Y-127748809D01*
X122072604Y-127605952D01*
X122001175Y-127415476D01*
X121941651Y-127320238D01*
X121834508Y-127225000D01*
X121685699Y-127177380D01*
X121590461Y-127177380D01*
X121453556Y-127225000D01*
X121411889Y-127272619D01*
X120697604Y-127653571D02*
X120560699Y-127701190D01*
X120519032Y-127748809D01*
X120483318Y-127844047D01*
X120501175Y-127986904D01*
X120560699Y-128082142D01*
X120614270Y-128129761D01*
X120715461Y-128177380D01*
X121096413Y-128177380D01*
X120971413Y-127177380D01*
X120638080Y-127177380D01*
X120548794Y-127225000D01*
X120507127Y-127272619D01*
X120471413Y-127367857D01*
X120483318Y-127463095D01*
X120542842Y-127558333D01*
X120596413Y-127605952D01*
X120697604Y-127653571D01*
X121030937Y-127653571D01*
X116616205Y-126888095D02*
X116345372Y-128188095D01*
X115749538Y-126888095D01*
X114797752Y-128188095D02*
X115540610Y-128188095D01*
X115169181Y-128188095D02*
X115006681Y-126888095D01*
X115153705Y-127073809D01*
X115292991Y-127197619D01*
X115424538Y-127259523D01*
X114225133Y-128064285D02*
X114170967Y-128126190D01*
X114240610Y-128188095D01*
X114294776Y-128126190D01*
X114225133Y-128064285D01*
X114240610Y-128188095D01*
X113211443Y-126888095D02*
X113087633Y-126888095D01*
X112971562Y-126950000D01*
X112917395Y-127011904D01*
X112870967Y-127135714D01*
X112840014Y-127383333D01*
X112878705Y-127692857D01*
X112971562Y-127940476D01*
X113048943Y-128064285D01*
X113118586Y-128126190D01*
X113250133Y-128188095D01*
X113373943Y-128188095D01*
X113490014Y-128126190D01*
X113544181Y-128064285D01*
X113590610Y-127940476D01*
X113621562Y-127692857D01*
X113582872Y-127383333D01*
X113490014Y-127135714D01*
X113412633Y-127011904D01*
X113342991Y-126950000D01*
X113211443Y-126888095D01*
X111307872Y-127011904D02*
X111238229Y-126950000D01*
X111106681Y-126888095D01*
X110797157Y-126888095D01*
X110681086Y-126950000D01*
X110626919Y-127011904D01*
X110580491Y-127135714D01*
X110595967Y-127259523D01*
X110681086Y-127445238D01*
X111516800Y-128188095D01*
X110712038Y-128188095D01*
X109744776Y-126888095D02*
X109620967Y-126888095D01*
X109504895Y-126950000D01*
X109450729Y-127011904D01*
X109404300Y-127135714D01*
X109373348Y-127383333D01*
X109412038Y-127692857D01*
X109504895Y-127940476D01*
X109582276Y-128064285D01*
X109651919Y-128126190D01*
X109783467Y-128188095D01*
X109907276Y-128188095D01*
X110023348Y-128126190D01*
X110077514Y-128064285D01*
X110123943Y-127940476D01*
X110154895Y-127692857D01*
X110116205Y-127383333D01*
X110023348Y-127135714D01*
X109945967Y-127011904D01*
X109876324Y-126950000D01*
X109744776Y-126888095D01*
X108831681Y-127011904D02*
X108762038Y-126950000D01*
X108630491Y-126888095D01*
X108320967Y-126888095D01*
X108204895Y-126950000D01*
X108150729Y-127011904D01*
X108104300Y-127135714D01*
X108119776Y-127259523D01*
X108204895Y-127445238D01*
X109040610Y-128188095D01*
X108235848Y-128188095D01*
X107268586Y-126888095D02*
X107144776Y-126888095D01*
X107028705Y-126950000D01*
X106974538Y-127011904D01*
X106928110Y-127135714D01*
X106897157Y-127383333D01*
X106935848Y-127692857D01*
X107028705Y-127940476D01*
X107106086Y-128064285D01*
X107175729Y-128126190D01*
X107307276Y-128188095D01*
X107431086Y-128188095D01*
X107547157Y-128126190D01*
X107601324Y-128064285D01*
X107647752Y-127940476D01*
X107678705Y-127692857D01*
X107640014Y-127383333D01*
X107547157Y-127135714D01*
X107469776Y-127011904D01*
X107400133Y-126950000D01*
X107268586Y-126888095D01*
X144735714Y-128077380D02*
X144735714Y-127077380D01*
X144164285Y-128077380D01*
X144164285Y-127077380D01*
X143688095Y-128077380D02*
X143688095Y-127410714D01*
X143688095Y-127077380D02*
X143735714Y-127125000D01*
X143688095Y-127172619D01*
X143640476Y-127125000D01*
X143688095Y-127077380D01*
X143688095Y-127172619D01*
X142783333Y-128029761D02*
X142878571Y-128077380D01*
X143069047Y-128077380D01*
X143164285Y-128029761D01*
X143211904Y-127982142D01*
X143259523Y-127886904D01*
X143259523Y-127601190D01*
X143211904Y-127505952D01*
X143164285Y-127458333D01*
X143069047Y-127410714D01*
X142878571Y-127410714D01*
X142783333Y-127458333D01*
X142211904Y-128077380D02*
X142307142Y-128029761D01*
X142354761Y-127982142D01*
X142402380Y-127886904D01*
X142402380Y-127601190D01*
X142354761Y-127505952D01*
X142307142Y-127458333D01*
X142211904Y-127410714D01*
X142069047Y-127410714D01*
X141973809Y-127458333D01*
X141926190Y-127505952D01*
X141878571Y-127601190D01*
X141878571Y-127886904D01*
X141926190Y-127982142D01*
X141973809Y-128029761D01*
X142069047Y-128077380D01*
X142211904Y-128077380D01*
X141307142Y-128077380D02*
X141402380Y-128029761D01*
X141450000Y-127934523D01*
X141450000Y-127077380D01*
X140497619Y-128077380D02*
X140497619Y-127553571D01*
X140545238Y-127458333D01*
X140640476Y-127410714D01*
X140830952Y-127410714D01*
X140926190Y-127458333D01*
X140497619Y-128029761D02*
X140592857Y-128077380D01*
X140830952Y-128077380D01*
X140926190Y-128029761D01*
X140973809Y-127934523D01*
X140973809Y-127839285D01*
X140926190Y-127744047D01*
X140830952Y-127696428D01*
X140592857Y-127696428D01*
X140497619Y-127648809D01*
X140069047Y-128029761D02*
X139973809Y-128077380D01*
X139783333Y-128077380D01*
X139688095Y-128029761D01*
X139640476Y-127934523D01*
X139640476Y-127886904D01*
X139688095Y-127791666D01*
X139783333Y-127744047D01*
X139926190Y-127744047D01*
X140021428Y-127696428D01*
X140069047Y-127601190D01*
X140069047Y-127553571D01*
X140021428Y-127458333D01*
X139926190Y-127410714D01*
X139783333Y-127410714D01*
X139688095Y-127458333D01*
X138450000Y-128077380D02*
X138450000Y-127077380D01*
X138069047Y-127077380D01*
X137973809Y-127125000D01*
X137926190Y-127172619D01*
X137878571Y-127267857D01*
X137878571Y-127410714D01*
X137926190Y-127505952D01*
X137973809Y-127553571D01*
X138069047Y-127601190D01*
X138450000Y-127601190D01*
X137069047Y-128029761D02*
X137164285Y-128077380D01*
X137354761Y-128077380D01*
X137450000Y-128029761D01*
X137497619Y-127934523D01*
X137497619Y-127553571D01*
X137450000Y-127458333D01*
X137354761Y-127410714D01*
X137164285Y-127410714D01*
X137069047Y-127458333D01*
X137021428Y-127553571D01*
X137021428Y-127648809D01*
X137497619Y-127744047D01*
X137164285Y-127029761D02*
X137307142Y-127172619D01*
X136735714Y-127410714D02*
X136354761Y-127410714D01*
X136592857Y-127077380D02*
X136592857Y-127934523D01*
X136545238Y-128029761D01*
X136450000Y-128077380D01*
X136354761Y-128077380D01*
X135640476Y-128029761D02*
X135735714Y-128077380D01*
X135926190Y-128077380D01*
X136021428Y-128029761D01*
X136069047Y-127934523D01*
X136069047Y-127553571D01*
X136021428Y-127458333D01*
X135926190Y-127410714D01*
X135735714Y-127410714D01*
X135640476Y-127458333D01*
X135592857Y-127553571D01*
X135592857Y-127648809D01*
X136069047Y-127744047D01*
X134735714Y-127410714D02*
X134735714Y-128077380D01*
X135164285Y-127410714D02*
X135164285Y-127934523D01*
X135116666Y-128029761D01*
X135021428Y-128077380D01*
X134878571Y-128077380D01*
X134783333Y-128029761D01*
X134735714Y-127982142D01*
X134402380Y-127410714D02*
X134021428Y-127410714D01*
X134259523Y-127077380D02*
X134259523Y-127934523D01*
X134211904Y-128029761D01*
X134116666Y-128077380D01*
X134021428Y-128077380D01*
M02*
