G04 #@! TF.GenerationSoftware,KiCad,Pcbnew,(5.1.5)-3*
G04 #@! TF.CreationDate,2020-06-22T20:56:45+02:00*
G04 #@! TF.ProjectId,PCB Interface imprimante 3d,50434220-496e-4746-9572-666163652069,rev?*
G04 #@! TF.SameCoordinates,Original*
G04 #@! TF.FileFunction,Paste,Top*
G04 #@! TF.FilePolarity,Positive*
%FSLAX46Y46*%
G04 Gerber Fmt 4.6, Leading zero omitted, Abs format (unit mm)*
G04 Created by KiCad (PCBNEW (5.1.5)-3) date 2020-06-22 20:56:45*
%MOMM*%
%LPD*%
G04 APERTURE LIST*
%ADD10C,0.100000*%
G04 APERTURE END LIST*
D10*
G36*
X145799504Y-117001204D02*
G01*
X145823773Y-117004804D01*
X145847571Y-117010765D01*
X145870671Y-117019030D01*
X145892849Y-117029520D01*
X145913893Y-117042133D01*
X145933598Y-117056747D01*
X145951777Y-117073223D01*
X145968253Y-117091402D01*
X145982867Y-117111107D01*
X145995480Y-117132151D01*
X146005970Y-117154329D01*
X146014235Y-117177429D01*
X146020196Y-117201227D01*
X146023796Y-117225496D01*
X146025000Y-117250000D01*
X146025000Y-118175000D01*
X146023796Y-118199504D01*
X146020196Y-118223773D01*
X146014235Y-118247571D01*
X146005970Y-118270671D01*
X145995480Y-118292849D01*
X145982867Y-118313893D01*
X145968253Y-118333598D01*
X145951777Y-118351777D01*
X145933598Y-118368253D01*
X145913893Y-118382867D01*
X145892849Y-118395480D01*
X145870671Y-118405970D01*
X145847571Y-118414235D01*
X145823773Y-118420196D01*
X145799504Y-118423796D01*
X145775000Y-118425000D01*
X144525000Y-118425000D01*
X144500496Y-118423796D01*
X144476227Y-118420196D01*
X144452429Y-118414235D01*
X144429329Y-118405970D01*
X144407151Y-118395480D01*
X144386107Y-118382867D01*
X144366402Y-118368253D01*
X144348223Y-118351777D01*
X144331747Y-118333598D01*
X144317133Y-118313893D01*
X144304520Y-118292849D01*
X144294030Y-118270671D01*
X144285765Y-118247571D01*
X144279804Y-118223773D01*
X144276204Y-118199504D01*
X144275000Y-118175000D01*
X144275000Y-117250000D01*
X144276204Y-117225496D01*
X144279804Y-117201227D01*
X144285765Y-117177429D01*
X144294030Y-117154329D01*
X144304520Y-117132151D01*
X144317133Y-117111107D01*
X144331747Y-117091402D01*
X144348223Y-117073223D01*
X144366402Y-117056747D01*
X144386107Y-117042133D01*
X144407151Y-117029520D01*
X144429329Y-117019030D01*
X144452429Y-117010765D01*
X144476227Y-117004804D01*
X144500496Y-117001204D01*
X144525000Y-117000000D01*
X145775000Y-117000000D01*
X145799504Y-117001204D01*
G37*
G36*
X145799504Y-119976204D02*
G01*
X145823773Y-119979804D01*
X145847571Y-119985765D01*
X145870671Y-119994030D01*
X145892849Y-120004520D01*
X145913893Y-120017133D01*
X145933598Y-120031747D01*
X145951777Y-120048223D01*
X145968253Y-120066402D01*
X145982867Y-120086107D01*
X145995480Y-120107151D01*
X146005970Y-120129329D01*
X146014235Y-120152429D01*
X146020196Y-120176227D01*
X146023796Y-120200496D01*
X146025000Y-120225000D01*
X146025000Y-121150000D01*
X146023796Y-121174504D01*
X146020196Y-121198773D01*
X146014235Y-121222571D01*
X146005970Y-121245671D01*
X145995480Y-121267849D01*
X145982867Y-121288893D01*
X145968253Y-121308598D01*
X145951777Y-121326777D01*
X145933598Y-121343253D01*
X145913893Y-121357867D01*
X145892849Y-121370480D01*
X145870671Y-121380970D01*
X145847571Y-121389235D01*
X145823773Y-121395196D01*
X145799504Y-121398796D01*
X145775000Y-121400000D01*
X144525000Y-121400000D01*
X144500496Y-121398796D01*
X144476227Y-121395196D01*
X144452429Y-121389235D01*
X144429329Y-121380970D01*
X144407151Y-121370480D01*
X144386107Y-121357867D01*
X144366402Y-121343253D01*
X144348223Y-121326777D01*
X144331747Y-121308598D01*
X144317133Y-121288893D01*
X144304520Y-121267849D01*
X144294030Y-121245671D01*
X144285765Y-121222571D01*
X144279804Y-121198773D01*
X144276204Y-121174504D01*
X144275000Y-121150000D01*
X144275000Y-120225000D01*
X144276204Y-120200496D01*
X144279804Y-120176227D01*
X144285765Y-120152429D01*
X144294030Y-120129329D01*
X144304520Y-120107151D01*
X144317133Y-120086107D01*
X144331747Y-120066402D01*
X144348223Y-120048223D01*
X144366402Y-120031747D01*
X144386107Y-120017133D01*
X144407151Y-120004520D01*
X144429329Y-119994030D01*
X144452429Y-119985765D01*
X144476227Y-119979804D01*
X144500496Y-119976204D01*
X144525000Y-119975000D01*
X145775000Y-119975000D01*
X145799504Y-119976204D01*
G37*
G36*
X149849504Y-117001204D02*
G01*
X149873773Y-117004804D01*
X149897571Y-117010765D01*
X149920671Y-117019030D01*
X149942849Y-117029520D01*
X149963893Y-117042133D01*
X149983598Y-117056747D01*
X150001777Y-117073223D01*
X150018253Y-117091402D01*
X150032867Y-117111107D01*
X150045480Y-117132151D01*
X150055970Y-117154329D01*
X150064235Y-117177429D01*
X150070196Y-117201227D01*
X150073796Y-117225496D01*
X150075000Y-117250000D01*
X150075000Y-118175000D01*
X150073796Y-118199504D01*
X150070196Y-118223773D01*
X150064235Y-118247571D01*
X150055970Y-118270671D01*
X150045480Y-118292849D01*
X150032867Y-118313893D01*
X150018253Y-118333598D01*
X150001777Y-118351777D01*
X149983598Y-118368253D01*
X149963893Y-118382867D01*
X149942849Y-118395480D01*
X149920671Y-118405970D01*
X149897571Y-118414235D01*
X149873773Y-118420196D01*
X149849504Y-118423796D01*
X149825000Y-118425000D01*
X148575000Y-118425000D01*
X148550496Y-118423796D01*
X148526227Y-118420196D01*
X148502429Y-118414235D01*
X148479329Y-118405970D01*
X148457151Y-118395480D01*
X148436107Y-118382867D01*
X148416402Y-118368253D01*
X148398223Y-118351777D01*
X148381747Y-118333598D01*
X148367133Y-118313893D01*
X148354520Y-118292849D01*
X148344030Y-118270671D01*
X148335765Y-118247571D01*
X148329804Y-118223773D01*
X148326204Y-118199504D01*
X148325000Y-118175000D01*
X148325000Y-117250000D01*
X148326204Y-117225496D01*
X148329804Y-117201227D01*
X148335765Y-117177429D01*
X148344030Y-117154329D01*
X148354520Y-117132151D01*
X148367133Y-117111107D01*
X148381747Y-117091402D01*
X148398223Y-117073223D01*
X148416402Y-117056747D01*
X148436107Y-117042133D01*
X148457151Y-117029520D01*
X148479329Y-117019030D01*
X148502429Y-117010765D01*
X148526227Y-117004804D01*
X148550496Y-117001204D01*
X148575000Y-117000000D01*
X149825000Y-117000000D01*
X149849504Y-117001204D01*
G37*
G36*
X149849504Y-119976204D02*
G01*
X149873773Y-119979804D01*
X149897571Y-119985765D01*
X149920671Y-119994030D01*
X149942849Y-120004520D01*
X149963893Y-120017133D01*
X149983598Y-120031747D01*
X150001777Y-120048223D01*
X150018253Y-120066402D01*
X150032867Y-120086107D01*
X150045480Y-120107151D01*
X150055970Y-120129329D01*
X150064235Y-120152429D01*
X150070196Y-120176227D01*
X150073796Y-120200496D01*
X150075000Y-120225000D01*
X150075000Y-121150000D01*
X150073796Y-121174504D01*
X150070196Y-121198773D01*
X150064235Y-121222571D01*
X150055970Y-121245671D01*
X150045480Y-121267849D01*
X150032867Y-121288893D01*
X150018253Y-121308598D01*
X150001777Y-121326777D01*
X149983598Y-121343253D01*
X149963893Y-121357867D01*
X149942849Y-121370480D01*
X149920671Y-121380970D01*
X149897571Y-121389235D01*
X149873773Y-121395196D01*
X149849504Y-121398796D01*
X149825000Y-121400000D01*
X148575000Y-121400000D01*
X148550496Y-121398796D01*
X148526227Y-121395196D01*
X148502429Y-121389235D01*
X148479329Y-121380970D01*
X148457151Y-121370480D01*
X148436107Y-121357867D01*
X148416402Y-121343253D01*
X148398223Y-121326777D01*
X148381747Y-121308598D01*
X148367133Y-121288893D01*
X148354520Y-121267849D01*
X148344030Y-121245671D01*
X148335765Y-121222571D01*
X148329804Y-121198773D01*
X148326204Y-121174504D01*
X148325000Y-121150000D01*
X148325000Y-120225000D01*
X148326204Y-120200496D01*
X148329804Y-120176227D01*
X148335765Y-120152429D01*
X148344030Y-120129329D01*
X148354520Y-120107151D01*
X148367133Y-120086107D01*
X148381747Y-120066402D01*
X148398223Y-120048223D01*
X148416402Y-120031747D01*
X148436107Y-120017133D01*
X148457151Y-120004520D01*
X148479329Y-119994030D01*
X148502429Y-119985765D01*
X148526227Y-119979804D01*
X148550496Y-119976204D01*
X148575000Y-119975000D01*
X149825000Y-119975000D01*
X149849504Y-119976204D01*
G37*
M02*
