M48
; DRILL file {KiCad (5.1.5)-3} date 22.06.2020 20:57:15
; FORMAT={-:-/ absolute / inch / decimal}
; #@! TF.CreationDate,2020-06-22T20:57:15+02:00
; #@! TF.GenerationSoftware,Kicad,Pcbnew,(5.1.5)-3
; #@! TF.FileFunction,Plated,1,2,PTH
FMAT,2
INCH
T1C0.0157
T2C0.0354
T3C0.0374
T4C0.0394
%
G90
G05
T1
X4.5728Y-4.3504
X5.314Y-4.2756
T2
X4.5104Y-4.6902
X4.5506Y-4.7602
X4.5907Y-4.6902
X4.6309Y-4.7602
X4.6711Y-4.6902
X4.7113Y-4.7602
X4.7514Y-4.6902
X4.7916Y-4.7602
X5.1305Y-4.6902
X5.1707Y-4.7602
X5.2108Y-4.6902
X5.251Y-4.7602
X5.2911Y-4.6902
X5.3313Y-4.7602
X5.3715Y-4.6902
X5.4116Y-4.7602
T3
X4.4291Y-4.0551
X4.4291Y-4.1535
X4.4291Y-4.252
X4.4291Y-4.3504
X4.7638Y-4.1043
X4.7638Y-4.2028
X4.7638Y-4.3012
X5.0787Y-4.1043
X5.0787Y-4.2028
X5.0787Y-4.3012
X5.4528Y-4.1043
X5.4528Y-4.2028
X5.4528Y-4.3012
T4
X4.0748Y-4.689
X4.1732Y-4.689
X4.0748Y-4.3819
X4.1732Y-4.3819
X5.8071Y-4.3701
X5.8071Y-4.4685
T0
M30
