G04 #@! TF.GenerationSoftware,KiCad,Pcbnew,(5.1.5)-3*
G04 #@! TF.CreationDate,2020-06-22T20:56:45+02:00*
G04 #@! TF.ProjectId,PCB Interface imprimante 3d,50434220-496e-4746-9572-666163652069,rev?*
G04 #@! TF.SameCoordinates,Original*
G04 #@! TF.FileFunction,Copper,L1,Top*
G04 #@! TF.FilePolarity,Positive*
%FSLAX46Y46*%
G04 Gerber Fmt 4.6, Leading zero omitted, Abs format (unit mm)*
G04 Created by KiCad (PCBNEW (5.1.5)-3) date 2020-06-22 20:56:45*
%MOMM*%
%LPD*%
G04 APERTURE LIST*
%ADD10C,1.400000*%
%ADD11C,0.100000*%
%ADD12O,1.950000X1.700000*%
%ADD13O,1.700000X2.000000*%
%ADD14O,2.000000X1.700000*%
%ADD15C,0.800000*%
%ADD16C,1.300000*%
%ADD17C,0.400000*%
%ADD18C,0.254000*%
G04 APERTURE END LIST*
D10*
X114565000Y-119130000D03*
X130315000Y-119130000D03*
X115585000Y-120910000D03*
X131335000Y-120910000D03*
X116605000Y-119130000D03*
X132355000Y-119130000D03*
X117626000Y-120910000D03*
X133375000Y-120910000D03*
X118646000Y-119130000D03*
X134395000Y-119130000D03*
X119666000Y-120910000D03*
X135415000Y-120910000D03*
X136435000Y-119130000D03*
X120686000Y-119130000D03*
X121706000Y-120910000D03*
X137455000Y-120910000D03*
G04 #@! TA.AperFunction,SMDPad,CuDef*
D11*
G36*
X145799504Y-117001204D02*
G01*
X145823773Y-117004804D01*
X145847571Y-117010765D01*
X145870671Y-117019030D01*
X145892849Y-117029520D01*
X145913893Y-117042133D01*
X145933598Y-117056747D01*
X145951777Y-117073223D01*
X145968253Y-117091402D01*
X145982867Y-117111107D01*
X145995480Y-117132151D01*
X146005970Y-117154329D01*
X146014235Y-117177429D01*
X146020196Y-117201227D01*
X146023796Y-117225496D01*
X146025000Y-117250000D01*
X146025000Y-118175000D01*
X146023796Y-118199504D01*
X146020196Y-118223773D01*
X146014235Y-118247571D01*
X146005970Y-118270671D01*
X145995480Y-118292849D01*
X145982867Y-118313893D01*
X145968253Y-118333598D01*
X145951777Y-118351777D01*
X145933598Y-118368253D01*
X145913893Y-118382867D01*
X145892849Y-118395480D01*
X145870671Y-118405970D01*
X145847571Y-118414235D01*
X145823773Y-118420196D01*
X145799504Y-118423796D01*
X145775000Y-118425000D01*
X144525000Y-118425000D01*
X144500496Y-118423796D01*
X144476227Y-118420196D01*
X144452429Y-118414235D01*
X144429329Y-118405970D01*
X144407151Y-118395480D01*
X144386107Y-118382867D01*
X144366402Y-118368253D01*
X144348223Y-118351777D01*
X144331747Y-118333598D01*
X144317133Y-118313893D01*
X144304520Y-118292849D01*
X144294030Y-118270671D01*
X144285765Y-118247571D01*
X144279804Y-118223773D01*
X144276204Y-118199504D01*
X144275000Y-118175000D01*
X144275000Y-117250000D01*
X144276204Y-117225496D01*
X144279804Y-117201227D01*
X144285765Y-117177429D01*
X144294030Y-117154329D01*
X144304520Y-117132151D01*
X144317133Y-117111107D01*
X144331747Y-117091402D01*
X144348223Y-117073223D01*
X144366402Y-117056747D01*
X144386107Y-117042133D01*
X144407151Y-117029520D01*
X144429329Y-117019030D01*
X144452429Y-117010765D01*
X144476227Y-117004804D01*
X144500496Y-117001204D01*
X144525000Y-117000000D01*
X145775000Y-117000000D01*
X145799504Y-117001204D01*
G37*
G04 #@! TD.AperFunction*
G04 #@! TA.AperFunction,SMDPad,CuDef*
G36*
X145799504Y-119976204D02*
G01*
X145823773Y-119979804D01*
X145847571Y-119985765D01*
X145870671Y-119994030D01*
X145892849Y-120004520D01*
X145913893Y-120017133D01*
X145933598Y-120031747D01*
X145951777Y-120048223D01*
X145968253Y-120066402D01*
X145982867Y-120086107D01*
X145995480Y-120107151D01*
X146005970Y-120129329D01*
X146014235Y-120152429D01*
X146020196Y-120176227D01*
X146023796Y-120200496D01*
X146025000Y-120225000D01*
X146025000Y-121150000D01*
X146023796Y-121174504D01*
X146020196Y-121198773D01*
X146014235Y-121222571D01*
X146005970Y-121245671D01*
X145995480Y-121267849D01*
X145982867Y-121288893D01*
X145968253Y-121308598D01*
X145951777Y-121326777D01*
X145933598Y-121343253D01*
X145913893Y-121357867D01*
X145892849Y-121370480D01*
X145870671Y-121380970D01*
X145847571Y-121389235D01*
X145823773Y-121395196D01*
X145799504Y-121398796D01*
X145775000Y-121400000D01*
X144525000Y-121400000D01*
X144500496Y-121398796D01*
X144476227Y-121395196D01*
X144452429Y-121389235D01*
X144429329Y-121380970D01*
X144407151Y-121370480D01*
X144386107Y-121357867D01*
X144366402Y-121343253D01*
X144348223Y-121326777D01*
X144331747Y-121308598D01*
X144317133Y-121288893D01*
X144304520Y-121267849D01*
X144294030Y-121245671D01*
X144285765Y-121222571D01*
X144279804Y-121198773D01*
X144276204Y-121174504D01*
X144275000Y-121150000D01*
X144275000Y-120225000D01*
X144276204Y-120200496D01*
X144279804Y-120176227D01*
X144285765Y-120152429D01*
X144294030Y-120129329D01*
X144304520Y-120107151D01*
X144317133Y-120086107D01*
X144331747Y-120066402D01*
X144348223Y-120048223D01*
X144366402Y-120031747D01*
X144386107Y-120017133D01*
X144407151Y-120004520D01*
X144429329Y-119994030D01*
X144452429Y-119985765D01*
X144476227Y-119979804D01*
X144500496Y-119976204D01*
X144525000Y-119975000D01*
X145775000Y-119975000D01*
X145799504Y-119976204D01*
G37*
G04 #@! TD.AperFunction*
G04 #@! TA.AperFunction,SMDPad,CuDef*
G36*
X149849504Y-117001204D02*
G01*
X149873773Y-117004804D01*
X149897571Y-117010765D01*
X149920671Y-117019030D01*
X149942849Y-117029520D01*
X149963893Y-117042133D01*
X149983598Y-117056747D01*
X150001777Y-117073223D01*
X150018253Y-117091402D01*
X150032867Y-117111107D01*
X150045480Y-117132151D01*
X150055970Y-117154329D01*
X150064235Y-117177429D01*
X150070196Y-117201227D01*
X150073796Y-117225496D01*
X150075000Y-117250000D01*
X150075000Y-118175000D01*
X150073796Y-118199504D01*
X150070196Y-118223773D01*
X150064235Y-118247571D01*
X150055970Y-118270671D01*
X150045480Y-118292849D01*
X150032867Y-118313893D01*
X150018253Y-118333598D01*
X150001777Y-118351777D01*
X149983598Y-118368253D01*
X149963893Y-118382867D01*
X149942849Y-118395480D01*
X149920671Y-118405970D01*
X149897571Y-118414235D01*
X149873773Y-118420196D01*
X149849504Y-118423796D01*
X149825000Y-118425000D01*
X148575000Y-118425000D01*
X148550496Y-118423796D01*
X148526227Y-118420196D01*
X148502429Y-118414235D01*
X148479329Y-118405970D01*
X148457151Y-118395480D01*
X148436107Y-118382867D01*
X148416402Y-118368253D01*
X148398223Y-118351777D01*
X148381747Y-118333598D01*
X148367133Y-118313893D01*
X148354520Y-118292849D01*
X148344030Y-118270671D01*
X148335765Y-118247571D01*
X148329804Y-118223773D01*
X148326204Y-118199504D01*
X148325000Y-118175000D01*
X148325000Y-117250000D01*
X148326204Y-117225496D01*
X148329804Y-117201227D01*
X148335765Y-117177429D01*
X148344030Y-117154329D01*
X148354520Y-117132151D01*
X148367133Y-117111107D01*
X148381747Y-117091402D01*
X148398223Y-117073223D01*
X148416402Y-117056747D01*
X148436107Y-117042133D01*
X148457151Y-117029520D01*
X148479329Y-117019030D01*
X148502429Y-117010765D01*
X148526227Y-117004804D01*
X148550496Y-117001204D01*
X148575000Y-117000000D01*
X149825000Y-117000000D01*
X149849504Y-117001204D01*
G37*
G04 #@! TD.AperFunction*
G04 #@! TA.AperFunction,SMDPad,CuDef*
G36*
X149849504Y-119976204D02*
G01*
X149873773Y-119979804D01*
X149897571Y-119985765D01*
X149920671Y-119994030D01*
X149942849Y-120004520D01*
X149963893Y-120017133D01*
X149983598Y-120031747D01*
X150001777Y-120048223D01*
X150018253Y-120066402D01*
X150032867Y-120086107D01*
X150045480Y-120107151D01*
X150055970Y-120129329D01*
X150064235Y-120152429D01*
X150070196Y-120176227D01*
X150073796Y-120200496D01*
X150075000Y-120225000D01*
X150075000Y-121150000D01*
X150073796Y-121174504D01*
X150070196Y-121198773D01*
X150064235Y-121222571D01*
X150055970Y-121245671D01*
X150045480Y-121267849D01*
X150032867Y-121288893D01*
X150018253Y-121308598D01*
X150001777Y-121326777D01*
X149983598Y-121343253D01*
X149963893Y-121357867D01*
X149942849Y-121370480D01*
X149920671Y-121380970D01*
X149897571Y-121389235D01*
X149873773Y-121395196D01*
X149849504Y-121398796D01*
X149825000Y-121400000D01*
X148575000Y-121400000D01*
X148550496Y-121398796D01*
X148526227Y-121395196D01*
X148502429Y-121389235D01*
X148479329Y-121380970D01*
X148457151Y-121370480D01*
X148436107Y-121357867D01*
X148416402Y-121343253D01*
X148398223Y-121326777D01*
X148381747Y-121308598D01*
X148367133Y-121288893D01*
X148354520Y-121267849D01*
X148344030Y-121245671D01*
X148335765Y-121222571D01*
X148329804Y-121198773D01*
X148326204Y-121174504D01*
X148325000Y-121150000D01*
X148325000Y-120225000D01*
X148326204Y-120200496D01*
X148329804Y-120176227D01*
X148335765Y-120152429D01*
X148344030Y-120129329D01*
X148354520Y-120107151D01*
X148367133Y-120086107D01*
X148381747Y-120066402D01*
X148398223Y-120048223D01*
X148416402Y-120031747D01*
X148436107Y-120017133D01*
X148457151Y-120004520D01*
X148479329Y-119994030D01*
X148502429Y-119985765D01*
X148526227Y-119979804D01*
X148550496Y-119976204D01*
X148575000Y-119975000D01*
X149825000Y-119975000D01*
X149849504Y-119976204D01*
G37*
G04 #@! TD.AperFunction*
D12*
X121000000Y-104250000D03*
X121000000Y-106750000D03*
G04 #@! TA.AperFunction,ComponentPad*
D11*
G36*
X121749504Y-108401204D02*
G01*
X121773773Y-108404804D01*
X121797571Y-108410765D01*
X121820671Y-108419030D01*
X121842849Y-108429520D01*
X121863893Y-108442133D01*
X121883598Y-108456747D01*
X121901777Y-108473223D01*
X121918253Y-108491402D01*
X121932867Y-108511107D01*
X121945480Y-108532151D01*
X121955970Y-108554329D01*
X121964235Y-108577429D01*
X121970196Y-108601227D01*
X121973796Y-108625496D01*
X121975000Y-108650000D01*
X121975000Y-109850000D01*
X121973796Y-109874504D01*
X121970196Y-109898773D01*
X121964235Y-109922571D01*
X121955970Y-109945671D01*
X121945480Y-109967849D01*
X121932867Y-109988893D01*
X121918253Y-110008598D01*
X121901777Y-110026777D01*
X121883598Y-110043253D01*
X121863893Y-110057867D01*
X121842849Y-110070480D01*
X121820671Y-110080970D01*
X121797571Y-110089235D01*
X121773773Y-110095196D01*
X121749504Y-110098796D01*
X121725000Y-110100000D01*
X120275000Y-110100000D01*
X120250496Y-110098796D01*
X120226227Y-110095196D01*
X120202429Y-110089235D01*
X120179329Y-110080970D01*
X120157151Y-110070480D01*
X120136107Y-110057867D01*
X120116402Y-110043253D01*
X120098223Y-110026777D01*
X120081747Y-110008598D01*
X120067133Y-109988893D01*
X120054520Y-109967849D01*
X120044030Y-109945671D01*
X120035765Y-109922571D01*
X120029804Y-109898773D01*
X120026204Y-109874504D01*
X120025000Y-109850000D01*
X120025000Y-108650000D01*
X120026204Y-108625496D01*
X120029804Y-108601227D01*
X120035765Y-108577429D01*
X120044030Y-108554329D01*
X120054520Y-108532151D01*
X120067133Y-108511107D01*
X120081747Y-108491402D01*
X120098223Y-108473223D01*
X120116402Y-108456747D01*
X120136107Y-108442133D01*
X120157151Y-108429520D01*
X120179329Y-108419030D01*
X120202429Y-108410765D01*
X120226227Y-108404804D01*
X120250496Y-108401204D01*
X120275000Y-108400000D01*
X121725000Y-108400000D01*
X121749504Y-108401204D01*
G37*
G04 #@! TD.AperFunction*
D12*
X129000000Y-104250000D03*
X129000000Y-106750000D03*
G04 #@! TA.AperFunction,ComponentPad*
D11*
G36*
X129749504Y-108401204D02*
G01*
X129773773Y-108404804D01*
X129797571Y-108410765D01*
X129820671Y-108419030D01*
X129842849Y-108429520D01*
X129863893Y-108442133D01*
X129883598Y-108456747D01*
X129901777Y-108473223D01*
X129918253Y-108491402D01*
X129932867Y-108511107D01*
X129945480Y-108532151D01*
X129955970Y-108554329D01*
X129964235Y-108577429D01*
X129970196Y-108601227D01*
X129973796Y-108625496D01*
X129975000Y-108650000D01*
X129975000Y-109850000D01*
X129973796Y-109874504D01*
X129970196Y-109898773D01*
X129964235Y-109922571D01*
X129955970Y-109945671D01*
X129945480Y-109967849D01*
X129932867Y-109988893D01*
X129918253Y-110008598D01*
X129901777Y-110026777D01*
X129883598Y-110043253D01*
X129863893Y-110057867D01*
X129842849Y-110070480D01*
X129820671Y-110080970D01*
X129797571Y-110089235D01*
X129773773Y-110095196D01*
X129749504Y-110098796D01*
X129725000Y-110100000D01*
X128275000Y-110100000D01*
X128250496Y-110098796D01*
X128226227Y-110095196D01*
X128202429Y-110089235D01*
X128179329Y-110080970D01*
X128157151Y-110070480D01*
X128136107Y-110057867D01*
X128116402Y-110043253D01*
X128098223Y-110026777D01*
X128081747Y-110008598D01*
X128067133Y-109988893D01*
X128054520Y-109967849D01*
X128044030Y-109945671D01*
X128035765Y-109922571D01*
X128029804Y-109898773D01*
X128026204Y-109874504D01*
X128025000Y-109850000D01*
X128025000Y-108650000D01*
X128026204Y-108625496D01*
X128029804Y-108601227D01*
X128035765Y-108577429D01*
X128044030Y-108554329D01*
X128054520Y-108532151D01*
X128067133Y-108511107D01*
X128081747Y-108491402D01*
X128098223Y-108473223D01*
X128116402Y-108456747D01*
X128136107Y-108442133D01*
X128157151Y-108429520D01*
X128179329Y-108419030D01*
X128202429Y-108410765D01*
X128226227Y-108404804D01*
X128250496Y-108401204D01*
X128275000Y-108400000D01*
X129725000Y-108400000D01*
X129749504Y-108401204D01*
G37*
G04 #@! TD.AperFunction*
D13*
X103500000Y-111300000D03*
G04 #@! TA.AperFunction,ComponentPad*
D11*
G36*
X106624504Y-110301204D02*
G01*
X106648773Y-110304804D01*
X106672571Y-110310765D01*
X106695671Y-110319030D01*
X106717849Y-110329520D01*
X106738893Y-110342133D01*
X106758598Y-110356747D01*
X106776777Y-110373223D01*
X106793253Y-110391402D01*
X106807867Y-110411107D01*
X106820480Y-110432151D01*
X106830970Y-110454329D01*
X106839235Y-110477429D01*
X106845196Y-110501227D01*
X106848796Y-110525496D01*
X106850000Y-110550000D01*
X106850000Y-112050000D01*
X106848796Y-112074504D01*
X106845196Y-112098773D01*
X106839235Y-112122571D01*
X106830970Y-112145671D01*
X106820480Y-112167849D01*
X106807867Y-112188893D01*
X106793253Y-112208598D01*
X106776777Y-112226777D01*
X106758598Y-112243253D01*
X106738893Y-112257867D01*
X106717849Y-112270480D01*
X106695671Y-112280970D01*
X106672571Y-112289235D01*
X106648773Y-112295196D01*
X106624504Y-112298796D01*
X106600000Y-112300000D01*
X105400000Y-112300000D01*
X105375496Y-112298796D01*
X105351227Y-112295196D01*
X105327429Y-112289235D01*
X105304329Y-112280970D01*
X105282151Y-112270480D01*
X105261107Y-112257867D01*
X105241402Y-112243253D01*
X105223223Y-112226777D01*
X105206747Y-112208598D01*
X105192133Y-112188893D01*
X105179520Y-112167849D01*
X105169030Y-112145671D01*
X105160765Y-112122571D01*
X105154804Y-112098773D01*
X105151204Y-112074504D01*
X105150000Y-112050000D01*
X105150000Y-110550000D01*
X105151204Y-110525496D01*
X105154804Y-110501227D01*
X105160765Y-110477429D01*
X105169030Y-110454329D01*
X105179520Y-110432151D01*
X105192133Y-110411107D01*
X105206747Y-110391402D01*
X105223223Y-110373223D01*
X105241402Y-110356747D01*
X105261107Y-110342133D01*
X105282151Y-110329520D01*
X105304329Y-110319030D01*
X105327429Y-110310765D01*
X105351227Y-110304804D01*
X105375496Y-110301204D01*
X105400000Y-110300000D01*
X106600000Y-110300000D01*
X106624504Y-110301204D01*
G37*
G04 #@! TD.AperFunction*
D12*
X138500000Y-104250000D03*
X138500000Y-106750000D03*
G04 #@! TA.AperFunction,ComponentPad*
D11*
G36*
X139249504Y-108401204D02*
G01*
X139273773Y-108404804D01*
X139297571Y-108410765D01*
X139320671Y-108419030D01*
X139342849Y-108429520D01*
X139363893Y-108442133D01*
X139383598Y-108456747D01*
X139401777Y-108473223D01*
X139418253Y-108491402D01*
X139432867Y-108511107D01*
X139445480Y-108532151D01*
X139455970Y-108554329D01*
X139464235Y-108577429D01*
X139470196Y-108601227D01*
X139473796Y-108625496D01*
X139475000Y-108650000D01*
X139475000Y-109850000D01*
X139473796Y-109874504D01*
X139470196Y-109898773D01*
X139464235Y-109922571D01*
X139455970Y-109945671D01*
X139445480Y-109967849D01*
X139432867Y-109988893D01*
X139418253Y-110008598D01*
X139401777Y-110026777D01*
X139383598Y-110043253D01*
X139363893Y-110057867D01*
X139342849Y-110070480D01*
X139320671Y-110080970D01*
X139297571Y-110089235D01*
X139273773Y-110095196D01*
X139249504Y-110098796D01*
X139225000Y-110100000D01*
X137775000Y-110100000D01*
X137750496Y-110098796D01*
X137726227Y-110095196D01*
X137702429Y-110089235D01*
X137679329Y-110080970D01*
X137657151Y-110070480D01*
X137636107Y-110057867D01*
X137616402Y-110043253D01*
X137598223Y-110026777D01*
X137581747Y-110008598D01*
X137567133Y-109988893D01*
X137554520Y-109967849D01*
X137544030Y-109945671D01*
X137535765Y-109922571D01*
X137529804Y-109898773D01*
X137526204Y-109874504D01*
X137525000Y-109850000D01*
X137525000Y-108650000D01*
X137526204Y-108625496D01*
X137529804Y-108601227D01*
X137535765Y-108577429D01*
X137544030Y-108554329D01*
X137554520Y-108532151D01*
X137567133Y-108511107D01*
X137581747Y-108491402D01*
X137598223Y-108473223D01*
X137616402Y-108456747D01*
X137636107Y-108442133D01*
X137657151Y-108429520D01*
X137679329Y-108419030D01*
X137702429Y-108410765D01*
X137726227Y-108404804D01*
X137750496Y-108401204D01*
X137775000Y-108400000D01*
X139225000Y-108400000D01*
X139249504Y-108401204D01*
G37*
G04 #@! TD.AperFunction*
D12*
X112500000Y-103000000D03*
X112500000Y-105500000D03*
X112500000Y-108000000D03*
G04 #@! TA.AperFunction,ComponentPad*
D11*
G36*
X113249504Y-109651204D02*
G01*
X113273773Y-109654804D01*
X113297571Y-109660765D01*
X113320671Y-109669030D01*
X113342849Y-109679520D01*
X113363893Y-109692133D01*
X113383598Y-109706747D01*
X113401777Y-109723223D01*
X113418253Y-109741402D01*
X113432867Y-109761107D01*
X113445480Y-109782151D01*
X113455970Y-109804329D01*
X113464235Y-109827429D01*
X113470196Y-109851227D01*
X113473796Y-109875496D01*
X113475000Y-109900000D01*
X113475000Y-111100000D01*
X113473796Y-111124504D01*
X113470196Y-111148773D01*
X113464235Y-111172571D01*
X113455970Y-111195671D01*
X113445480Y-111217849D01*
X113432867Y-111238893D01*
X113418253Y-111258598D01*
X113401777Y-111276777D01*
X113383598Y-111293253D01*
X113363893Y-111307867D01*
X113342849Y-111320480D01*
X113320671Y-111330970D01*
X113297571Y-111339235D01*
X113273773Y-111345196D01*
X113249504Y-111348796D01*
X113225000Y-111350000D01*
X111775000Y-111350000D01*
X111750496Y-111348796D01*
X111726227Y-111345196D01*
X111702429Y-111339235D01*
X111679329Y-111330970D01*
X111657151Y-111320480D01*
X111636107Y-111307867D01*
X111616402Y-111293253D01*
X111598223Y-111276777D01*
X111581747Y-111258598D01*
X111567133Y-111238893D01*
X111554520Y-111217849D01*
X111544030Y-111195671D01*
X111535765Y-111172571D01*
X111529804Y-111148773D01*
X111526204Y-111124504D01*
X111525000Y-111100000D01*
X111525000Y-109900000D01*
X111526204Y-109875496D01*
X111529804Y-109851227D01*
X111535765Y-109827429D01*
X111544030Y-109804329D01*
X111554520Y-109782151D01*
X111567133Y-109761107D01*
X111581747Y-109741402D01*
X111598223Y-109723223D01*
X111616402Y-109706747D01*
X111636107Y-109692133D01*
X111657151Y-109679520D01*
X111679329Y-109669030D01*
X111702429Y-109660765D01*
X111726227Y-109654804D01*
X111750496Y-109651204D01*
X111775000Y-109650000D01*
X113225000Y-109650000D01*
X113249504Y-109651204D01*
G37*
G04 #@! TD.AperFunction*
D14*
X147500000Y-113500000D03*
G04 #@! TA.AperFunction,ComponentPad*
D11*
G36*
X148274504Y-110151204D02*
G01*
X148298773Y-110154804D01*
X148322571Y-110160765D01*
X148345671Y-110169030D01*
X148367849Y-110179520D01*
X148388893Y-110192133D01*
X148408598Y-110206747D01*
X148426777Y-110223223D01*
X148443253Y-110241402D01*
X148457867Y-110261107D01*
X148470480Y-110282151D01*
X148480970Y-110304329D01*
X148489235Y-110327429D01*
X148495196Y-110351227D01*
X148498796Y-110375496D01*
X148500000Y-110400000D01*
X148500000Y-111600000D01*
X148498796Y-111624504D01*
X148495196Y-111648773D01*
X148489235Y-111672571D01*
X148480970Y-111695671D01*
X148470480Y-111717849D01*
X148457867Y-111738893D01*
X148443253Y-111758598D01*
X148426777Y-111776777D01*
X148408598Y-111793253D01*
X148388893Y-111807867D01*
X148367849Y-111820480D01*
X148345671Y-111830970D01*
X148322571Y-111839235D01*
X148298773Y-111845196D01*
X148274504Y-111848796D01*
X148250000Y-111850000D01*
X146750000Y-111850000D01*
X146725496Y-111848796D01*
X146701227Y-111845196D01*
X146677429Y-111839235D01*
X146654329Y-111830970D01*
X146632151Y-111820480D01*
X146611107Y-111807867D01*
X146591402Y-111793253D01*
X146573223Y-111776777D01*
X146556747Y-111758598D01*
X146542133Y-111738893D01*
X146529520Y-111717849D01*
X146519030Y-111695671D01*
X146510765Y-111672571D01*
X146504804Y-111648773D01*
X146501204Y-111624504D01*
X146500000Y-111600000D01*
X146500000Y-110400000D01*
X146501204Y-110375496D01*
X146504804Y-110351227D01*
X146510765Y-110327429D01*
X146519030Y-110304329D01*
X146529520Y-110282151D01*
X146542133Y-110261107D01*
X146556747Y-110241402D01*
X146573223Y-110223223D01*
X146591402Y-110206747D01*
X146611107Y-110192133D01*
X146632151Y-110179520D01*
X146654329Y-110169030D01*
X146677429Y-110160765D01*
X146701227Y-110154804D01*
X146725496Y-110151204D01*
X146750000Y-110150000D01*
X148250000Y-110150000D01*
X148274504Y-110151204D01*
G37*
G04 #@! TD.AperFunction*
G04 #@! TA.AperFunction,ComponentPad*
G36*
X106624504Y-118101204D02*
G01*
X106648773Y-118104804D01*
X106672571Y-118110765D01*
X106695671Y-118119030D01*
X106717849Y-118129520D01*
X106738893Y-118142133D01*
X106758598Y-118156747D01*
X106776777Y-118173223D01*
X106793253Y-118191402D01*
X106807867Y-118211107D01*
X106820480Y-118232151D01*
X106830970Y-118254329D01*
X106839235Y-118277429D01*
X106845196Y-118301227D01*
X106848796Y-118325496D01*
X106850000Y-118350000D01*
X106850000Y-119850000D01*
X106848796Y-119874504D01*
X106845196Y-119898773D01*
X106839235Y-119922571D01*
X106830970Y-119945671D01*
X106820480Y-119967849D01*
X106807867Y-119988893D01*
X106793253Y-120008598D01*
X106776777Y-120026777D01*
X106758598Y-120043253D01*
X106738893Y-120057867D01*
X106717849Y-120070480D01*
X106695671Y-120080970D01*
X106672571Y-120089235D01*
X106648773Y-120095196D01*
X106624504Y-120098796D01*
X106600000Y-120100000D01*
X105400000Y-120100000D01*
X105375496Y-120098796D01*
X105351227Y-120095196D01*
X105327429Y-120089235D01*
X105304329Y-120080970D01*
X105282151Y-120070480D01*
X105261107Y-120057867D01*
X105241402Y-120043253D01*
X105223223Y-120026777D01*
X105206747Y-120008598D01*
X105192133Y-119988893D01*
X105179520Y-119967849D01*
X105169030Y-119945671D01*
X105160765Y-119922571D01*
X105154804Y-119898773D01*
X105151204Y-119874504D01*
X105150000Y-119850000D01*
X105150000Y-118350000D01*
X105151204Y-118325496D01*
X105154804Y-118301227D01*
X105160765Y-118277429D01*
X105169030Y-118254329D01*
X105179520Y-118232151D01*
X105192133Y-118211107D01*
X105206747Y-118191402D01*
X105223223Y-118173223D01*
X105241402Y-118156747D01*
X105261107Y-118142133D01*
X105282151Y-118129520D01*
X105304329Y-118119030D01*
X105327429Y-118110765D01*
X105351227Y-118104804D01*
X105375496Y-118101204D01*
X105400000Y-118100000D01*
X106600000Y-118100000D01*
X106624504Y-118101204D01*
G37*
G04 #@! TD.AperFunction*
D13*
X103500000Y-119100000D03*
D15*
X116150000Y-110500000D03*
X134975000Y-108600000D03*
D16*
X103500000Y-116975000D02*
X103500000Y-119100000D01*
X103475000Y-116950000D02*
X103500000Y-116975000D01*
X117455949Y-116950000D02*
X103475000Y-116950000D01*
X118646000Y-119130000D02*
X118646000Y-118140051D01*
X118646000Y-118140051D02*
X117455949Y-116950000D01*
X119135999Y-119874001D02*
X119135999Y-119619999D01*
X119666000Y-120910000D02*
X119666000Y-120404002D01*
X119135999Y-119619999D02*
X118646000Y-119130000D01*
X119666000Y-120404002D02*
X119135999Y-119874001D01*
X121706000Y-120150000D02*
X120686000Y-119130000D01*
X121706000Y-120910000D02*
X121706000Y-120150000D01*
X115075000Y-122950000D02*
X120625000Y-122950000D01*
X121706000Y-121869000D02*
X121706000Y-120910000D01*
X106000000Y-119100000D02*
X111225000Y-119100000D01*
X120625000Y-122950000D02*
X121706000Y-121869000D01*
X111225000Y-119100000D02*
X115075000Y-122950000D01*
D17*
X112500000Y-110500000D02*
X116150000Y-110500000D01*
X121000000Y-104250000D02*
X129000000Y-104250000D01*
X121000000Y-109250000D02*
X129000000Y-109250000D01*
X134975000Y-108600000D02*
X134975000Y-114975000D01*
X132355000Y-117595000D02*
X132355000Y-119130000D01*
X134975000Y-114975000D02*
X132355000Y-117595000D01*
X130315000Y-118140051D02*
X125599949Y-113425000D01*
X130315000Y-119130000D02*
X130315000Y-118140051D01*
X125599949Y-113425000D02*
X110125000Y-113425000D01*
X110125000Y-113425000D02*
X108300000Y-111600000D01*
X108300000Y-111600000D02*
X108300000Y-110550000D01*
X108300000Y-110550000D02*
X106675000Y-108925000D01*
X103500000Y-110050000D02*
X103500000Y-111300000D01*
X104625000Y-108925000D02*
X103500000Y-110050000D01*
X106675000Y-108925000D02*
X104625000Y-108925000D01*
X106000000Y-112300000D02*
X106000000Y-111300000D01*
X108650000Y-114950000D02*
X106000000Y-112300000D01*
X124385051Y-114950000D02*
X108650000Y-114950000D01*
X130345051Y-120910000D02*
X124385051Y-114950000D01*
X131335000Y-120910000D02*
X130345051Y-120910000D01*
X138500000Y-110100000D02*
X138500000Y-109250000D01*
X143075010Y-114675010D02*
X138500000Y-110100000D01*
X146875010Y-114675010D02*
X143075010Y-114675010D01*
X149200000Y-117000000D02*
X146875010Y-114675010D01*
X149200000Y-117712500D02*
X149200000Y-117000000D01*
X138500000Y-115025000D02*
X138500000Y-109250000D01*
X134395000Y-119130000D02*
X138500000Y-115025000D01*
X122375000Y-106750000D02*
X129000000Y-106750000D01*
X121000000Y-106750000D02*
X122375000Y-106750000D01*
X129000000Y-106750000D02*
X138500000Y-106750000D01*
X134475001Y-122010001D02*
X134074999Y-121609999D01*
X134074999Y-121609999D02*
X133375000Y-120910000D01*
X137983001Y-122010001D02*
X134475001Y-122010001D01*
X142280502Y-117712500D02*
X137983001Y-122010001D01*
X145150000Y-117712500D02*
X142280502Y-117712500D01*
X148900000Y-113500000D02*
X147500000Y-113500000D01*
X150475010Y-115075010D02*
X148900000Y-113500000D01*
X150094246Y-118825010D02*
X150475010Y-118444246D01*
X147137510Y-118825010D02*
X150094246Y-118825010D01*
X150475010Y-118444246D02*
X150475010Y-115075010D01*
X146025000Y-117712500D02*
X147137510Y-118825010D01*
X145150000Y-117712500D02*
X146025000Y-117712500D01*
X146100000Y-113500000D02*
X144225000Y-111625000D01*
X147500000Y-113500000D02*
X146100000Y-113500000D01*
X139875000Y-106750000D02*
X138500000Y-106750000D01*
X144225000Y-111100000D02*
X139875000Y-106750000D01*
X144225000Y-111625000D02*
X144225000Y-111100000D01*
X145150000Y-120687500D02*
X149200000Y-120687500D01*
D18*
G36*
X151340001Y-128340000D02*
G01*
X100660000Y-128340000D01*
X100660000Y-125229872D01*
X101315000Y-125229872D01*
X101315000Y-125670128D01*
X101400890Y-126101925D01*
X101569369Y-126508669D01*
X101813962Y-126874729D01*
X102125271Y-127186038D01*
X102491331Y-127430631D01*
X102898075Y-127599110D01*
X103329872Y-127685000D01*
X103770128Y-127685000D01*
X104201925Y-127599110D01*
X104608669Y-127430631D01*
X104974729Y-127186038D01*
X105286038Y-126874729D01*
X105530631Y-126508669D01*
X105699110Y-126101925D01*
X105785000Y-125670128D01*
X105785000Y-125229872D01*
X105699110Y-124798075D01*
X105530631Y-124391331D01*
X105286038Y-124025271D01*
X104974729Y-123713962D01*
X104608669Y-123469369D01*
X104201925Y-123300890D01*
X103770128Y-123215000D01*
X103329872Y-123215000D01*
X102898075Y-123300890D01*
X102491331Y-123469369D01*
X102125271Y-123713962D01*
X101813962Y-124025271D01*
X101569369Y-124391331D01*
X101400890Y-124798075D01*
X101315000Y-125229872D01*
X100660000Y-125229872D01*
X100660000Y-111077050D01*
X102015000Y-111077050D01*
X102015000Y-111522949D01*
X102036487Y-111741110D01*
X102121401Y-112021033D01*
X102259294Y-112279013D01*
X102444866Y-112505134D01*
X102670986Y-112690706D01*
X102928966Y-112828599D01*
X103208889Y-112913513D01*
X103500000Y-112942185D01*
X103791110Y-112913513D01*
X104071033Y-112828599D01*
X104329013Y-112690706D01*
X104555134Y-112505134D01*
X104607223Y-112441663D01*
X104661595Y-112543386D01*
X104772038Y-112677962D01*
X104906614Y-112788405D01*
X105060150Y-112870472D01*
X105226746Y-112921008D01*
X105400000Y-112938072D01*
X105457205Y-112938072D01*
X108030563Y-115511432D01*
X108056709Y-115543291D01*
X108088568Y-115569437D01*
X108088570Y-115569439D01*
X108183854Y-115647636D01*
X108216340Y-115665000D01*
X103538115Y-115665000D01*
X103475000Y-115658784D01*
X103411885Y-115665000D01*
X103411877Y-115665000D01*
X103223096Y-115683593D01*
X102980873Y-115757071D01*
X102757638Y-115876392D01*
X102561972Y-116036972D01*
X102401392Y-116232638D01*
X102282071Y-116455873D01*
X102208593Y-116698096D01*
X102183783Y-116950000D01*
X102208593Y-117201904D01*
X102215000Y-117223025D01*
X102215001Y-118203853D01*
X102121401Y-118378966D01*
X102036487Y-118658889D01*
X102015000Y-118877050D01*
X102015000Y-119322949D01*
X102036487Y-119541110D01*
X102121401Y-119821033D01*
X102259294Y-120079013D01*
X102444866Y-120305134D01*
X102670986Y-120490706D01*
X102928966Y-120628599D01*
X103208889Y-120713513D01*
X103500000Y-120742185D01*
X103791110Y-120713513D01*
X104071033Y-120628599D01*
X104329013Y-120490706D01*
X104555134Y-120305134D01*
X104607223Y-120241663D01*
X104661595Y-120343386D01*
X104772038Y-120477962D01*
X104906614Y-120588405D01*
X105060150Y-120670472D01*
X105226746Y-120721008D01*
X105400000Y-120738072D01*
X106600000Y-120738072D01*
X106773254Y-120721008D01*
X106939850Y-120670472D01*
X107093386Y-120588405D01*
X107227962Y-120477962D01*
X107304253Y-120385000D01*
X110692737Y-120385000D01*
X111506807Y-121199071D01*
X111115782Y-121276851D01*
X110704489Y-121447214D01*
X110334334Y-121694544D01*
X110019544Y-122009334D01*
X109772214Y-122379489D01*
X109601851Y-122790782D01*
X109515000Y-123227409D01*
X109515000Y-123672591D01*
X109601851Y-124109218D01*
X109772214Y-124520511D01*
X110019544Y-124890666D01*
X110334334Y-125205456D01*
X110704489Y-125452786D01*
X111115782Y-125623149D01*
X111552409Y-125710000D01*
X111997591Y-125710000D01*
X112434218Y-125623149D01*
X112845511Y-125452786D01*
X113215666Y-125205456D01*
X113530456Y-124890666D01*
X113777786Y-124520511D01*
X113948149Y-124109218D01*
X114025929Y-123718193D01*
X114121733Y-123813997D01*
X114161972Y-123863028D01*
X114357638Y-124023608D01*
X114580873Y-124142929D01*
X114823096Y-124216407D01*
X115011877Y-124235000D01*
X115011886Y-124235000D01*
X115074999Y-124241216D01*
X115138112Y-124235000D01*
X120561885Y-124235000D01*
X120625000Y-124241216D01*
X120688115Y-124235000D01*
X120688123Y-124235000D01*
X120876904Y-124216407D01*
X121119127Y-124142929D01*
X121342362Y-124023608D01*
X121538028Y-123863028D01*
X121578271Y-123813992D01*
X122164855Y-123227409D01*
X137965000Y-123227409D01*
X137965000Y-123672591D01*
X138051851Y-124109218D01*
X138222214Y-124520511D01*
X138469544Y-124890666D01*
X138784334Y-125205456D01*
X139154489Y-125452786D01*
X139565782Y-125623149D01*
X140002409Y-125710000D01*
X140447591Y-125710000D01*
X140884218Y-125623149D01*
X141295511Y-125452786D01*
X141629124Y-125229872D01*
X146215000Y-125229872D01*
X146215000Y-125670128D01*
X146300890Y-126101925D01*
X146469369Y-126508669D01*
X146713962Y-126874729D01*
X147025271Y-127186038D01*
X147391331Y-127430631D01*
X147798075Y-127599110D01*
X148229872Y-127685000D01*
X148670128Y-127685000D01*
X149101925Y-127599110D01*
X149508669Y-127430631D01*
X149874729Y-127186038D01*
X150186038Y-126874729D01*
X150430631Y-126508669D01*
X150599110Y-126101925D01*
X150685000Y-125670128D01*
X150685000Y-125229872D01*
X150599110Y-124798075D01*
X150430631Y-124391331D01*
X150186038Y-124025271D01*
X149874729Y-123713962D01*
X149508669Y-123469369D01*
X149101925Y-123300890D01*
X148670128Y-123215000D01*
X148229872Y-123215000D01*
X147798075Y-123300890D01*
X147391331Y-123469369D01*
X147025271Y-123713962D01*
X146713962Y-124025271D01*
X146469369Y-124391331D01*
X146300890Y-124798075D01*
X146215000Y-125229872D01*
X141629124Y-125229872D01*
X141665666Y-125205456D01*
X141980456Y-124890666D01*
X142227786Y-124520511D01*
X142398149Y-124109218D01*
X142485000Y-123672591D01*
X142485000Y-123227409D01*
X142398149Y-122790782D01*
X142227786Y-122379489D01*
X141980456Y-122009334D01*
X141665666Y-121694544D01*
X141295511Y-121447214D01*
X140884218Y-121276851D01*
X140447591Y-121190000D01*
X140002409Y-121190000D01*
X139565782Y-121276851D01*
X139154489Y-121447214D01*
X138784334Y-121694544D01*
X138469544Y-122009334D01*
X138222214Y-122379489D01*
X138051851Y-122790782D01*
X137965000Y-123227409D01*
X122164855Y-123227409D01*
X122570003Y-122822262D01*
X122619028Y-122782028D01*
X122659262Y-122733003D01*
X122659267Y-122732998D01*
X122779608Y-122586362D01*
X122898928Y-122363128D01*
X122898929Y-122363127D01*
X122972407Y-122120904D01*
X122991000Y-121932123D01*
X122991000Y-121932116D01*
X122997216Y-121869000D01*
X122991000Y-121805884D01*
X122991000Y-121292849D01*
X123041000Y-121041486D01*
X123041000Y-120778514D01*
X122991000Y-120527151D01*
X122991000Y-120213116D01*
X122997216Y-120150000D01*
X122991000Y-120086884D01*
X122991000Y-120086878D01*
X122972407Y-119898097D01*
X122964806Y-119873038D01*
X122931231Y-119762359D01*
X122898929Y-119655873D01*
X122779608Y-119432638D01*
X122756539Y-119404528D01*
X122659267Y-119286002D01*
X122659262Y-119285997D01*
X122619028Y-119236972D01*
X122570002Y-119196737D01*
X121865349Y-118492085D01*
X121722962Y-118278987D01*
X121537013Y-118093038D01*
X121318359Y-117946939D01*
X121075405Y-117846304D01*
X120817486Y-117795000D01*
X120554514Y-117795000D01*
X120296595Y-117846304D01*
X120053641Y-117946939D01*
X119926560Y-118031851D01*
X119912407Y-117888147D01*
X119838929Y-117645924D01*
X119719608Y-117422689D01*
X119559028Y-117227023D01*
X119509997Y-117186784D01*
X118409220Y-116086008D01*
X118368977Y-116036972D01*
X118173311Y-115876392D01*
X118002328Y-115785000D01*
X124039184Y-115785000D01*
X129725614Y-121471432D01*
X129751760Y-121503291D01*
X129783619Y-121529437D01*
X129783621Y-121529439D01*
X129878905Y-121607636D01*
X130023964Y-121685172D01*
X130181362Y-121732918D01*
X130286163Y-121743240D01*
X130298038Y-121761013D01*
X130483987Y-121946962D01*
X130702641Y-122093061D01*
X130945595Y-122193696D01*
X131203514Y-122245000D01*
X131466486Y-122245000D01*
X131724405Y-122193696D01*
X131967359Y-122093061D01*
X132186013Y-121946962D01*
X132301706Y-121831269D01*
X132633336Y-121831269D01*
X132692797Y-122065037D01*
X132931242Y-122175934D01*
X133186740Y-122238183D01*
X133449473Y-122249390D01*
X133709344Y-122209125D01*
X133956366Y-122118935D01*
X134057203Y-122065037D01*
X134116664Y-121831269D01*
X133375000Y-121089605D01*
X132633336Y-121831269D01*
X132301706Y-121831269D01*
X132371962Y-121761013D01*
X132446291Y-121649771D01*
X132453731Y-121651664D01*
X133195395Y-120910000D01*
X133181253Y-120895858D01*
X133360858Y-120716253D01*
X133375000Y-120730395D01*
X133389143Y-120716253D01*
X133568748Y-120895858D01*
X133554605Y-120910000D01*
X134296269Y-121651664D01*
X134303709Y-121649771D01*
X134378038Y-121761013D01*
X134563987Y-121946962D01*
X134782641Y-122093061D01*
X135025595Y-122193696D01*
X135283514Y-122245000D01*
X135546486Y-122245000D01*
X135804405Y-122193696D01*
X136047359Y-122093061D01*
X136266013Y-121946962D01*
X136435000Y-121777975D01*
X136603987Y-121946962D01*
X136822641Y-122093061D01*
X137065595Y-122193696D01*
X137323514Y-122245000D01*
X137586486Y-122245000D01*
X137844405Y-122193696D01*
X138087359Y-122093061D01*
X138306013Y-121946962D01*
X138491962Y-121761013D01*
X138638061Y-121542359D01*
X138738696Y-121299405D01*
X138790000Y-121041486D01*
X138790000Y-120778514D01*
X138738696Y-120520595D01*
X138638061Y-120277641D01*
X138602888Y-120225000D01*
X143636928Y-120225000D01*
X143636928Y-121150000D01*
X143653992Y-121323254D01*
X143704528Y-121489850D01*
X143786595Y-121643386D01*
X143897038Y-121777962D01*
X144031614Y-121888405D01*
X144185150Y-121970472D01*
X144351746Y-122021008D01*
X144525000Y-122038072D01*
X145775000Y-122038072D01*
X145948254Y-122021008D01*
X146114850Y-121970472D01*
X146268386Y-121888405D01*
X146402962Y-121777962D01*
X146513405Y-121643386D01*
X146578020Y-121522500D01*
X147771980Y-121522500D01*
X147836595Y-121643386D01*
X147947038Y-121777962D01*
X148081614Y-121888405D01*
X148235150Y-121970472D01*
X148401746Y-122021008D01*
X148575000Y-122038072D01*
X149825000Y-122038072D01*
X149998254Y-122021008D01*
X150164850Y-121970472D01*
X150318386Y-121888405D01*
X150452962Y-121777962D01*
X150563405Y-121643386D01*
X150645472Y-121489850D01*
X150696008Y-121323254D01*
X150713072Y-121150000D01*
X150713072Y-120225000D01*
X150696008Y-120051746D01*
X150645472Y-119885150D01*
X150563405Y-119731614D01*
X150452962Y-119597038D01*
X150318386Y-119486595D01*
X150164850Y-119404528D01*
X149998254Y-119353992D01*
X149825000Y-119336928D01*
X148575000Y-119336928D01*
X148401746Y-119353992D01*
X148235150Y-119404528D01*
X148081614Y-119486595D01*
X147947038Y-119597038D01*
X147836595Y-119731614D01*
X147771980Y-119852500D01*
X146578020Y-119852500D01*
X146513405Y-119731614D01*
X146402962Y-119597038D01*
X146268386Y-119486595D01*
X146114850Y-119404528D01*
X145948254Y-119353992D01*
X145775000Y-119336928D01*
X144525000Y-119336928D01*
X144351746Y-119353992D01*
X144185150Y-119404528D01*
X144031614Y-119486595D01*
X143897038Y-119597038D01*
X143786595Y-119731614D01*
X143704528Y-119885150D01*
X143653992Y-120051746D01*
X143636928Y-120225000D01*
X138602888Y-120225000D01*
X138491962Y-120058987D01*
X138306013Y-119873038D01*
X138087359Y-119726939D01*
X137844405Y-119626304D01*
X137687357Y-119595065D01*
X137718696Y-119519405D01*
X137770000Y-119261486D01*
X137770000Y-118998514D01*
X137718696Y-118740595D01*
X137618061Y-118497641D01*
X137569525Y-118425000D01*
X143636928Y-118425000D01*
X143649188Y-118549482D01*
X143685498Y-118669180D01*
X143744463Y-118779494D01*
X143823815Y-118876185D01*
X143920506Y-118955537D01*
X144030820Y-119014502D01*
X144150518Y-119050812D01*
X144275000Y-119063072D01*
X144864250Y-119060000D01*
X145023000Y-118901250D01*
X145023000Y-117839500D01*
X145277000Y-117839500D01*
X145277000Y-118901250D01*
X145435750Y-119060000D01*
X146025000Y-119063072D01*
X146149482Y-119050812D01*
X146269180Y-119014502D01*
X146379494Y-118955537D01*
X146476185Y-118876185D01*
X146555537Y-118779494D01*
X146614502Y-118669180D01*
X146650812Y-118549482D01*
X146663072Y-118425000D01*
X146660000Y-117998250D01*
X146501250Y-117839500D01*
X145277000Y-117839500D01*
X145023000Y-117839500D01*
X143798750Y-117839500D01*
X143640000Y-117998250D01*
X143636928Y-118425000D01*
X137569525Y-118425000D01*
X137471962Y-118278987D01*
X137286013Y-118093038D01*
X137067359Y-117946939D01*
X136849266Y-117856602D01*
X137705868Y-117000000D01*
X143636928Y-117000000D01*
X143640000Y-117426750D01*
X143798750Y-117585500D01*
X145023000Y-117585500D01*
X145023000Y-116523750D01*
X145277000Y-116523750D01*
X145277000Y-117585500D01*
X146501250Y-117585500D01*
X146660000Y-117426750D01*
X146663072Y-117000000D01*
X146650812Y-116875518D01*
X146614502Y-116755820D01*
X146555537Y-116645506D01*
X146476185Y-116548815D01*
X146379494Y-116469463D01*
X146269180Y-116410498D01*
X146149482Y-116374188D01*
X146025000Y-116361928D01*
X145435750Y-116365000D01*
X145277000Y-116523750D01*
X145023000Y-116523750D01*
X144864250Y-116365000D01*
X144275000Y-116361928D01*
X144150518Y-116374188D01*
X144030820Y-116410498D01*
X143920506Y-116469463D01*
X143823815Y-116548815D01*
X143744463Y-116645506D01*
X143685498Y-116755820D01*
X143649188Y-116875518D01*
X143636928Y-117000000D01*
X137705868Y-117000000D01*
X139061433Y-115644436D01*
X139093291Y-115618291D01*
X139160473Y-115536430D01*
X139197636Y-115491146D01*
X139275172Y-115346087D01*
X139322918Y-115188688D01*
X139339040Y-115025000D01*
X139335000Y-114983982D01*
X139335000Y-112115867D01*
X142455569Y-115236437D01*
X142481719Y-115268301D01*
X142576502Y-115346087D01*
X142608864Y-115372646D01*
X142753923Y-115450182D01*
X142911321Y-115497928D01*
X143075009Y-115514050D01*
X143116028Y-115510010D01*
X146529143Y-115510010D01*
X147815400Y-116796267D01*
X147754528Y-116910150D01*
X147703992Y-117076746D01*
X147686928Y-117250000D01*
X147686928Y-118175000D01*
X147703992Y-118348254D01*
X147754528Y-118514850D01*
X147836595Y-118668386D01*
X147947038Y-118802962D01*
X148081614Y-118913405D01*
X148235150Y-118995472D01*
X148401746Y-119046008D01*
X148575000Y-119063072D01*
X149825000Y-119063072D01*
X149998254Y-119046008D01*
X150164850Y-118995472D01*
X150318386Y-118913405D01*
X150452962Y-118802962D01*
X150563405Y-118668386D01*
X150645472Y-118514850D01*
X150696008Y-118348254D01*
X150713072Y-118175000D01*
X150713072Y-117250000D01*
X150696008Y-117076746D01*
X150645472Y-116910150D01*
X150563405Y-116756614D01*
X150452962Y-116622038D01*
X150318386Y-116511595D01*
X150164850Y-116429528D01*
X149998254Y-116378992D01*
X149825000Y-116361928D01*
X149742796Y-116361928D01*
X148238388Y-114857521D01*
X148406812Y-114779025D01*
X148641795Y-114606802D01*
X148838664Y-114392046D01*
X148989854Y-114143009D01*
X149089554Y-113869261D01*
X149091476Y-113856890D01*
X148970155Y-113627000D01*
X147627000Y-113627000D01*
X147627000Y-113647000D01*
X147373000Y-113647000D01*
X147373000Y-113627000D01*
X146029845Y-113627000D01*
X145917432Y-113840010D01*
X143420878Y-113840010D01*
X139980868Y-110400000D01*
X145861928Y-110400000D01*
X145861928Y-111600000D01*
X145878992Y-111773254D01*
X145929528Y-111939850D01*
X146011595Y-112093386D01*
X146122038Y-112227962D01*
X146256614Y-112338405D01*
X146358593Y-112392914D01*
X146358205Y-112393198D01*
X146161336Y-112607954D01*
X146010146Y-112856991D01*
X145910446Y-113130739D01*
X145908524Y-113143110D01*
X146029845Y-113373000D01*
X147373000Y-113373000D01*
X147373000Y-113353000D01*
X147627000Y-113353000D01*
X147627000Y-113373000D01*
X148970155Y-113373000D01*
X149091476Y-113143110D01*
X149089554Y-113130739D01*
X148989854Y-112856991D01*
X148838664Y-112607954D01*
X148641795Y-112393198D01*
X148641407Y-112392914D01*
X148743386Y-112338405D01*
X148877962Y-112227962D01*
X148988405Y-112093386D01*
X149070472Y-111939850D01*
X149121008Y-111773254D01*
X149138072Y-111600000D01*
X149138072Y-110400000D01*
X149121008Y-110226746D01*
X149070472Y-110060150D01*
X148988405Y-109906614D01*
X148877962Y-109772038D01*
X148743386Y-109661595D01*
X148589850Y-109579528D01*
X148423254Y-109528992D01*
X148250000Y-109511928D01*
X146750000Y-109511928D01*
X146576746Y-109528992D01*
X146410150Y-109579528D01*
X146256614Y-109661595D01*
X146122038Y-109772038D01*
X146011595Y-109906614D01*
X145929528Y-110060150D01*
X145878992Y-110226746D01*
X145861928Y-110400000D01*
X139980868Y-110400000D01*
X139945757Y-110364890D01*
X139963405Y-110343386D01*
X140045472Y-110189850D01*
X140096008Y-110023254D01*
X140113072Y-109850000D01*
X140113072Y-108650000D01*
X140096008Y-108476746D01*
X140045472Y-108310150D01*
X139963405Y-108156614D01*
X139852962Y-108022038D01*
X139718386Y-107911595D01*
X139613039Y-107855286D01*
X139634429Y-107839049D01*
X139827496Y-107621193D01*
X139974352Y-107369858D01*
X140066476Y-107106890D01*
X139945155Y-106877000D01*
X138627000Y-106877000D01*
X138627000Y-106897000D01*
X138373000Y-106897000D01*
X138373000Y-106877000D01*
X137054845Y-106877000D01*
X136933524Y-107106890D01*
X137025648Y-107369858D01*
X137172504Y-107621193D01*
X137365571Y-107839049D01*
X137386961Y-107855286D01*
X137281614Y-107911595D01*
X137147038Y-108022038D01*
X137036595Y-108156614D01*
X136954528Y-108310150D01*
X136903992Y-108476746D01*
X136886928Y-108650000D01*
X136886928Y-109850000D01*
X136903992Y-110023254D01*
X136954528Y-110189850D01*
X137036595Y-110343386D01*
X137147038Y-110477962D01*
X137281614Y-110588405D01*
X137435150Y-110670472D01*
X137601746Y-110721008D01*
X137665001Y-110727238D01*
X137665000Y-114679131D01*
X134545375Y-117798757D01*
X134526486Y-117795000D01*
X134263514Y-117795000D01*
X134005595Y-117846304D01*
X133762641Y-117946939D01*
X133543987Y-118093038D01*
X133375000Y-118262025D01*
X133206013Y-118093038D01*
X133190000Y-118082339D01*
X133190000Y-117940867D01*
X135536432Y-115594437D01*
X135568291Y-115568291D01*
X135672636Y-115441146D01*
X135750172Y-115296087D01*
X135797918Y-115138689D01*
X135810000Y-115016019D01*
X135810000Y-115016018D01*
X135814040Y-114975000D01*
X135810000Y-114933982D01*
X135810000Y-109213285D01*
X135892205Y-109090256D01*
X135970226Y-108901898D01*
X136010000Y-108701939D01*
X136010000Y-108498061D01*
X135970226Y-108298102D01*
X135892205Y-108109744D01*
X135778937Y-107940226D01*
X135634774Y-107796063D01*
X135465256Y-107682795D01*
X135276898Y-107604774D01*
X135076939Y-107565000D01*
X134873061Y-107565000D01*
X134673102Y-107604774D01*
X134484744Y-107682795D01*
X134315226Y-107796063D01*
X134171063Y-107940226D01*
X134057795Y-108109744D01*
X133979774Y-108298102D01*
X133940000Y-108498061D01*
X133940000Y-108701939D01*
X133979774Y-108901898D01*
X134057795Y-109090256D01*
X134140000Y-109213285D01*
X134140001Y-114629130D01*
X131793579Y-116975554D01*
X131761709Y-117001709D01*
X131657365Y-117128854D01*
X131657364Y-117128855D01*
X131579828Y-117273914D01*
X131532082Y-117431312D01*
X131515960Y-117595000D01*
X131520000Y-117636019D01*
X131520000Y-118082338D01*
X131503987Y-118093038D01*
X131335000Y-118262025D01*
X131166013Y-118093038D01*
X131148240Y-118081163D01*
X131137918Y-117976362D01*
X131090172Y-117818964D01*
X131012636Y-117673905D01*
X131007265Y-117667361D01*
X130908291Y-117546760D01*
X130876427Y-117520610D01*
X126219395Y-112863579D01*
X126193240Y-112831709D01*
X126066095Y-112727364D01*
X125921036Y-112649828D01*
X125763638Y-112602082D01*
X125640968Y-112590000D01*
X125640967Y-112590000D01*
X125599949Y-112585960D01*
X125558931Y-112590000D01*
X110470869Y-112590000D01*
X109135000Y-111254133D01*
X109135000Y-110591018D01*
X109139040Y-110549999D01*
X109122918Y-110386311D01*
X109075172Y-110228913D01*
X108997636Y-110083854D01*
X108947903Y-110023254D01*
X108893291Y-109956709D01*
X108861426Y-109930559D01*
X107294446Y-108363579D01*
X107268291Y-108331709D01*
X107141146Y-108227364D01*
X106996087Y-108149828D01*
X106838689Y-108102082D01*
X106716019Y-108090000D01*
X106716018Y-108090000D01*
X106675000Y-108085960D01*
X106633982Y-108090000D01*
X104666007Y-108090000D01*
X104624999Y-108085961D01*
X104583991Y-108090000D01*
X104583981Y-108090000D01*
X104461311Y-108102082D01*
X104303913Y-108149828D01*
X104158854Y-108227364D01*
X104031709Y-108331709D01*
X104005558Y-108363574D01*
X102938579Y-109430554D01*
X102906709Y-109456709D01*
X102821818Y-109560150D01*
X102802364Y-109583855D01*
X102724828Y-109728914D01*
X102677082Y-109886312D01*
X102675031Y-109907132D01*
X102670987Y-109909294D01*
X102444866Y-110094866D01*
X102259294Y-110320986D01*
X102121401Y-110578966D01*
X102036487Y-110858889D01*
X102015000Y-111077050D01*
X100660000Y-111077050D01*
X100660000Y-103329872D01*
X101315000Y-103329872D01*
X101315000Y-103770128D01*
X101400890Y-104201925D01*
X101569369Y-104608669D01*
X101813962Y-104974729D01*
X102125271Y-105286038D01*
X102491331Y-105530631D01*
X102898075Y-105699110D01*
X103329872Y-105785000D01*
X103770128Y-105785000D01*
X104201925Y-105699110D01*
X104608669Y-105530631D01*
X104974729Y-105286038D01*
X105286038Y-104974729D01*
X105530631Y-104608669D01*
X105699110Y-104201925D01*
X105785000Y-103770128D01*
X105785000Y-103329872D01*
X105719385Y-103000000D01*
X110882815Y-103000000D01*
X110911487Y-103291111D01*
X110996401Y-103571034D01*
X111134294Y-103829014D01*
X111319866Y-104055134D01*
X111545986Y-104240706D01*
X111563374Y-104250000D01*
X111545986Y-104259294D01*
X111319866Y-104444866D01*
X111134294Y-104670986D01*
X110996401Y-104928966D01*
X110911487Y-105208889D01*
X110882815Y-105500000D01*
X110911487Y-105791111D01*
X110996401Y-106071034D01*
X111134294Y-106329014D01*
X111319866Y-106555134D01*
X111545986Y-106740706D01*
X111563374Y-106750000D01*
X111545986Y-106759294D01*
X111319866Y-106944866D01*
X111134294Y-107170986D01*
X110996401Y-107428966D01*
X110911487Y-107708889D01*
X110882815Y-108000000D01*
X110911487Y-108291111D01*
X110996401Y-108571034D01*
X111134294Y-108829014D01*
X111319866Y-109055134D01*
X111383337Y-109107223D01*
X111281614Y-109161595D01*
X111147038Y-109272038D01*
X111036595Y-109406614D01*
X110954528Y-109560150D01*
X110903992Y-109726746D01*
X110886928Y-109900000D01*
X110886928Y-111100000D01*
X110903992Y-111273254D01*
X110954528Y-111439850D01*
X111036595Y-111593386D01*
X111147038Y-111727962D01*
X111281614Y-111838405D01*
X111435150Y-111920472D01*
X111601746Y-111971008D01*
X111775000Y-111988072D01*
X113225000Y-111988072D01*
X113398254Y-111971008D01*
X113564850Y-111920472D01*
X113718386Y-111838405D01*
X113852962Y-111727962D01*
X113963405Y-111593386D01*
X114045472Y-111439850D01*
X114077278Y-111335000D01*
X115536715Y-111335000D01*
X115659744Y-111417205D01*
X115848102Y-111495226D01*
X116048061Y-111535000D01*
X116251939Y-111535000D01*
X116451898Y-111495226D01*
X116640256Y-111417205D01*
X116809774Y-111303937D01*
X116953937Y-111159774D01*
X117067205Y-110990256D01*
X117145226Y-110801898D01*
X117185000Y-110601939D01*
X117185000Y-110398061D01*
X117145226Y-110198102D01*
X117067205Y-110009744D01*
X116953937Y-109840226D01*
X116809774Y-109696063D01*
X116640256Y-109582795D01*
X116451898Y-109504774D01*
X116251939Y-109465000D01*
X116048061Y-109465000D01*
X115848102Y-109504774D01*
X115659744Y-109582795D01*
X115536715Y-109665000D01*
X114077278Y-109665000D01*
X114045472Y-109560150D01*
X113963405Y-109406614D01*
X113852962Y-109272038D01*
X113718386Y-109161595D01*
X113616663Y-109107223D01*
X113680134Y-109055134D01*
X113865706Y-108829014D01*
X113961390Y-108650000D01*
X119386928Y-108650000D01*
X119386928Y-109850000D01*
X119403992Y-110023254D01*
X119454528Y-110189850D01*
X119536595Y-110343386D01*
X119647038Y-110477962D01*
X119781614Y-110588405D01*
X119935150Y-110670472D01*
X120101746Y-110721008D01*
X120275000Y-110738072D01*
X121725000Y-110738072D01*
X121898254Y-110721008D01*
X122064850Y-110670472D01*
X122218386Y-110588405D01*
X122352962Y-110477962D01*
X122463405Y-110343386D01*
X122545472Y-110189850D01*
X122577278Y-110085000D01*
X127422722Y-110085000D01*
X127454528Y-110189850D01*
X127536595Y-110343386D01*
X127647038Y-110477962D01*
X127781614Y-110588405D01*
X127935150Y-110670472D01*
X128101746Y-110721008D01*
X128275000Y-110738072D01*
X129725000Y-110738072D01*
X129898254Y-110721008D01*
X130064850Y-110670472D01*
X130218386Y-110588405D01*
X130352962Y-110477962D01*
X130463405Y-110343386D01*
X130545472Y-110189850D01*
X130596008Y-110023254D01*
X130613072Y-109850000D01*
X130613072Y-108650000D01*
X130596008Y-108476746D01*
X130545472Y-108310150D01*
X130463405Y-108156614D01*
X130352962Y-108022038D01*
X130218386Y-107911595D01*
X130113039Y-107855286D01*
X130134429Y-107839049D01*
X130327496Y-107621193D01*
X130474352Y-107369858D01*
X130566476Y-107106890D01*
X130445155Y-106877000D01*
X129127000Y-106877000D01*
X129127000Y-106897000D01*
X128873000Y-106897000D01*
X128873000Y-106877000D01*
X127554845Y-106877000D01*
X127433524Y-107106890D01*
X127525648Y-107369858D01*
X127672504Y-107621193D01*
X127865571Y-107839049D01*
X127886961Y-107855286D01*
X127781614Y-107911595D01*
X127647038Y-108022038D01*
X127536595Y-108156614D01*
X127454528Y-108310150D01*
X127422722Y-108415000D01*
X122577278Y-108415000D01*
X122545472Y-108310150D01*
X122463405Y-108156614D01*
X122352962Y-108022038D01*
X122218386Y-107911595D01*
X122113039Y-107855286D01*
X122134429Y-107839049D01*
X122327496Y-107621193D01*
X122474352Y-107369858D01*
X122566476Y-107106890D01*
X122445155Y-106877000D01*
X121127000Y-106877000D01*
X121127000Y-106897000D01*
X120873000Y-106897000D01*
X120873000Y-106877000D01*
X119554845Y-106877000D01*
X119433524Y-107106890D01*
X119525648Y-107369858D01*
X119672504Y-107621193D01*
X119865571Y-107839049D01*
X119886961Y-107855286D01*
X119781614Y-107911595D01*
X119647038Y-108022038D01*
X119536595Y-108156614D01*
X119454528Y-108310150D01*
X119403992Y-108476746D01*
X119386928Y-108650000D01*
X113961390Y-108650000D01*
X114003599Y-108571034D01*
X114088513Y-108291111D01*
X114117185Y-108000000D01*
X114088513Y-107708889D01*
X114003599Y-107428966D01*
X113865706Y-107170986D01*
X113680134Y-106944866D01*
X113454014Y-106759294D01*
X113436626Y-106750000D01*
X113454014Y-106740706D01*
X113680134Y-106555134D01*
X113865706Y-106329014D01*
X114003599Y-106071034D01*
X114088513Y-105791111D01*
X114117185Y-105500000D01*
X114088513Y-105208889D01*
X114003599Y-104928966D01*
X113865706Y-104670986D01*
X113680134Y-104444866D01*
X113454014Y-104259294D01*
X113436626Y-104250000D01*
X119382815Y-104250000D01*
X119411487Y-104541111D01*
X119496401Y-104821034D01*
X119634294Y-105079014D01*
X119819866Y-105305134D01*
X120045986Y-105490706D01*
X120071722Y-105504462D01*
X119865571Y-105660951D01*
X119672504Y-105878807D01*
X119525648Y-106130142D01*
X119433524Y-106393110D01*
X119554845Y-106623000D01*
X120873000Y-106623000D01*
X120873000Y-106603000D01*
X121127000Y-106603000D01*
X121127000Y-106623000D01*
X122445155Y-106623000D01*
X122566476Y-106393110D01*
X122474352Y-106130142D01*
X122327496Y-105878807D01*
X122134429Y-105660951D01*
X121928278Y-105504462D01*
X121954014Y-105490706D01*
X122180134Y-105305134D01*
X122360793Y-105085000D01*
X127639207Y-105085000D01*
X127819866Y-105305134D01*
X128045986Y-105490706D01*
X128071722Y-105504462D01*
X127865571Y-105660951D01*
X127672504Y-105878807D01*
X127525648Y-106130142D01*
X127433524Y-106393110D01*
X127554845Y-106623000D01*
X128873000Y-106623000D01*
X128873000Y-106603000D01*
X129127000Y-106603000D01*
X129127000Y-106623000D01*
X130445155Y-106623000D01*
X130566476Y-106393110D01*
X130474352Y-106130142D01*
X130327496Y-105878807D01*
X130134429Y-105660951D01*
X129928278Y-105504462D01*
X129954014Y-105490706D01*
X130180134Y-105305134D01*
X130365706Y-105079014D01*
X130503599Y-104821034D01*
X130588513Y-104541111D01*
X130617185Y-104250000D01*
X136882815Y-104250000D01*
X136911487Y-104541111D01*
X136996401Y-104821034D01*
X137134294Y-105079014D01*
X137319866Y-105305134D01*
X137545986Y-105490706D01*
X137571722Y-105504462D01*
X137365571Y-105660951D01*
X137172504Y-105878807D01*
X137025648Y-106130142D01*
X136933524Y-106393110D01*
X137054845Y-106623000D01*
X138373000Y-106623000D01*
X138373000Y-106603000D01*
X138627000Y-106603000D01*
X138627000Y-106623000D01*
X139945155Y-106623000D01*
X140066476Y-106393110D01*
X139974352Y-106130142D01*
X139827496Y-105878807D01*
X139634429Y-105660951D01*
X139428278Y-105504462D01*
X139454014Y-105490706D01*
X139680134Y-105305134D01*
X139865706Y-105079014D01*
X140003599Y-104821034D01*
X140088513Y-104541111D01*
X140117185Y-104250000D01*
X140088513Y-103958889D01*
X140003599Y-103678966D01*
X139865706Y-103420986D01*
X139790931Y-103329872D01*
X146215000Y-103329872D01*
X146215000Y-103770128D01*
X146300890Y-104201925D01*
X146469369Y-104608669D01*
X146713962Y-104974729D01*
X147025271Y-105286038D01*
X147391331Y-105530631D01*
X147798075Y-105699110D01*
X148229872Y-105785000D01*
X148670128Y-105785000D01*
X149101925Y-105699110D01*
X149508669Y-105530631D01*
X149874729Y-105286038D01*
X150186038Y-104974729D01*
X150430631Y-104608669D01*
X150599110Y-104201925D01*
X150685000Y-103770128D01*
X150685000Y-103329872D01*
X150599110Y-102898075D01*
X150430631Y-102491331D01*
X150186038Y-102125271D01*
X149874729Y-101813962D01*
X149508669Y-101569369D01*
X149101925Y-101400890D01*
X148670128Y-101315000D01*
X148229872Y-101315000D01*
X147798075Y-101400890D01*
X147391331Y-101569369D01*
X147025271Y-101813962D01*
X146713962Y-102125271D01*
X146469369Y-102491331D01*
X146300890Y-102898075D01*
X146215000Y-103329872D01*
X139790931Y-103329872D01*
X139680134Y-103194866D01*
X139454014Y-103009294D01*
X139196034Y-102871401D01*
X138916111Y-102786487D01*
X138697950Y-102765000D01*
X138302050Y-102765000D01*
X138083889Y-102786487D01*
X137803966Y-102871401D01*
X137545986Y-103009294D01*
X137319866Y-103194866D01*
X137134294Y-103420986D01*
X136996401Y-103678966D01*
X136911487Y-103958889D01*
X136882815Y-104250000D01*
X130617185Y-104250000D01*
X130588513Y-103958889D01*
X130503599Y-103678966D01*
X130365706Y-103420986D01*
X130180134Y-103194866D01*
X129954014Y-103009294D01*
X129696034Y-102871401D01*
X129416111Y-102786487D01*
X129197950Y-102765000D01*
X128802050Y-102765000D01*
X128583889Y-102786487D01*
X128303966Y-102871401D01*
X128045986Y-103009294D01*
X127819866Y-103194866D01*
X127639207Y-103415000D01*
X122360793Y-103415000D01*
X122180134Y-103194866D01*
X121954014Y-103009294D01*
X121696034Y-102871401D01*
X121416111Y-102786487D01*
X121197950Y-102765000D01*
X120802050Y-102765000D01*
X120583889Y-102786487D01*
X120303966Y-102871401D01*
X120045986Y-103009294D01*
X119819866Y-103194866D01*
X119634294Y-103420986D01*
X119496401Y-103678966D01*
X119411487Y-103958889D01*
X119382815Y-104250000D01*
X113436626Y-104250000D01*
X113454014Y-104240706D01*
X113680134Y-104055134D01*
X113865706Y-103829014D01*
X114003599Y-103571034D01*
X114088513Y-103291111D01*
X114117185Y-103000000D01*
X114088513Y-102708889D01*
X114003599Y-102428966D01*
X113865706Y-102170986D01*
X113680134Y-101944866D01*
X113454014Y-101759294D01*
X113196034Y-101621401D01*
X112916111Y-101536487D01*
X112697950Y-101515000D01*
X112302050Y-101515000D01*
X112083889Y-101536487D01*
X111803966Y-101621401D01*
X111545986Y-101759294D01*
X111319866Y-101944866D01*
X111134294Y-102170986D01*
X110996401Y-102428966D01*
X110911487Y-102708889D01*
X110882815Y-103000000D01*
X105719385Y-103000000D01*
X105699110Y-102898075D01*
X105530631Y-102491331D01*
X105286038Y-102125271D01*
X104974729Y-101813962D01*
X104608669Y-101569369D01*
X104201925Y-101400890D01*
X103770128Y-101315000D01*
X103329872Y-101315000D01*
X102898075Y-101400890D01*
X102491331Y-101569369D01*
X102125271Y-101813962D01*
X101813962Y-102125271D01*
X101569369Y-102491331D01*
X101400890Y-102898075D01*
X101315000Y-103329872D01*
X100660000Y-103329872D01*
X100660000Y-100660000D01*
X151340000Y-100660000D01*
X151340001Y-128340000D01*
G37*
X151340001Y-128340000D02*
X100660000Y-128340000D01*
X100660000Y-125229872D01*
X101315000Y-125229872D01*
X101315000Y-125670128D01*
X101400890Y-126101925D01*
X101569369Y-126508669D01*
X101813962Y-126874729D01*
X102125271Y-127186038D01*
X102491331Y-127430631D01*
X102898075Y-127599110D01*
X103329872Y-127685000D01*
X103770128Y-127685000D01*
X104201925Y-127599110D01*
X104608669Y-127430631D01*
X104974729Y-127186038D01*
X105286038Y-126874729D01*
X105530631Y-126508669D01*
X105699110Y-126101925D01*
X105785000Y-125670128D01*
X105785000Y-125229872D01*
X105699110Y-124798075D01*
X105530631Y-124391331D01*
X105286038Y-124025271D01*
X104974729Y-123713962D01*
X104608669Y-123469369D01*
X104201925Y-123300890D01*
X103770128Y-123215000D01*
X103329872Y-123215000D01*
X102898075Y-123300890D01*
X102491331Y-123469369D01*
X102125271Y-123713962D01*
X101813962Y-124025271D01*
X101569369Y-124391331D01*
X101400890Y-124798075D01*
X101315000Y-125229872D01*
X100660000Y-125229872D01*
X100660000Y-111077050D01*
X102015000Y-111077050D01*
X102015000Y-111522949D01*
X102036487Y-111741110D01*
X102121401Y-112021033D01*
X102259294Y-112279013D01*
X102444866Y-112505134D01*
X102670986Y-112690706D01*
X102928966Y-112828599D01*
X103208889Y-112913513D01*
X103500000Y-112942185D01*
X103791110Y-112913513D01*
X104071033Y-112828599D01*
X104329013Y-112690706D01*
X104555134Y-112505134D01*
X104607223Y-112441663D01*
X104661595Y-112543386D01*
X104772038Y-112677962D01*
X104906614Y-112788405D01*
X105060150Y-112870472D01*
X105226746Y-112921008D01*
X105400000Y-112938072D01*
X105457205Y-112938072D01*
X108030563Y-115511432D01*
X108056709Y-115543291D01*
X108088568Y-115569437D01*
X108088570Y-115569439D01*
X108183854Y-115647636D01*
X108216340Y-115665000D01*
X103538115Y-115665000D01*
X103475000Y-115658784D01*
X103411885Y-115665000D01*
X103411877Y-115665000D01*
X103223096Y-115683593D01*
X102980873Y-115757071D01*
X102757638Y-115876392D01*
X102561972Y-116036972D01*
X102401392Y-116232638D01*
X102282071Y-116455873D01*
X102208593Y-116698096D01*
X102183783Y-116950000D01*
X102208593Y-117201904D01*
X102215000Y-117223025D01*
X102215001Y-118203853D01*
X102121401Y-118378966D01*
X102036487Y-118658889D01*
X102015000Y-118877050D01*
X102015000Y-119322949D01*
X102036487Y-119541110D01*
X102121401Y-119821033D01*
X102259294Y-120079013D01*
X102444866Y-120305134D01*
X102670986Y-120490706D01*
X102928966Y-120628599D01*
X103208889Y-120713513D01*
X103500000Y-120742185D01*
X103791110Y-120713513D01*
X104071033Y-120628599D01*
X104329013Y-120490706D01*
X104555134Y-120305134D01*
X104607223Y-120241663D01*
X104661595Y-120343386D01*
X104772038Y-120477962D01*
X104906614Y-120588405D01*
X105060150Y-120670472D01*
X105226746Y-120721008D01*
X105400000Y-120738072D01*
X106600000Y-120738072D01*
X106773254Y-120721008D01*
X106939850Y-120670472D01*
X107093386Y-120588405D01*
X107227962Y-120477962D01*
X107304253Y-120385000D01*
X110692737Y-120385000D01*
X111506807Y-121199071D01*
X111115782Y-121276851D01*
X110704489Y-121447214D01*
X110334334Y-121694544D01*
X110019544Y-122009334D01*
X109772214Y-122379489D01*
X109601851Y-122790782D01*
X109515000Y-123227409D01*
X109515000Y-123672591D01*
X109601851Y-124109218D01*
X109772214Y-124520511D01*
X110019544Y-124890666D01*
X110334334Y-125205456D01*
X110704489Y-125452786D01*
X111115782Y-125623149D01*
X111552409Y-125710000D01*
X111997591Y-125710000D01*
X112434218Y-125623149D01*
X112845511Y-125452786D01*
X113215666Y-125205456D01*
X113530456Y-124890666D01*
X113777786Y-124520511D01*
X113948149Y-124109218D01*
X114025929Y-123718193D01*
X114121733Y-123813997D01*
X114161972Y-123863028D01*
X114357638Y-124023608D01*
X114580873Y-124142929D01*
X114823096Y-124216407D01*
X115011877Y-124235000D01*
X115011886Y-124235000D01*
X115074999Y-124241216D01*
X115138112Y-124235000D01*
X120561885Y-124235000D01*
X120625000Y-124241216D01*
X120688115Y-124235000D01*
X120688123Y-124235000D01*
X120876904Y-124216407D01*
X121119127Y-124142929D01*
X121342362Y-124023608D01*
X121538028Y-123863028D01*
X121578271Y-123813992D01*
X122164855Y-123227409D01*
X137965000Y-123227409D01*
X137965000Y-123672591D01*
X138051851Y-124109218D01*
X138222214Y-124520511D01*
X138469544Y-124890666D01*
X138784334Y-125205456D01*
X139154489Y-125452786D01*
X139565782Y-125623149D01*
X140002409Y-125710000D01*
X140447591Y-125710000D01*
X140884218Y-125623149D01*
X141295511Y-125452786D01*
X141629124Y-125229872D01*
X146215000Y-125229872D01*
X146215000Y-125670128D01*
X146300890Y-126101925D01*
X146469369Y-126508669D01*
X146713962Y-126874729D01*
X147025271Y-127186038D01*
X147391331Y-127430631D01*
X147798075Y-127599110D01*
X148229872Y-127685000D01*
X148670128Y-127685000D01*
X149101925Y-127599110D01*
X149508669Y-127430631D01*
X149874729Y-127186038D01*
X150186038Y-126874729D01*
X150430631Y-126508669D01*
X150599110Y-126101925D01*
X150685000Y-125670128D01*
X150685000Y-125229872D01*
X150599110Y-124798075D01*
X150430631Y-124391331D01*
X150186038Y-124025271D01*
X149874729Y-123713962D01*
X149508669Y-123469369D01*
X149101925Y-123300890D01*
X148670128Y-123215000D01*
X148229872Y-123215000D01*
X147798075Y-123300890D01*
X147391331Y-123469369D01*
X147025271Y-123713962D01*
X146713962Y-124025271D01*
X146469369Y-124391331D01*
X146300890Y-124798075D01*
X146215000Y-125229872D01*
X141629124Y-125229872D01*
X141665666Y-125205456D01*
X141980456Y-124890666D01*
X142227786Y-124520511D01*
X142398149Y-124109218D01*
X142485000Y-123672591D01*
X142485000Y-123227409D01*
X142398149Y-122790782D01*
X142227786Y-122379489D01*
X141980456Y-122009334D01*
X141665666Y-121694544D01*
X141295511Y-121447214D01*
X140884218Y-121276851D01*
X140447591Y-121190000D01*
X140002409Y-121190000D01*
X139565782Y-121276851D01*
X139154489Y-121447214D01*
X138784334Y-121694544D01*
X138469544Y-122009334D01*
X138222214Y-122379489D01*
X138051851Y-122790782D01*
X137965000Y-123227409D01*
X122164855Y-123227409D01*
X122570003Y-122822262D01*
X122619028Y-122782028D01*
X122659262Y-122733003D01*
X122659267Y-122732998D01*
X122779608Y-122586362D01*
X122898928Y-122363128D01*
X122898929Y-122363127D01*
X122972407Y-122120904D01*
X122991000Y-121932123D01*
X122991000Y-121932116D01*
X122997216Y-121869000D01*
X122991000Y-121805884D01*
X122991000Y-121292849D01*
X123041000Y-121041486D01*
X123041000Y-120778514D01*
X122991000Y-120527151D01*
X122991000Y-120213116D01*
X122997216Y-120150000D01*
X122991000Y-120086884D01*
X122991000Y-120086878D01*
X122972407Y-119898097D01*
X122964806Y-119873038D01*
X122931231Y-119762359D01*
X122898929Y-119655873D01*
X122779608Y-119432638D01*
X122756539Y-119404528D01*
X122659267Y-119286002D01*
X122659262Y-119285997D01*
X122619028Y-119236972D01*
X122570002Y-119196737D01*
X121865349Y-118492085D01*
X121722962Y-118278987D01*
X121537013Y-118093038D01*
X121318359Y-117946939D01*
X121075405Y-117846304D01*
X120817486Y-117795000D01*
X120554514Y-117795000D01*
X120296595Y-117846304D01*
X120053641Y-117946939D01*
X119926560Y-118031851D01*
X119912407Y-117888147D01*
X119838929Y-117645924D01*
X119719608Y-117422689D01*
X119559028Y-117227023D01*
X119509997Y-117186784D01*
X118409220Y-116086008D01*
X118368977Y-116036972D01*
X118173311Y-115876392D01*
X118002328Y-115785000D01*
X124039184Y-115785000D01*
X129725614Y-121471432D01*
X129751760Y-121503291D01*
X129783619Y-121529437D01*
X129783621Y-121529439D01*
X129878905Y-121607636D01*
X130023964Y-121685172D01*
X130181362Y-121732918D01*
X130286163Y-121743240D01*
X130298038Y-121761013D01*
X130483987Y-121946962D01*
X130702641Y-122093061D01*
X130945595Y-122193696D01*
X131203514Y-122245000D01*
X131466486Y-122245000D01*
X131724405Y-122193696D01*
X131967359Y-122093061D01*
X132186013Y-121946962D01*
X132301706Y-121831269D01*
X132633336Y-121831269D01*
X132692797Y-122065037D01*
X132931242Y-122175934D01*
X133186740Y-122238183D01*
X133449473Y-122249390D01*
X133709344Y-122209125D01*
X133956366Y-122118935D01*
X134057203Y-122065037D01*
X134116664Y-121831269D01*
X133375000Y-121089605D01*
X132633336Y-121831269D01*
X132301706Y-121831269D01*
X132371962Y-121761013D01*
X132446291Y-121649771D01*
X132453731Y-121651664D01*
X133195395Y-120910000D01*
X133181253Y-120895858D01*
X133360858Y-120716253D01*
X133375000Y-120730395D01*
X133389143Y-120716253D01*
X133568748Y-120895858D01*
X133554605Y-120910000D01*
X134296269Y-121651664D01*
X134303709Y-121649771D01*
X134378038Y-121761013D01*
X134563987Y-121946962D01*
X134782641Y-122093061D01*
X135025595Y-122193696D01*
X135283514Y-122245000D01*
X135546486Y-122245000D01*
X135804405Y-122193696D01*
X136047359Y-122093061D01*
X136266013Y-121946962D01*
X136435000Y-121777975D01*
X136603987Y-121946962D01*
X136822641Y-122093061D01*
X137065595Y-122193696D01*
X137323514Y-122245000D01*
X137586486Y-122245000D01*
X137844405Y-122193696D01*
X138087359Y-122093061D01*
X138306013Y-121946962D01*
X138491962Y-121761013D01*
X138638061Y-121542359D01*
X138738696Y-121299405D01*
X138790000Y-121041486D01*
X138790000Y-120778514D01*
X138738696Y-120520595D01*
X138638061Y-120277641D01*
X138602888Y-120225000D01*
X143636928Y-120225000D01*
X143636928Y-121150000D01*
X143653992Y-121323254D01*
X143704528Y-121489850D01*
X143786595Y-121643386D01*
X143897038Y-121777962D01*
X144031614Y-121888405D01*
X144185150Y-121970472D01*
X144351746Y-122021008D01*
X144525000Y-122038072D01*
X145775000Y-122038072D01*
X145948254Y-122021008D01*
X146114850Y-121970472D01*
X146268386Y-121888405D01*
X146402962Y-121777962D01*
X146513405Y-121643386D01*
X146578020Y-121522500D01*
X147771980Y-121522500D01*
X147836595Y-121643386D01*
X147947038Y-121777962D01*
X148081614Y-121888405D01*
X148235150Y-121970472D01*
X148401746Y-122021008D01*
X148575000Y-122038072D01*
X149825000Y-122038072D01*
X149998254Y-122021008D01*
X150164850Y-121970472D01*
X150318386Y-121888405D01*
X150452962Y-121777962D01*
X150563405Y-121643386D01*
X150645472Y-121489850D01*
X150696008Y-121323254D01*
X150713072Y-121150000D01*
X150713072Y-120225000D01*
X150696008Y-120051746D01*
X150645472Y-119885150D01*
X150563405Y-119731614D01*
X150452962Y-119597038D01*
X150318386Y-119486595D01*
X150164850Y-119404528D01*
X149998254Y-119353992D01*
X149825000Y-119336928D01*
X148575000Y-119336928D01*
X148401746Y-119353992D01*
X148235150Y-119404528D01*
X148081614Y-119486595D01*
X147947038Y-119597038D01*
X147836595Y-119731614D01*
X147771980Y-119852500D01*
X146578020Y-119852500D01*
X146513405Y-119731614D01*
X146402962Y-119597038D01*
X146268386Y-119486595D01*
X146114850Y-119404528D01*
X145948254Y-119353992D01*
X145775000Y-119336928D01*
X144525000Y-119336928D01*
X144351746Y-119353992D01*
X144185150Y-119404528D01*
X144031614Y-119486595D01*
X143897038Y-119597038D01*
X143786595Y-119731614D01*
X143704528Y-119885150D01*
X143653992Y-120051746D01*
X143636928Y-120225000D01*
X138602888Y-120225000D01*
X138491962Y-120058987D01*
X138306013Y-119873038D01*
X138087359Y-119726939D01*
X137844405Y-119626304D01*
X137687357Y-119595065D01*
X137718696Y-119519405D01*
X137770000Y-119261486D01*
X137770000Y-118998514D01*
X137718696Y-118740595D01*
X137618061Y-118497641D01*
X137569525Y-118425000D01*
X143636928Y-118425000D01*
X143649188Y-118549482D01*
X143685498Y-118669180D01*
X143744463Y-118779494D01*
X143823815Y-118876185D01*
X143920506Y-118955537D01*
X144030820Y-119014502D01*
X144150518Y-119050812D01*
X144275000Y-119063072D01*
X144864250Y-119060000D01*
X145023000Y-118901250D01*
X145023000Y-117839500D01*
X145277000Y-117839500D01*
X145277000Y-118901250D01*
X145435750Y-119060000D01*
X146025000Y-119063072D01*
X146149482Y-119050812D01*
X146269180Y-119014502D01*
X146379494Y-118955537D01*
X146476185Y-118876185D01*
X146555537Y-118779494D01*
X146614502Y-118669180D01*
X146650812Y-118549482D01*
X146663072Y-118425000D01*
X146660000Y-117998250D01*
X146501250Y-117839500D01*
X145277000Y-117839500D01*
X145023000Y-117839500D01*
X143798750Y-117839500D01*
X143640000Y-117998250D01*
X143636928Y-118425000D01*
X137569525Y-118425000D01*
X137471962Y-118278987D01*
X137286013Y-118093038D01*
X137067359Y-117946939D01*
X136849266Y-117856602D01*
X137705868Y-117000000D01*
X143636928Y-117000000D01*
X143640000Y-117426750D01*
X143798750Y-117585500D01*
X145023000Y-117585500D01*
X145023000Y-116523750D01*
X145277000Y-116523750D01*
X145277000Y-117585500D01*
X146501250Y-117585500D01*
X146660000Y-117426750D01*
X146663072Y-117000000D01*
X146650812Y-116875518D01*
X146614502Y-116755820D01*
X146555537Y-116645506D01*
X146476185Y-116548815D01*
X146379494Y-116469463D01*
X146269180Y-116410498D01*
X146149482Y-116374188D01*
X146025000Y-116361928D01*
X145435750Y-116365000D01*
X145277000Y-116523750D01*
X145023000Y-116523750D01*
X144864250Y-116365000D01*
X144275000Y-116361928D01*
X144150518Y-116374188D01*
X144030820Y-116410498D01*
X143920506Y-116469463D01*
X143823815Y-116548815D01*
X143744463Y-116645506D01*
X143685498Y-116755820D01*
X143649188Y-116875518D01*
X143636928Y-117000000D01*
X137705868Y-117000000D01*
X139061433Y-115644436D01*
X139093291Y-115618291D01*
X139160473Y-115536430D01*
X139197636Y-115491146D01*
X139275172Y-115346087D01*
X139322918Y-115188688D01*
X139339040Y-115025000D01*
X139335000Y-114983982D01*
X139335000Y-112115867D01*
X142455569Y-115236437D01*
X142481719Y-115268301D01*
X142576502Y-115346087D01*
X142608864Y-115372646D01*
X142753923Y-115450182D01*
X142911321Y-115497928D01*
X143075009Y-115514050D01*
X143116028Y-115510010D01*
X146529143Y-115510010D01*
X147815400Y-116796267D01*
X147754528Y-116910150D01*
X147703992Y-117076746D01*
X147686928Y-117250000D01*
X147686928Y-118175000D01*
X147703992Y-118348254D01*
X147754528Y-118514850D01*
X147836595Y-118668386D01*
X147947038Y-118802962D01*
X148081614Y-118913405D01*
X148235150Y-118995472D01*
X148401746Y-119046008D01*
X148575000Y-119063072D01*
X149825000Y-119063072D01*
X149998254Y-119046008D01*
X150164850Y-118995472D01*
X150318386Y-118913405D01*
X150452962Y-118802962D01*
X150563405Y-118668386D01*
X150645472Y-118514850D01*
X150696008Y-118348254D01*
X150713072Y-118175000D01*
X150713072Y-117250000D01*
X150696008Y-117076746D01*
X150645472Y-116910150D01*
X150563405Y-116756614D01*
X150452962Y-116622038D01*
X150318386Y-116511595D01*
X150164850Y-116429528D01*
X149998254Y-116378992D01*
X149825000Y-116361928D01*
X149742796Y-116361928D01*
X148238388Y-114857521D01*
X148406812Y-114779025D01*
X148641795Y-114606802D01*
X148838664Y-114392046D01*
X148989854Y-114143009D01*
X149089554Y-113869261D01*
X149091476Y-113856890D01*
X148970155Y-113627000D01*
X147627000Y-113627000D01*
X147627000Y-113647000D01*
X147373000Y-113647000D01*
X147373000Y-113627000D01*
X146029845Y-113627000D01*
X145917432Y-113840010D01*
X143420878Y-113840010D01*
X139980868Y-110400000D01*
X145861928Y-110400000D01*
X145861928Y-111600000D01*
X145878992Y-111773254D01*
X145929528Y-111939850D01*
X146011595Y-112093386D01*
X146122038Y-112227962D01*
X146256614Y-112338405D01*
X146358593Y-112392914D01*
X146358205Y-112393198D01*
X146161336Y-112607954D01*
X146010146Y-112856991D01*
X145910446Y-113130739D01*
X145908524Y-113143110D01*
X146029845Y-113373000D01*
X147373000Y-113373000D01*
X147373000Y-113353000D01*
X147627000Y-113353000D01*
X147627000Y-113373000D01*
X148970155Y-113373000D01*
X149091476Y-113143110D01*
X149089554Y-113130739D01*
X148989854Y-112856991D01*
X148838664Y-112607954D01*
X148641795Y-112393198D01*
X148641407Y-112392914D01*
X148743386Y-112338405D01*
X148877962Y-112227962D01*
X148988405Y-112093386D01*
X149070472Y-111939850D01*
X149121008Y-111773254D01*
X149138072Y-111600000D01*
X149138072Y-110400000D01*
X149121008Y-110226746D01*
X149070472Y-110060150D01*
X148988405Y-109906614D01*
X148877962Y-109772038D01*
X148743386Y-109661595D01*
X148589850Y-109579528D01*
X148423254Y-109528992D01*
X148250000Y-109511928D01*
X146750000Y-109511928D01*
X146576746Y-109528992D01*
X146410150Y-109579528D01*
X146256614Y-109661595D01*
X146122038Y-109772038D01*
X146011595Y-109906614D01*
X145929528Y-110060150D01*
X145878992Y-110226746D01*
X145861928Y-110400000D01*
X139980868Y-110400000D01*
X139945757Y-110364890D01*
X139963405Y-110343386D01*
X140045472Y-110189850D01*
X140096008Y-110023254D01*
X140113072Y-109850000D01*
X140113072Y-108650000D01*
X140096008Y-108476746D01*
X140045472Y-108310150D01*
X139963405Y-108156614D01*
X139852962Y-108022038D01*
X139718386Y-107911595D01*
X139613039Y-107855286D01*
X139634429Y-107839049D01*
X139827496Y-107621193D01*
X139974352Y-107369858D01*
X140066476Y-107106890D01*
X139945155Y-106877000D01*
X138627000Y-106877000D01*
X138627000Y-106897000D01*
X138373000Y-106897000D01*
X138373000Y-106877000D01*
X137054845Y-106877000D01*
X136933524Y-107106890D01*
X137025648Y-107369858D01*
X137172504Y-107621193D01*
X137365571Y-107839049D01*
X137386961Y-107855286D01*
X137281614Y-107911595D01*
X137147038Y-108022038D01*
X137036595Y-108156614D01*
X136954528Y-108310150D01*
X136903992Y-108476746D01*
X136886928Y-108650000D01*
X136886928Y-109850000D01*
X136903992Y-110023254D01*
X136954528Y-110189850D01*
X137036595Y-110343386D01*
X137147038Y-110477962D01*
X137281614Y-110588405D01*
X137435150Y-110670472D01*
X137601746Y-110721008D01*
X137665001Y-110727238D01*
X137665000Y-114679131D01*
X134545375Y-117798757D01*
X134526486Y-117795000D01*
X134263514Y-117795000D01*
X134005595Y-117846304D01*
X133762641Y-117946939D01*
X133543987Y-118093038D01*
X133375000Y-118262025D01*
X133206013Y-118093038D01*
X133190000Y-118082339D01*
X133190000Y-117940867D01*
X135536432Y-115594437D01*
X135568291Y-115568291D01*
X135672636Y-115441146D01*
X135750172Y-115296087D01*
X135797918Y-115138689D01*
X135810000Y-115016019D01*
X135810000Y-115016018D01*
X135814040Y-114975000D01*
X135810000Y-114933982D01*
X135810000Y-109213285D01*
X135892205Y-109090256D01*
X135970226Y-108901898D01*
X136010000Y-108701939D01*
X136010000Y-108498061D01*
X135970226Y-108298102D01*
X135892205Y-108109744D01*
X135778937Y-107940226D01*
X135634774Y-107796063D01*
X135465256Y-107682795D01*
X135276898Y-107604774D01*
X135076939Y-107565000D01*
X134873061Y-107565000D01*
X134673102Y-107604774D01*
X134484744Y-107682795D01*
X134315226Y-107796063D01*
X134171063Y-107940226D01*
X134057795Y-108109744D01*
X133979774Y-108298102D01*
X133940000Y-108498061D01*
X133940000Y-108701939D01*
X133979774Y-108901898D01*
X134057795Y-109090256D01*
X134140000Y-109213285D01*
X134140001Y-114629130D01*
X131793579Y-116975554D01*
X131761709Y-117001709D01*
X131657365Y-117128854D01*
X131657364Y-117128855D01*
X131579828Y-117273914D01*
X131532082Y-117431312D01*
X131515960Y-117595000D01*
X131520000Y-117636019D01*
X131520000Y-118082338D01*
X131503987Y-118093038D01*
X131335000Y-118262025D01*
X131166013Y-118093038D01*
X131148240Y-118081163D01*
X131137918Y-117976362D01*
X131090172Y-117818964D01*
X131012636Y-117673905D01*
X131007265Y-117667361D01*
X130908291Y-117546760D01*
X130876427Y-117520610D01*
X126219395Y-112863579D01*
X126193240Y-112831709D01*
X126066095Y-112727364D01*
X125921036Y-112649828D01*
X125763638Y-112602082D01*
X125640968Y-112590000D01*
X125640967Y-112590000D01*
X125599949Y-112585960D01*
X125558931Y-112590000D01*
X110470869Y-112590000D01*
X109135000Y-111254133D01*
X109135000Y-110591018D01*
X109139040Y-110549999D01*
X109122918Y-110386311D01*
X109075172Y-110228913D01*
X108997636Y-110083854D01*
X108947903Y-110023254D01*
X108893291Y-109956709D01*
X108861426Y-109930559D01*
X107294446Y-108363579D01*
X107268291Y-108331709D01*
X107141146Y-108227364D01*
X106996087Y-108149828D01*
X106838689Y-108102082D01*
X106716019Y-108090000D01*
X106716018Y-108090000D01*
X106675000Y-108085960D01*
X106633982Y-108090000D01*
X104666007Y-108090000D01*
X104624999Y-108085961D01*
X104583991Y-108090000D01*
X104583981Y-108090000D01*
X104461311Y-108102082D01*
X104303913Y-108149828D01*
X104158854Y-108227364D01*
X104031709Y-108331709D01*
X104005558Y-108363574D01*
X102938579Y-109430554D01*
X102906709Y-109456709D01*
X102821818Y-109560150D01*
X102802364Y-109583855D01*
X102724828Y-109728914D01*
X102677082Y-109886312D01*
X102675031Y-109907132D01*
X102670987Y-109909294D01*
X102444866Y-110094866D01*
X102259294Y-110320986D01*
X102121401Y-110578966D01*
X102036487Y-110858889D01*
X102015000Y-111077050D01*
X100660000Y-111077050D01*
X100660000Y-103329872D01*
X101315000Y-103329872D01*
X101315000Y-103770128D01*
X101400890Y-104201925D01*
X101569369Y-104608669D01*
X101813962Y-104974729D01*
X102125271Y-105286038D01*
X102491331Y-105530631D01*
X102898075Y-105699110D01*
X103329872Y-105785000D01*
X103770128Y-105785000D01*
X104201925Y-105699110D01*
X104608669Y-105530631D01*
X104974729Y-105286038D01*
X105286038Y-104974729D01*
X105530631Y-104608669D01*
X105699110Y-104201925D01*
X105785000Y-103770128D01*
X105785000Y-103329872D01*
X105719385Y-103000000D01*
X110882815Y-103000000D01*
X110911487Y-103291111D01*
X110996401Y-103571034D01*
X111134294Y-103829014D01*
X111319866Y-104055134D01*
X111545986Y-104240706D01*
X111563374Y-104250000D01*
X111545986Y-104259294D01*
X111319866Y-104444866D01*
X111134294Y-104670986D01*
X110996401Y-104928966D01*
X110911487Y-105208889D01*
X110882815Y-105500000D01*
X110911487Y-105791111D01*
X110996401Y-106071034D01*
X111134294Y-106329014D01*
X111319866Y-106555134D01*
X111545986Y-106740706D01*
X111563374Y-106750000D01*
X111545986Y-106759294D01*
X111319866Y-106944866D01*
X111134294Y-107170986D01*
X110996401Y-107428966D01*
X110911487Y-107708889D01*
X110882815Y-108000000D01*
X110911487Y-108291111D01*
X110996401Y-108571034D01*
X111134294Y-108829014D01*
X111319866Y-109055134D01*
X111383337Y-109107223D01*
X111281614Y-109161595D01*
X111147038Y-109272038D01*
X111036595Y-109406614D01*
X110954528Y-109560150D01*
X110903992Y-109726746D01*
X110886928Y-109900000D01*
X110886928Y-111100000D01*
X110903992Y-111273254D01*
X110954528Y-111439850D01*
X111036595Y-111593386D01*
X111147038Y-111727962D01*
X111281614Y-111838405D01*
X111435150Y-111920472D01*
X111601746Y-111971008D01*
X111775000Y-111988072D01*
X113225000Y-111988072D01*
X113398254Y-111971008D01*
X113564850Y-111920472D01*
X113718386Y-111838405D01*
X113852962Y-111727962D01*
X113963405Y-111593386D01*
X114045472Y-111439850D01*
X114077278Y-111335000D01*
X115536715Y-111335000D01*
X115659744Y-111417205D01*
X115848102Y-111495226D01*
X116048061Y-111535000D01*
X116251939Y-111535000D01*
X116451898Y-111495226D01*
X116640256Y-111417205D01*
X116809774Y-111303937D01*
X116953937Y-111159774D01*
X117067205Y-110990256D01*
X117145226Y-110801898D01*
X117185000Y-110601939D01*
X117185000Y-110398061D01*
X117145226Y-110198102D01*
X117067205Y-110009744D01*
X116953937Y-109840226D01*
X116809774Y-109696063D01*
X116640256Y-109582795D01*
X116451898Y-109504774D01*
X116251939Y-109465000D01*
X116048061Y-109465000D01*
X115848102Y-109504774D01*
X115659744Y-109582795D01*
X115536715Y-109665000D01*
X114077278Y-109665000D01*
X114045472Y-109560150D01*
X113963405Y-109406614D01*
X113852962Y-109272038D01*
X113718386Y-109161595D01*
X113616663Y-109107223D01*
X113680134Y-109055134D01*
X113865706Y-108829014D01*
X113961390Y-108650000D01*
X119386928Y-108650000D01*
X119386928Y-109850000D01*
X119403992Y-110023254D01*
X119454528Y-110189850D01*
X119536595Y-110343386D01*
X119647038Y-110477962D01*
X119781614Y-110588405D01*
X119935150Y-110670472D01*
X120101746Y-110721008D01*
X120275000Y-110738072D01*
X121725000Y-110738072D01*
X121898254Y-110721008D01*
X122064850Y-110670472D01*
X122218386Y-110588405D01*
X122352962Y-110477962D01*
X122463405Y-110343386D01*
X122545472Y-110189850D01*
X122577278Y-110085000D01*
X127422722Y-110085000D01*
X127454528Y-110189850D01*
X127536595Y-110343386D01*
X127647038Y-110477962D01*
X127781614Y-110588405D01*
X127935150Y-110670472D01*
X128101746Y-110721008D01*
X128275000Y-110738072D01*
X129725000Y-110738072D01*
X129898254Y-110721008D01*
X130064850Y-110670472D01*
X130218386Y-110588405D01*
X130352962Y-110477962D01*
X130463405Y-110343386D01*
X130545472Y-110189850D01*
X130596008Y-110023254D01*
X130613072Y-109850000D01*
X130613072Y-108650000D01*
X130596008Y-108476746D01*
X130545472Y-108310150D01*
X130463405Y-108156614D01*
X130352962Y-108022038D01*
X130218386Y-107911595D01*
X130113039Y-107855286D01*
X130134429Y-107839049D01*
X130327496Y-107621193D01*
X130474352Y-107369858D01*
X130566476Y-107106890D01*
X130445155Y-106877000D01*
X129127000Y-106877000D01*
X129127000Y-106897000D01*
X128873000Y-106897000D01*
X128873000Y-106877000D01*
X127554845Y-106877000D01*
X127433524Y-107106890D01*
X127525648Y-107369858D01*
X127672504Y-107621193D01*
X127865571Y-107839049D01*
X127886961Y-107855286D01*
X127781614Y-107911595D01*
X127647038Y-108022038D01*
X127536595Y-108156614D01*
X127454528Y-108310150D01*
X127422722Y-108415000D01*
X122577278Y-108415000D01*
X122545472Y-108310150D01*
X122463405Y-108156614D01*
X122352962Y-108022038D01*
X122218386Y-107911595D01*
X122113039Y-107855286D01*
X122134429Y-107839049D01*
X122327496Y-107621193D01*
X122474352Y-107369858D01*
X122566476Y-107106890D01*
X122445155Y-106877000D01*
X121127000Y-106877000D01*
X121127000Y-106897000D01*
X120873000Y-106897000D01*
X120873000Y-106877000D01*
X119554845Y-106877000D01*
X119433524Y-107106890D01*
X119525648Y-107369858D01*
X119672504Y-107621193D01*
X119865571Y-107839049D01*
X119886961Y-107855286D01*
X119781614Y-107911595D01*
X119647038Y-108022038D01*
X119536595Y-108156614D01*
X119454528Y-108310150D01*
X119403992Y-108476746D01*
X119386928Y-108650000D01*
X113961390Y-108650000D01*
X114003599Y-108571034D01*
X114088513Y-108291111D01*
X114117185Y-108000000D01*
X114088513Y-107708889D01*
X114003599Y-107428966D01*
X113865706Y-107170986D01*
X113680134Y-106944866D01*
X113454014Y-106759294D01*
X113436626Y-106750000D01*
X113454014Y-106740706D01*
X113680134Y-106555134D01*
X113865706Y-106329014D01*
X114003599Y-106071034D01*
X114088513Y-105791111D01*
X114117185Y-105500000D01*
X114088513Y-105208889D01*
X114003599Y-104928966D01*
X113865706Y-104670986D01*
X113680134Y-104444866D01*
X113454014Y-104259294D01*
X113436626Y-104250000D01*
X119382815Y-104250000D01*
X119411487Y-104541111D01*
X119496401Y-104821034D01*
X119634294Y-105079014D01*
X119819866Y-105305134D01*
X120045986Y-105490706D01*
X120071722Y-105504462D01*
X119865571Y-105660951D01*
X119672504Y-105878807D01*
X119525648Y-106130142D01*
X119433524Y-106393110D01*
X119554845Y-106623000D01*
X120873000Y-106623000D01*
X120873000Y-106603000D01*
X121127000Y-106603000D01*
X121127000Y-106623000D01*
X122445155Y-106623000D01*
X122566476Y-106393110D01*
X122474352Y-106130142D01*
X122327496Y-105878807D01*
X122134429Y-105660951D01*
X121928278Y-105504462D01*
X121954014Y-105490706D01*
X122180134Y-105305134D01*
X122360793Y-105085000D01*
X127639207Y-105085000D01*
X127819866Y-105305134D01*
X128045986Y-105490706D01*
X128071722Y-105504462D01*
X127865571Y-105660951D01*
X127672504Y-105878807D01*
X127525648Y-106130142D01*
X127433524Y-106393110D01*
X127554845Y-106623000D01*
X128873000Y-106623000D01*
X128873000Y-106603000D01*
X129127000Y-106603000D01*
X129127000Y-106623000D01*
X130445155Y-106623000D01*
X130566476Y-106393110D01*
X130474352Y-106130142D01*
X130327496Y-105878807D01*
X130134429Y-105660951D01*
X129928278Y-105504462D01*
X129954014Y-105490706D01*
X130180134Y-105305134D01*
X130365706Y-105079014D01*
X130503599Y-104821034D01*
X130588513Y-104541111D01*
X130617185Y-104250000D01*
X136882815Y-104250000D01*
X136911487Y-104541111D01*
X136996401Y-104821034D01*
X137134294Y-105079014D01*
X137319866Y-105305134D01*
X137545986Y-105490706D01*
X137571722Y-105504462D01*
X137365571Y-105660951D01*
X137172504Y-105878807D01*
X137025648Y-106130142D01*
X136933524Y-106393110D01*
X137054845Y-106623000D01*
X138373000Y-106623000D01*
X138373000Y-106603000D01*
X138627000Y-106603000D01*
X138627000Y-106623000D01*
X139945155Y-106623000D01*
X140066476Y-106393110D01*
X139974352Y-106130142D01*
X139827496Y-105878807D01*
X139634429Y-105660951D01*
X139428278Y-105504462D01*
X139454014Y-105490706D01*
X139680134Y-105305134D01*
X139865706Y-105079014D01*
X140003599Y-104821034D01*
X140088513Y-104541111D01*
X140117185Y-104250000D01*
X140088513Y-103958889D01*
X140003599Y-103678966D01*
X139865706Y-103420986D01*
X139790931Y-103329872D01*
X146215000Y-103329872D01*
X146215000Y-103770128D01*
X146300890Y-104201925D01*
X146469369Y-104608669D01*
X146713962Y-104974729D01*
X147025271Y-105286038D01*
X147391331Y-105530631D01*
X147798075Y-105699110D01*
X148229872Y-105785000D01*
X148670128Y-105785000D01*
X149101925Y-105699110D01*
X149508669Y-105530631D01*
X149874729Y-105286038D01*
X150186038Y-104974729D01*
X150430631Y-104608669D01*
X150599110Y-104201925D01*
X150685000Y-103770128D01*
X150685000Y-103329872D01*
X150599110Y-102898075D01*
X150430631Y-102491331D01*
X150186038Y-102125271D01*
X149874729Y-101813962D01*
X149508669Y-101569369D01*
X149101925Y-101400890D01*
X148670128Y-101315000D01*
X148229872Y-101315000D01*
X147798075Y-101400890D01*
X147391331Y-101569369D01*
X147025271Y-101813962D01*
X146713962Y-102125271D01*
X146469369Y-102491331D01*
X146300890Y-102898075D01*
X146215000Y-103329872D01*
X139790931Y-103329872D01*
X139680134Y-103194866D01*
X139454014Y-103009294D01*
X139196034Y-102871401D01*
X138916111Y-102786487D01*
X138697950Y-102765000D01*
X138302050Y-102765000D01*
X138083889Y-102786487D01*
X137803966Y-102871401D01*
X137545986Y-103009294D01*
X137319866Y-103194866D01*
X137134294Y-103420986D01*
X136996401Y-103678966D01*
X136911487Y-103958889D01*
X136882815Y-104250000D01*
X130617185Y-104250000D01*
X130588513Y-103958889D01*
X130503599Y-103678966D01*
X130365706Y-103420986D01*
X130180134Y-103194866D01*
X129954014Y-103009294D01*
X129696034Y-102871401D01*
X129416111Y-102786487D01*
X129197950Y-102765000D01*
X128802050Y-102765000D01*
X128583889Y-102786487D01*
X128303966Y-102871401D01*
X128045986Y-103009294D01*
X127819866Y-103194866D01*
X127639207Y-103415000D01*
X122360793Y-103415000D01*
X122180134Y-103194866D01*
X121954014Y-103009294D01*
X121696034Y-102871401D01*
X121416111Y-102786487D01*
X121197950Y-102765000D01*
X120802050Y-102765000D01*
X120583889Y-102786487D01*
X120303966Y-102871401D01*
X120045986Y-103009294D01*
X119819866Y-103194866D01*
X119634294Y-103420986D01*
X119496401Y-103678966D01*
X119411487Y-103958889D01*
X119382815Y-104250000D01*
X113436626Y-104250000D01*
X113454014Y-104240706D01*
X113680134Y-104055134D01*
X113865706Y-103829014D01*
X114003599Y-103571034D01*
X114088513Y-103291111D01*
X114117185Y-103000000D01*
X114088513Y-102708889D01*
X114003599Y-102428966D01*
X113865706Y-102170986D01*
X113680134Y-101944866D01*
X113454014Y-101759294D01*
X113196034Y-101621401D01*
X112916111Y-101536487D01*
X112697950Y-101515000D01*
X112302050Y-101515000D01*
X112083889Y-101536487D01*
X111803966Y-101621401D01*
X111545986Y-101759294D01*
X111319866Y-101944866D01*
X111134294Y-102170986D01*
X110996401Y-102428966D01*
X110911487Y-102708889D01*
X110882815Y-103000000D01*
X105719385Y-103000000D01*
X105699110Y-102898075D01*
X105530631Y-102491331D01*
X105286038Y-102125271D01*
X104974729Y-101813962D01*
X104608669Y-101569369D01*
X104201925Y-101400890D01*
X103770128Y-101315000D01*
X103329872Y-101315000D01*
X102898075Y-101400890D01*
X102491331Y-101569369D01*
X102125271Y-101813962D01*
X101813962Y-102125271D01*
X101569369Y-102491331D01*
X101400890Y-102898075D01*
X101315000Y-103329872D01*
X100660000Y-103329872D01*
X100660000Y-100660000D01*
X151340000Y-100660000D01*
X151340001Y-128340000D01*
M02*
