G04 #@! TF.GenerationSoftware,KiCad,Pcbnew,(5.1.5)-3*
G04 #@! TF.CreationDate,2020-06-22T20:56:45+02:00*
G04 #@! TF.ProjectId,PCB Interface imprimante 3d,50434220-496e-4746-9572-666163652069,rev?*
G04 #@! TF.SameCoordinates,Original*
G04 #@! TF.FileFunction,Copper,L2,Bot*
G04 #@! TF.FilePolarity,Positive*
%FSLAX46Y46*%
G04 Gerber Fmt 4.6, Leading zero omitted, Abs format (unit mm)*
G04 Created by KiCad (PCBNEW (5.1.5)-3) date 2020-06-22 20:56:45*
%MOMM*%
%LPD*%
G04 APERTURE LIST*
%ADD10C,1.400000*%
%ADD11O,1.950000X1.700000*%
%ADD12C,0.100000*%
%ADD13O,1.700000X2.000000*%
%ADD14O,2.000000X1.700000*%
%ADD15C,0.800000*%
%ADD16C,0.400000*%
%ADD17C,0.254000*%
G04 APERTURE END LIST*
D10*
X114565000Y-119130000D03*
X130315000Y-119130000D03*
X115585000Y-120910000D03*
X131335000Y-120910000D03*
X116605000Y-119130000D03*
X132355000Y-119130000D03*
X117626000Y-120910000D03*
X133375000Y-120910000D03*
X118646000Y-119130000D03*
X134395000Y-119130000D03*
X119666000Y-120910000D03*
X135415000Y-120910000D03*
X136435000Y-119130000D03*
X120686000Y-119130000D03*
X121706000Y-120910000D03*
X137455000Y-120910000D03*
D11*
X121000000Y-104250000D03*
X121000000Y-106750000D03*
G04 #@! TA.AperFunction,ComponentPad*
D12*
G36*
X121749504Y-108401204D02*
G01*
X121773773Y-108404804D01*
X121797571Y-108410765D01*
X121820671Y-108419030D01*
X121842849Y-108429520D01*
X121863893Y-108442133D01*
X121883598Y-108456747D01*
X121901777Y-108473223D01*
X121918253Y-108491402D01*
X121932867Y-108511107D01*
X121945480Y-108532151D01*
X121955970Y-108554329D01*
X121964235Y-108577429D01*
X121970196Y-108601227D01*
X121973796Y-108625496D01*
X121975000Y-108650000D01*
X121975000Y-109850000D01*
X121973796Y-109874504D01*
X121970196Y-109898773D01*
X121964235Y-109922571D01*
X121955970Y-109945671D01*
X121945480Y-109967849D01*
X121932867Y-109988893D01*
X121918253Y-110008598D01*
X121901777Y-110026777D01*
X121883598Y-110043253D01*
X121863893Y-110057867D01*
X121842849Y-110070480D01*
X121820671Y-110080970D01*
X121797571Y-110089235D01*
X121773773Y-110095196D01*
X121749504Y-110098796D01*
X121725000Y-110100000D01*
X120275000Y-110100000D01*
X120250496Y-110098796D01*
X120226227Y-110095196D01*
X120202429Y-110089235D01*
X120179329Y-110080970D01*
X120157151Y-110070480D01*
X120136107Y-110057867D01*
X120116402Y-110043253D01*
X120098223Y-110026777D01*
X120081747Y-110008598D01*
X120067133Y-109988893D01*
X120054520Y-109967849D01*
X120044030Y-109945671D01*
X120035765Y-109922571D01*
X120029804Y-109898773D01*
X120026204Y-109874504D01*
X120025000Y-109850000D01*
X120025000Y-108650000D01*
X120026204Y-108625496D01*
X120029804Y-108601227D01*
X120035765Y-108577429D01*
X120044030Y-108554329D01*
X120054520Y-108532151D01*
X120067133Y-108511107D01*
X120081747Y-108491402D01*
X120098223Y-108473223D01*
X120116402Y-108456747D01*
X120136107Y-108442133D01*
X120157151Y-108429520D01*
X120179329Y-108419030D01*
X120202429Y-108410765D01*
X120226227Y-108404804D01*
X120250496Y-108401204D01*
X120275000Y-108400000D01*
X121725000Y-108400000D01*
X121749504Y-108401204D01*
G37*
G04 #@! TD.AperFunction*
D11*
X129000000Y-104250000D03*
X129000000Y-106750000D03*
G04 #@! TA.AperFunction,ComponentPad*
D12*
G36*
X129749504Y-108401204D02*
G01*
X129773773Y-108404804D01*
X129797571Y-108410765D01*
X129820671Y-108419030D01*
X129842849Y-108429520D01*
X129863893Y-108442133D01*
X129883598Y-108456747D01*
X129901777Y-108473223D01*
X129918253Y-108491402D01*
X129932867Y-108511107D01*
X129945480Y-108532151D01*
X129955970Y-108554329D01*
X129964235Y-108577429D01*
X129970196Y-108601227D01*
X129973796Y-108625496D01*
X129975000Y-108650000D01*
X129975000Y-109850000D01*
X129973796Y-109874504D01*
X129970196Y-109898773D01*
X129964235Y-109922571D01*
X129955970Y-109945671D01*
X129945480Y-109967849D01*
X129932867Y-109988893D01*
X129918253Y-110008598D01*
X129901777Y-110026777D01*
X129883598Y-110043253D01*
X129863893Y-110057867D01*
X129842849Y-110070480D01*
X129820671Y-110080970D01*
X129797571Y-110089235D01*
X129773773Y-110095196D01*
X129749504Y-110098796D01*
X129725000Y-110100000D01*
X128275000Y-110100000D01*
X128250496Y-110098796D01*
X128226227Y-110095196D01*
X128202429Y-110089235D01*
X128179329Y-110080970D01*
X128157151Y-110070480D01*
X128136107Y-110057867D01*
X128116402Y-110043253D01*
X128098223Y-110026777D01*
X128081747Y-110008598D01*
X128067133Y-109988893D01*
X128054520Y-109967849D01*
X128044030Y-109945671D01*
X128035765Y-109922571D01*
X128029804Y-109898773D01*
X128026204Y-109874504D01*
X128025000Y-109850000D01*
X128025000Y-108650000D01*
X128026204Y-108625496D01*
X128029804Y-108601227D01*
X128035765Y-108577429D01*
X128044030Y-108554329D01*
X128054520Y-108532151D01*
X128067133Y-108511107D01*
X128081747Y-108491402D01*
X128098223Y-108473223D01*
X128116402Y-108456747D01*
X128136107Y-108442133D01*
X128157151Y-108429520D01*
X128179329Y-108419030D01*
X128202429Y-108410765D01*
X128226227Y-108404804D01*
X128250496Y-108401204D01*
X128275000Y-108400000D01*
X129725000Y-108400000D01*
X129749504Y-108401204D01*
G37*
G04 #@! TD.AperFunction*
D13*
X103500000Y-111300000D03*
G04 #@! TA.AperFunction,ComponentPad*
D12*
G36*
X106624504Y-110301204D02*
G01*
X106648773Y-110304804D01*
X106672571Y-110310765D01*
X106695671Y-110319030D01*
X106717849Y-110329520D01*
X106738893Y-110342133D01*
X106758598Y-110356747D01*
X106776777Y-110373223D01*
X106793253Y-110391402D01*
X106807867Y-110411107D01*
X106820480Y-110432151D01*
X106830970Y-110454329D01*
X106839235Y-110477429D01*
X106845196Y-110501227D01*
X106848796Y-110525496D01*
X106850000Y-110550000D01*
X106850000Y-112050000D01*
X106848796Y-112074504D01*
X106845196Y-112098773D01*
X106839235Y-112122571D01*
X106830970Y-112145671D01*
X106820480Y-112167849D01*
X106807867Y-112188893D01*
X106793253Y-112208598D01*
X106776777Y-112226777D01*
X106758598Y-112243253D01*
X106738893Y-112257867D01*
X106717849Y-112270480D01*
X106695671Y-112280970D01*
X106672571Y-112289235D01*
X106648773Y-112295196D01*
X106624504Y-112298796D01*
X106600000Y-112300000D01*
X105400000Y-112300000D01*
X105375496Y-112298796D01*
X105351227Y-112295196D01*
X105327429Y-112289235D01*
X105304329Y-112280970D01*
X105282151Y-112270480D01*
X105261107Y-112257867D01*
X105241402Y-112243253D01*
X105223223Y-112226777D01*
X105206747Y-112208598D01*
X105192133Y-112188893D01*
X105179520Y-112167849D01*
X105169030Y-112145671D01*
X105160765Y-112122571D01*
X105154804Y-112098773D01*
X105151204Y-112074504D01*
X105150000Y-112050000D01*
X105150000Y-110550000D01*
X105151204Y-110525496D01*
X105154804Y-110501227D01*
X105160765Y-110477429D01*
X105169030Y-110454329D01*
X105179520Y-110432151D01*
X105192133Y-110411107D01*
X105206747Y-110391402D01*
X105223223Y-110373223D01*
X105241402Y-110356747D01*
X105261107Y-110342133D01*
X105282151Y-110329520D01*
X105304329Y-110319030D01*
X105327429Y-110310765D01*
X105351227Y-110304804D01*
X105375496Y-110301204D01*
X105400000Y-110300000D01*
X106600000Y-110300000D01*
X106624504Y-110301204D01*
G37*
G04 #@! TD.AperFunction*
D11*
X138500000Y-104250000D03*
X138500000Y-106750000D03*
G04 #@! TA.AperFunction,ComponentPad*
D12*
G36*
X139249504Y-108401204D02*
G01*
X139273773Y-108404804D01*
X139297571Y-108410765D01*
X139320671Y-108419030D01*
X139342849Y-108429520D01*
X139363893Y-108442133D01*
X139383598Y-108456747D01*
X139401777Y-108473223D01*
X139418253Y-108491402D01*
X139432867Y-108511107D01*
X139445480Y-108532151D01*
X139455970Y-108554329D01*
X139464235Y-108577429D01*
X139470196Y-108601227D01*
X139473796Y-108625496D01*
X139475000Y-108650000D01*
X139475000Y-109850000D01*
X139473796Y-109874504D01*
X139470196Y-109898773D01*
X139464235Y-109922571D01*
X139455970Y-109945671D01*
X139445480Y-109967849D01*
X139432867Y-109988893D01*
X139418253Y-110008598D01*
X139401777Y-110026777D01*
X139383598Y-110043253D01*
X139363893Y-110057867D01*
X139342849Y-110070480D01*
X139320671Y-110080970D01*
X139297571Y-110089235D01*
X139273773Y-110095196D01*
X139249504Y-110098796D01*
X139225000Y-110100000D01*
X137775000Y-110100000D01*
X137750496Y-110098796D01*
X137726227Y-110095196D01*
X137702429Y-110089235D01*
X137679329Y-110080970D01*
X137657151Y-110070480D01*
X137636107Y-110057867D01*
X137616402Y-110043253D01*
X137598223Y-110026777D01*
X137581747Y-110008598D01*
X137567133Y-109988893D01*
X137554520Y-109967849D01*
X137544030Y-109945671D01*
X137535765Y-109922571D01*
X137529804Y-109898773D01*
X137526204Y-109874504D01*
X137525000Y-109850000D01*
X137525000Y-108650000D01*
X137526204Y-108625496D01*
X137529804Y-108601227D01*
X137535765Y-108577429D01*
X137544030Y-108554329D01*
X137554520Y-108532151D01*
X137567133Y-108511107D01*
X137581747Y-108491402D01*
X137598223Y-108473223D01*
X137616402Y-108456747D01*
X137636107Y-108442133D01*
X137657151Y-108429520D01*
X137679329Y-108419030D01*
X137702429Y-108410765D01*
X137726227Y-108404804D01*
X137750496Y-108401204D01*
X137775000Y-108400000D01*
X139225000Y-108400000D01*
X139249504Y-108401204D01*
G37*
G04 #@! TD.AperFunction*
D11*
X112500000Y-103000000D03*
X112500000Y-105500000D03*
X112500000Y-108000000D03*
G04 #@! TA.AperFunction,ComponentPad*
D12*
G36*
X113249504Y-109651204D02*
G01*
X113273773Y-109654804D01*
X113297571Y-109660765D01*
X113320671Y-109669030D01*
X113342849Y-109679520D01*
X113363893Y-109692133D01*
X113383598Y-109706747D01*
X113401777Y-109723223D01*
X113418253Y-109741402D01*
X113432867Y-109761107D01*
X113445480Y-109782151D01*
X113455970Y-109804329D01*
X113464235Y-109827429D01*
X113470196Y-109851227D01*
X113473796Y-109875496D01*
X113475000Y-109900000D01*
X113475000Y-111100000D01*
X113473796Y-111124504D01*
X113470196Y-111148773D01*
X113464235Y-111172571D01*
X113455970Y-111195671D01*
X113445480Y-111217849D01*
X113432867Y-111238893D01*
X113418253Y-111258598D01*
X113401777Y-111276777D01*
X113383598Y-111293253D01*
X113363893Y-111307867D01*
X113342849Y-111320480D01*
X113320671Y-111330970D01*
X113297571Y-111339235D01*
X113273773Y-111345196D01*
X113249504Y-111348796D01*
X113225000Y-111350000D01*
X111775000Y-111350000D01*
X111750496Y-111348796D01*
X111726227Y-111345196D01*
X111702429Y-111339235D01*
X111679329Y-111330970D01*
X111657151Y-111320480D01*
X111636107Y-111307867D01*
X111616402Y-111293253D01*
X111598223Y-111276777D01*
X111581747Y-111258598D01*
X111567133Y-111238893D01*
X111554520Y-111217849D01*
X111544030Y-111195671D01*
X111535765Y-111172571D01*
X111529804Y-111148773D01*
X111526204Y-111124504D01*
X111525000Y-111100000D01*
X111525000Y-109900000D01*
X111526204Y-109875496D01*
X111529804Y-109851227D01*
X111535765Y-109827429D01*
X111544030Y-109804329D01*
X111554520Y-109782151D01*
X111567133Y-109761107D01*
X111581747Y-109741402D01*
X111598223Y-109723223D01*
X111616402Y-109706747D01*
X111636107Y-109692133D01*
X111657151Y-109679520D01*
X111679329Y-109669030D01*
X111702429Y-109660765D01*
X111726227Y-109654804D01*
X111750496Y-109651204D01*
X111775000Y-109650000D01*
X113225000Y-109650000D01*
X113249504Y-109651204D01*
G37*
G04 #@! TD.AperFunction*
D14*
X147500000Y-113500000D03*
G04 #@! TA.AperFunction,ComponentPad*
D12*
G36*
X148274504Y-110151204D02*
G01*
X148298773Y-110154804D01*
X148322571Y-110160765D01*
X148345671Y-110169030D01*
X148367849Y-110179520D01*
X148388893Y-110192133D01*
X148408598Y-110206747D01*
X148426777Y-110223223D01*
X148443253Y-110241402D01*
X148457867Y-110261107D01*
X148470480Y-110282151D01*
X148480970Y-110304329D01*
X148489235Y-110327429D01*
X148495196Y-110351227D01*
X148498796Y-110375496D01*
X148500000Y-110400000D01*
X148500000Y-111600000D01*
X148498796Y-111624504D01*
X148495196Y-111648773D01*
X148489235Y-111672571D01*
X148480970Y-111695671D01*
X148470480Y-111717849D01*
X148457867Y-111738893D01*
X148443253Y-111758598D01*
X148426777Y-111776777D01*
X148408598Y-111793253D01*
X148388893Y-111807867D01*
X148367849Y-111820480D01*
X148345671Y-111830970D01*
X148322571Y-111839235D01*
X148298773Y-111845196D01*
X148274504Y-111848796D01*
X148250000Y-111850000D01*
X146750000Y-111850000D01*
X146725496Y-111848796D01*
X146701227Y-111845196D01*
X146677429Y-111839235D01*
X146654329Y-111830970D01*
X146632151Y-111820480D01*
X146611107Y-111807867D01*
X146591402Y-111793253D01*
X146573223Y-111776777D01*
X146556747Y-111758598D01*
X146542133Y-111738893D01*
X146529520Y-111717849D01*
X146519030Y-111695671D01*
X146510765Y-111672571D01*
X146504804Y-111648773D01*
X146501204Y-111624504D01*
X146500000Y-111600000D01*
X146500000Y-110400000D01*
X146501204Y-110375496D01*
X146504804Y-110351227D01*
X146510765Y-110327429D01*
X146519030Y-110304329D01*
X146529520Y-110282151D01*
X146542133Y-110261107D01*
X146556747Y-110241402D01*
X146573223Y-110223223D01*
X146591402Y-110206747D01*
X146611107Y-110192133D01*
X146632151Y-110179520D01*
X146654329Y-110169030D01*
X146677429Y-110160765D01*
X146701227Y-110154804D01*
X146725496Y-110151204D01*
X146750000Y-110150000D01*
X148250000Y-110150000D01*
X148274504Y-110151204D01*
G37*
G04 #@! TD.AperFunction*
G04 #@! TA.AperFunction,ComponentPad*
G36*
X106624504Y-118101204D02*
G01*
X106648773Y-118104804D01*
X106672571Y-118110765D01*
X106695671Y-118119030D01*
X106717849Y-118129520D01*
X106738893Y-118142133D01*
X106758598Y-118156747D01*
X106776777Y-118173223D01*
X106793253Y-118191402D01*
X106807867Y-118211107D01*
X106820480Y-118232151D01*
X106830970Y-118254329D01*
X106839235Y-118277429D01*
X106845196Y-118301227D01*
X106848796Y-118325496D01*
X106850000Y-118350000D01*
X106850000Y-119850000D01*
X106848796Y-119874504D01*
X106845196Y-119898773D01*
X106839235Y-119922571D01*
X106830970Y-119945671D01*
X106820480Y-119967849D01*
X106807867Y-119988893D01*
X106793253Y-120008598D01*
X106776777Y-120026777D01*
X106758598Y-120043253D01*
X106738893Y-120057867D01*
X106717849Y-120070480D01*
X106695671Y-120080970D01*
X106672571Y-120089235D01*
X106648773Y-120095196D01*
X106624504Y-120098796D01*
X106600000Y-120100000D01*
X105400000Y-120100000D01*
X105375496Y-120098796D01*
X105351227Y-120095196D01*
X105327429Y-120089235D01*
X105304329Y-120080970D01*
X105282151Y-120070480D01*
X105261107Y-120057867D01*
X105241402Y-120043253D01*
X105223223Y-120026777D01*
X105206747Y-120008598D01*
X105192133Y-119988893D01*
X105179520Y-119967849D01*
X105169030Y-119945671D01*
X105160765Y-119922571D01*
X105154804Y-119898773D01*
X105151204Y-119874504D01*
X105150000Y-119850000D01*
X105150000Y-118350000D01*
X105151204Y-118325496D01*
X105154804Y-118301227D01*
X105160765Y-118277429D01*
X105169030Y-118254329D01*
X105179520Y-118232151D01*
X105192133Y-118211107D01*
X105206747Y-118191402D01*
X105223223Y-118173223D01*
X105241402Y-118156747D01*
X105261107Y-118142133D01*
X105282151Y-118129520D01*
X105304329Y-118119030D01*
X105327429Y-118110765D01*
X105351227Y-118104804D01*
X105375496Y-118101204D01*
X105400000Y-118100000D01*
X106600000Y-118100000D01*
X106624504Y-118101204D01*
G37*
G04 #@! TD.AperFunction*
D13*
X103500000Y-119100000D03*
D15*
X116150000Y-110500000D03*
X134975000Y-108600000D03*
D16*
X138154999Y-120210001D02*
X138164999Y-120210001D01*
X137455000Y-120910000D02*
X138154999Y-120210001D01*
X138164999Y-120210001D02*
X142650000Y-115725000D01*
X146500000Y-111000000D02*
X147500000Y-111000000D01*
X142650000Y-114850000D02*
X146500000Y-111000000D01*
X142650000Y-115725000D02*
X142650000Y-114850000D01*
X114595051Y-120910000D02*
X113025000Y-119339949D01*
X115585000Y-120910000D02*
X114595051Y-120910000D01*
X113025000Y-119339949D02*
X113025000Y-117300000D01*
X113025000Y-117300000D02*
X109600000Y-113875000D01*
X109600000Y-102375000D02*
X110625000Y-101350000D01*
X109600000Y-113875000D02*
X109600000Y-102375000D01*
X112900000Y-101350000D02*
X114000000Y-101350000D01*
X112900000Y-101350000D02*
X113900000Y-101350000D01*
X110625000Y-101350000D02*
X112900000Y-101350000D01*
X114000000Y-101350000D02*
X115225000Y-102575000D01*
X113725000Y-105500000D02*
X112500000Y-105500000D01*
X115225000Y-104000000D02*
X113725000Y-105500000D01*
X115225000Y-102575000D02*
X115225000Y-104000000D01*
X113725000Y-108000000D02*
X114400000Y-108675000D01*
X112500000Y-108000000D02*
X113725000Y-108000000D01*
X114400000Y-108675000D02*
X114400000Y-114475000D01*
X116605000Y-116680000D02*
X116605000Y-119130000D01*
X114400000Y-114475000D02*
X116605000Y-116680000D01*
X116150000Y-110500000D02*
X116150000Y-113700000D01*
X116150000Y-113700000D02*
X119975000Y-117525000D01*
X119975000Y-117525000D02*
X121725000Y-117525000D01*
X121725000Y-117525000D02*
X123650000Y-119450000D01*
X123650000Y-119450000D02*
X123650000Y-121675000D01*
X123650000Y-121675000D02*
X122350000Y-122975000D01*
X119691000Y-122975000D02*
X117626000Y-120910000D01*
X122350000Y-122975000D02*
X119691000Y-122975000D01*
X127775000Y-104250000D02*
X126100000Y-105925000D01*
X129000000Y-104250000D02*
X127775000Y-104250000D01*
X126100000Y-105925000D02*
X126100000Y-120425000D01*
X126100000Y-120425000D02*
X128800000Y-123125000D01*
X133200000Y-123125000D02*
X135415000Y-120910000D01*
X128800000Y-123125000D02*
X133200000Y-123125000D01*
X136435000Y-119130000D02*
X136435000Y-113585000D01*
X132100000Y-109250000D02*
X129000000Y-109250000D01*
X136435000Y-113585000D02*
X132100000Y-109250000D01*
X137275000Y-104250000D02*
X134975000Y-106550000D01*
X138500000Y-104250000D02*
X137275000Y-104250000D01*
X134975000Y-106550000D02*
X134975000Y-108600000D01*
X112375000Y-103000000D02*
X110725000Y-104650000D01*
X112500000Y-103000000D02*
X112375000Y-103000000D01*
X110725000Y-104650000D02*
X110725000Y-112750000D01*
X114565000Y-116590000D02*
X114565000Y-119130000D01*
X110725000Y-112750000D02*
X114565000Y-116590000D01*
D17*
G36*
X110031709Y-100756709D02*
G01*
X110005563Y-100788568D01*
X109038574Y-101755559D01*
X109006710Y-101781709D01*
X108928208Y-101877364D01*
X108902364Y-101908855D01*
X108824828Y-102053914D01*
X108777082Y-102211312D01*
X108760960Y-102375000D01*
X108765001Y-102416029D01*
X108765000Y-113833981D01*
X108760960Y-113875000D01*
X108765000Y-113916018D01*
X108777082Y-114038688D01*
X108824828Y-114196086D01*
X108902364Y-114341145D01*
X109006709Y-114468291D01*
X109038579Y-114494446D01*
X112190001Y-117645869D01*
X112190000Y-119298930D01*
X112185960Y-119339949D01*
X112190000Y-119380967D01*
X112202082Y-119503637D01*
X112249828Y-119661035D01*
X112327364Y-119806094D01*
X112431709Y-119933240D01*
X112463579Y-119959395D01*
X113975610Y-121471426D01*
X114001760Y-121503291D01*
X114128905Y-121607636D01*
X114273964Y-121685172D01*
X114431362Y-121732918D01*
X114536163Y-121743240D01*
X114548038Y-121761013D01*
X114733987Y-121946962D01*
X114952641Y-122093061D01*
X115195595Y-122193696D01*
X115453514Y-122245000D01*
X115716486Y-122245000D01*
X115974405Y-122193696D01*
X116217359Y-122093061D01*
X116436013Y-121946962D01*
X116605500Y-121777475D01*
X116774987Y-121946962D01*
X116993641Y-122093061D01*
X117236595Y-122193696D01*
X117494514Y-122245000D01*
X117757486Y-122245000D01*
X117776375Y-122241243D01*
X119071559Y-123536427D01*
X119097709Y-123568291D01*
X119224799Y-123672591D01*
X119224854Y-123672636D01*
X119369913Y-123750172D01*
X119527311Y-123797918D01*
X119690999Y-123814040D01*
X119732018Y-123810000D01*
X122308982Y-123810000D01*
X122350000Y-123814040D01*
X122391018Y-123810000D01*
X122391019Y-123810000D01*
X122513689Y-123797918D01*
X122671087Y-123750172D01*
X122816146Y-123672636D01*
X122943291Y-123568291D01*
X122969446Y-123536422D01*
X124211432Y-122294437D01*
X124243291Y-122268291D01*
X124304510Y-122193696D01*
X124347636Y-122141146D01*
X124425172Y-121996087D01*
X124472918Y-121838688D01*
X124489040Y-121675000D01*
X124485000Y-121633982D01*
X124485000Y-119491018D01*
X124489040Y-119449999D01*
X124472918Y-119286311D01*
X124425172Y-119128913D01*
X124347636Y-118983854D01*
X124243291Y-118856709D01*
X124211428Y-118830560D01*
X122344446Y-116963579D01*
X122318291Y-116931709D01*
X122191146Y-116827364D01*
X122046087Y-116749828D01*
X121888689Y-116702082D01*
X121766019Y-116690000D01*
X121766018Y-116690000D01*
X121725000Y-116685960D01*
X121683982Y-116690000D01*
X120320869Y-116690000D01*
X116985000Y-113354133D01*
X116985000Y-111113285D01*
X117067205Y-110990256D01*
X117145226Y-110801898D01*
X117185000Y-110601939D01*
X117185000Y-110398061D01*
X117145226Y-110198102D01*
X117067205Y-110009744D01*
X116953937Y-109840226D01*
X116809774Y-109696063D01*
X116640256Y-109582795D01*
X116451898Y-109504774D01*
X116251939Y-109465000D01*
X116048061Y-109465000D01*
X115848102Y-109504774D01*
X115659744Y-109582795D01*
X115490226Y-109696063D01*
X115346063Y-109840226D01*
X115235000Y-110006444D01*
X115235000Y-108716018D01*
X115239040Y-108674999D01*
X115236578Y-108650000D01*
X119386928Y-108650000D01*
X119386928Y-109850000D01*
X119403992Y-110023254D01*
X119454528Y-110189850D01*
X119536595Y-110343386D01*
X119647038Y-110477962D01*
X119781614Y-110588405D01*
X119935150Y-110670472D01*
X120101746Y-110721008D01*
X120275000Y-110738072D01*
X121725000Y-110738072D01*
X121898254Y-110721008D01*
X122064850Y-110670472D01*
X122218386Y-110588405D01*
X122352962Y-110477962D01*
X122463405Y-110343386D01*
X122545472Y-110189850D01*
X122596008Y-110023254D01*
X122613072Y-109850000D01*
X122613072Y-108650000D01*
X122596008Y-108476746D01*
X122545472Y-108310150D01*
X122463405Y-108156614D01*
X122352962Y-108022038D01*
X122218386Y-107911595D01*
X122113039Y-107855286D01*
X122134429Y-107839049D01*
X122327496Y-107621193D01*
X122474352Y-107369858D01*
X122566476Y-107106890D01*
X122445155Y-106877000D01*
X121127000Y-106877000D01*
X121127000Y-106897000D01*
X120873000Y-106897000D01*
X120873000Y-106877000D01*
X119554845Y-106877000D01*
X119433524Y-107106890D01*
X119525648Y-107369858D01*
X119672504Y-107621193D01*
X119865571Y-107839049D01*
X119886961Y-107855286D01*
X119781614Y-107911595D01*
X119647038Y-108022038D01*
X119536595Y-108156614D01*
X119454528Y-108310150D01*
X119403992Y-108476746D01*
X119386928Y-108650000D01*
X115236578Y-108650000D01*
X115222918Y-108511311D01*
X115175172Y-108353913D01*
X115097636Y-108208854D01*
X115060569Y-108163688D01*
X114993291Y-108081709D01*
X114961427Y-108055559D01*
X114344446Y-107438578D01*
X114318291Y-107406709D01*
X114191146Y-107302364D01*
X114046087Y-107224828D01*
X113888689Y-107177082D01*
X113867868Y-107175031D01*
X113865706Y-107170986D01*
X113680134Y-106944866D01*
X113454014Y-106759294D01*
X113436626Y-106750000D01*
X113454014Y-106740706D01*
X113680134Y-106555134D01*
X113865706Y-106329014D01*
X113867868Y-106324969D01*
X113888689Y-106322918D01*
X114046087Y-106275172D01*
X114191146Y-106197636D01*
X114318291Y-106093291D01*
X114344446Y-106061421D01*
X115786426Y-104619441D01*
X115818291Y-104593291D01*
X115922636Y-104466146D01*
X116000172Y-104321087D01*
X116021735Y-104250000D01*
X119382815Y-104250000D01*
X119411487Y-104541111D01*
X119496401Y-104821034D01*
X119634294Y-105079014D01*
X119819866Y-105305134D01*
X120045986Y-105490706D01*
X120071722Y-105504462D01*
X119865571Y-105660951D01*
X119672504Y-105878807D01*
X119525648Y-106130142D01*
X119433524Y-106393110D01*
X119554845Y-106623000D01*
X120873000Y-106623000D01*
X120873000Y-106603000D01*
X121127000Y-106603000D01*
X121127000Y-106623000D01*
X122445155Y-106623000D01*
X122566476Y-106393110D01*
X122474352Y-106130142D01*
X122354487Y-105925000D01*
X125260960Y-105925000D01*
X125265000Y-105966019D01*
X125265001Y-120383971D01*
X125260960Y-120425000D01*
X125277082Y-120588688D01*
X125324828Y-120746086D01*
X125402364Y-120891145D01*
X125402365Y-120891146D01*
X125506710Y-121018291D01*
X125538574Y-121044441D01*
X128180563Y-123686432D01*
X128206709Y-123718291D01*
X128333854Y-123822636D01*
X128478913Y-123900172D01*
X128636311Y-123947918D01*
X128758981Y-123960000D01*
X128758982Y-123960000D01*
X128800000Y-123964040D01*
X128841018Y-123960000D01*
X133158982Y-123960000D01*
X133200000Y-123964040D01*
X133241018Y-123960000D01*
X133241019Y-123960000D01*
X133363689Y-123947918D01*
X133521087Y-123900172D01*
X133666146Y-123822636D01*
X133793291Y-123718291D01*
X133819446Y-123686421D01*
X134278458Y-123227409D01*
X137965000Y-123227409D01*
X137965000Y-123672591D01*
X138051851Y-124109218D01*
X138222214Y-124520511D01*
X138469544Y-124890666D01*
X138784334Y-125205456D01*
X139154489Y-125452786D01*
X139565782Y-125623149D01*
X140002409Y-125710000D01*
X140447591Y-125710000D01*
X140884218Y-125623149D01*
X141295511Y-125452786D01*
X141629124Y-125229872D01*
X146215000Y-125229872D01*
X146215000Y-125670128D01*
X146300890Y-126101925D01*
X146469369Y-126508669D01*
X146713962Y-126874729D01*
X147025271Y-127186038D01*
X147391331Y-127430631D01*
X147798075Y-127599110D01*
X148229872Y-127685000D01*
X148670128Y-127685000D01*
X149101925Y-127599110D01*
X149508669Y-127430631D01*
X149874729Y-127186038D01*
X150186038Y-126874729D01*
X150430631Y-126508669D01*
X150599110Y-126101925D01*
X150685000Y-125670128D01*
X150685000Y-125229872D01*
X150599110Y-124798075D01*
X150430631Y-124391331D01*
X150186038Y-124025271D01*
X149874729Y-123713962D01*
X149508669Y-123469369D01*
X149101925Y-123300890D01*
X148670128Y-123215000D01*
X148229872Y-123215000D01*
X147798075Y-123300890D01*
X147391331Y-123469369D01*
X147025271Y-123713962D01*
X146713962Y-124025271D01*
X146469369Y-124391331D01*
X146300890Y-124798075D01*
X146215000Y-125229872D01*
X141629124Y-125229872D01*
X141665666Y-125205456D01*
X141980456Y-124890666D01*
X142227786Y-124520511D01*
X142398149Y-124109218D01*
X142485000Y-123672591D01*
X142485000Y-123227409D01*
X142398149Y-122790782D01*
X142227786Y-122379489D01*
X141980456Y-122009334D01*
X141665666Y-121694544D01*
X141295511Y-121447214D01*
X140884218Y-121276851D01*
X140447591Y-121190000D01*
X140002409Y-121190000D01*
X139565782Y-121276851D01*
X139154489Y-121447214D01*
X138784334Y-121694544D01*
X138469544Y-122009334D01*
X138222214Y-122379489D01*
X138051851Y-122790782D01*
X137965000Y-123227409D01*
X134278458Y-123227409D01*
X135264625Y-122241243D01*
X135283514Y-122245000D01*
X135546486Y-122245000D01*
X135804405Y-122193696D01*
X136047359Y-122093061D01*
X136266013Y-121946962D01*
X136435000Y-121777975D01*
X136603987Y-121946962D01*
X136822641Y-122093061D01*
X137065595Y-122193696D01*
X137323514Y-122245000D01*
X137586486Y-122245000D01*
X137844405Y-122193696D01*
X138087359Y-122093061D01*
X138306013Y-121946962D01*
X138491962Y-121761013D01*
X138638061Y-121542359D01*
X138738696Y-121299405D01*
X138790000Y-121041486D01*
X138790000Y-120778514D01*
X138787902Y-120767965D01*
X143211428Y-116344440D01*
X143243291Y-116318291D01*
X143347636Y-116191146D01*
X143425172Y-116046087D01*
X143472918Y-115888689D01*
X143485000Y-115766019D01*
X143485000Y-115766017D01*
X143489040Y-115725001D01*
X143485000Y-115683985D01*
X143485000Y-115195867D01*
X144823977Y-113856890D01*
X145908524Y-113856890D01*
X145910446Y-113869261D01*
X146010146Y-114143009D01*
X146161336Y-114392046D01*
X146358205Y-114606802D01*
X146593188Y-114779025D01*
X146857255Y-114902096D01*
X147140258Y-114971285D01*
X147373000Y-114827232D01*
X147373000Y-113627000D01*
X147627000Y-113627000D01*
X147627000Y-114827232D01*
X147859742Y-114971285D01*
X148142745Y-114902096D01*
X148406812Y-114779025D01*
X148641795Y-114606802D01*
X148838664Y-114392046D01*
X148989854Y-114143009D01*
X149089554Y-113869261D01*
X149091476Y-113856890D01*
X148970155Y-113627000D01*
X147627000Y-113627000D01*
X147373000Y-113627000D01*
X146029845Y-113627000D01*
X145908524Y-113856890D01*
X144823977Y-113856890D01*
X146312559Y-112368308D01*
X146358593Y-112392914D01*
X146358205Y-112393198D01*
X146161336Y-112607954D01*
X146010146Y-112856991D01*
X145910446Y-113130739D01*
X145908524Y-113143110D01*
X146029845Y-113373000D01*
X147373000Y-113373000D01*
X147373000Y-113353000D01*
X147627000Y-113353000D01*
X147627000Y-113373000D01*
X148970155Y-113373000D01*
X149091476Y-113143110D01*
X149089554Y-113130739D01*
X148989854Y-112856991D01*
X148838664Y-112607954D01*
X148641795Y-112393198D01*
X148641407Y-112392914D01*
X148743386Y-112338405D01*
X148877962Y-112227962D01*
X148988405Y-112093386D01*
X149070472Y-111939850D01*
X149121008Y-111773254D01*
X149138072Y-111600000D01*
X149138072Y-110400000D01*
X149121008Y-110226746D01*
X149070472Y-110060150D01*
X148988405Y-109906614D01*
X148877962Y-109772038D01*
X148743386Y-109661595D01*
X148589850Y-109579528D01*
X148423254Y-109528992D01*
X148250000Y-109511928D01*
X146750000Y-109511928D01*
X146576746Y-109528992D01*
X146410150Y-109579528D01*
X146256614Y-109661595D01*
X146122038Y-109772038D01*
X146011595Y-109906614D01*
X145929528Y-110060150D01*
X145878992Y-110226746D01*
X145861928Y-110400000D01*
X145861928Y-110457204D01*
X142088574Y-114230559D01*
X142056710Y-114256709D01*
X141975907Y-114355168D01*
X141952364Y-114383855D01*
X141874828Y-114528914D01*
X141827082Y-114686312D01*
X141810960Y-114850000D01*
X141815000Y-114891018D01*
X141815000Y-115379132D01*
X137729614Y-119464519D01*
X137770000Y-119261486D01*
X137770000Y-118998514D01*
X137718696Y-118740595D01*
X137618061Y-118497641D01*
X137471962Y-118278987D01*
X137286013Y-118093038D01*
X137270000Y-118082339D01*
X137270000Y-113626018D01*
X137274040Y-113585000D01*
X137257918Y-113421311D01*
X137210172Y-113263913D01*
X137132636Y-113118854D01*
X137054439Y-113023570D01*
X137054437Y-113023568D01*
X137028291Y-112991709D01*
X136996432Y-112965563D01*
X132719446Y-108688579D01*
X132693291Y-108656709D01*
X132566146Y-108552364D01*
X132464553Y-108498061D01*
X133940000Y-108498061D01*
X133940000Y-108701939D01*
X133979774Y-108901898D01*
X134057795Y-109090256D01*
X134171063Y-109259774D01*
X134315226Y-109403937D01*
X134484744Y-109517205D01*
X134673102Y-109595226D01*
X134873061Y-109635000D01*
X135076939Y-109635000D01*
X135276898Y-109595226D01*
X135465256Y-109517205D01*
X135634774Y-109403937D01*
X135778937Y-109259774D01*
X135892205Y-109090256D01*
X135970226Y-108901898D01*
X136010000Y-108701939D01*
X136010000Y-108650000D01*
X136886928Y-108650000D01*
X136886928Y-109850000D01*
X136903992Y-110023254D01*
X136954528Y-110189850D01*
X137036595Y-110343386D01*
X137147038Y-110477962D01*
X137281614Y-110588405D01*
X137435150Y-110670472D01*
X137601746Y-110721008D01*
X137775000Y-110738072D01*
X139225000Y-110738072D01*
X139398254Y-110721008D01*
X139564850Y-110670472D01*
X139718386Y-110588405D01*
X139852962Y-110477962D01*
X139963405Y-110343386D01*
X140045472Y-110189850D01*
X140096008Y-110023254D01*
X140113072Y-109850000D01*
X140113072Y-108650000D01*
X140096008Y-108476746D01*
X140045472Y-108310150D01*
X139963405Y-108156614D01*
X139852962Y-108022038D01*
X139718386Y-107911595D01*
X139613039Y-107855286D01*
X139634429Y-107839049D01*
X139827496Y-107621193D01*
X139974352Y-107369858D01*
X140066476Y-107106890D01*
X139945155Y-106877000D01*
X138627000Y-106877000D01*
X138627000Y-106897000D01*
X138373000Y-106897000D01*
X138373000Y-106877000D01*
X137054845Y-106877000D01*
X136933524Y-107106890D01*
X137025648Y-107369858D01*
X137172504Y-107621193D01*
X137365571Y-107839049D01*
X137386961Y-107855286D01*
X137281614Y-107911595D01*
X137147038Y-108022038D01*
X137036595Y-108156614D01*
X136954528Y-108310150D01*
X136903992Y-108476746D01*
X136886928Y-108650000D01*
X136010000Y-108650000D01*
X136010000Y-108498061D01*
X135970226Y-108298102D01*
X135892205Y-108109744D01*
X135810000Y-107986715D01*
X135810000Y-106895867D01*
X137364282Y-105341586D01*
X137545986Y-105490706D01*
X137571722Y-105504462D01*
X137365571Y-105660951D01*
X137172504Y-105878807D01*
X137025648Y-106130142D01*
X136933524Y-106393110D01*
X137054845Y-106623000D01*
X138373000Y-106623000D01*
X138373000Y-106603000D01*
X138627000Y-106603000D01*
X138627000Y-106623000D01*
X139945155Y-106623000D01*
X140066476Y-106393110D01*
X139974352Y-106130142D01*
X139827496Y-105878807D01*
X139634429Y-105660951D01*
X139428278Y-105504462D01*
X139454014Y-105490706D01*
X139680134Y-105305134D01*
X139865706Y-105079014D01*
X140003599Y-104821034D01*
X140088513Y-104541111D01*
X140117185Y-104250000D01*
X140088513Y-103958889D01*
X140003599Y-103678966D01*
X139865706Y-103420986D01*
X139790931Y-103329872D01*
X146215000Y-103329872D01*
X146215000Y-103770128D01*
X146300890Y-104201925D01*
X146469369Y-104608669D01*
X146713962Y-104974729D01*
X147025271Y-105286038D01*
X147391331Y-105530631D01*
X147798075Y-105699110D01*
X148229872Y-105785000D01*
X148670128Y-105785000D01*
X149101925Y-105699110D01*
X149508669Y-105530631D01*
X149874729Y-105286038D01*
X150186038Y-104974729D01*
X150430631Y-104608669D01*
X150599110Y-104201925D01*
X150685000Y-103770128D01*
X150685000Y-103329872D01*
X150599110Y-102898075D01*
X150430631Y-102491331D01*
X150186038Y-102125271D01*
X149874729Y-101813962D01*
X149508669Y-101569369D01*
X149101925Y-101400890D01*
X148670128Y-101315000D01*
X148229872Y-101315000D01*
X147798075Y-101400890D01*
X147391331Y-101569369D01*
X147025271Y-101813962D01*
X146713962Y-102125271D01*
X146469369Y-102491331D01*
X146300890Y-102898075D01*
X146215000Y-103329872D01*
X139790931Y-103329872D01*
X139680134Y-103194866D01*
X139454014Y-103009294D01*
X139196034Y-102871401D01*
X138916111Y-102786487D01*
X138697950Y-102765000D01*
X138302050Y-102765000D01*
X138083889Y-102786487D01*
X137803966Y-102871401D01*
X137545986Y-103009294D01*
X137319866Y-103194866D01*
X137134294Y-103420986D01*
X137132132Y-103425031D01*
X137111311Y-103427082D01*
X136953913Y-103474828D01*
X136808854Y-103552364D01*
X136681709Y-103656709D01*
X136655559Y-103688573D01*
X134413579Y-105930554D01*
X134381709Y-105956709D01*
X134287886Y-106071034D01*
X134277364Y-106083855D01*
X134199828Y-106228914D01*
X134152082Y-106386312D01*
X134135960Y-106550000D01*
X134140000Y-106591019D01*
X134140001Y-107986714D01*
X134057795Y-108109744D01*
X133979774Y-108298102D01*
X133940000Y-108498061D01*
X132464553Y-108498061D01*
X132421087Y-108474828D01*
X132263689Y-108427082D01*
X132141019Y-108415000D01*
X132141018Y-108415000D01*
X132100000Y-108410960D01*
X132058982Y-108415000D01*
X130577278Y-108415000D01*
X130545472Y-108310150D01*
X130463405Y-108156614D01*
X130352962Y-108022038D01*
X130218386Y-107911595D01*
X130113039Y-107855286D01*
X130134429Y-107839049D01*
X130327496Y-107621193D01*
X130474352Y-107369858D01*
X130566476Y-107106890D01*
X130445155Y-106877000D01*
X129127000Y-106877000D01*
X129127000Y-106897000D01*
X128873000Y-106897000D01*
X128873000Y-106877000D01*
X127554845Y-106877000D01*
X127433524Y-107106890D01*
X127525648Y-107369858D01*
X127672504Y-107621193D01*
X127865571Y-107839049D01*
X127886961Y-107855286D01*
X127781614Y-107911595D01*
X127647038Y-108022038D01*
X127536595Y-108156614D01*
X127454528Y-108310150D01*
X127403992Y-108476746D01*
X127386928Y-108650000D01*
X127386928Y-109850000D01*
X127403992Y-110023254D01*
X127454528Y-110189850D01*
X127536595Y-110343386D01*
X127647038Y-110477962D01*
X127781614Y-110588405D01*
X127935150Y-110670472D01*
X128101746Y-110721008D01*
X128275000Y-110738072D01*
X129725000Y-110738072D01*
X129898254Y-110721008D01*
X130064850Y-110670472D01*
X130218386Y-110588405D01*
X130352962Y-110477962D01*
X130463405Y-110343386D01*
X130545472Y-110189850D01*
X130577278Y-110085000D01*
X131754133Y-110085000D01*
X135600001Y-113930870D01*
X135600000Y-118082338D01*
X135583987Y-118093038D01*
X135415000Y-118262025D01*
X135246013Y-118093038D01*
X135027359Y-117946939D01*
X134784405Y-117846304D01*
X134526486Y-117795000D01*
X134263514Y-117795000D01*
X134005595Y-117846304D01*
X133762641Y-117946939D01*
X133543987Y-118093038D01*
X133375000Y-118262025D01*
X133206013Y-118093038D01*
X132987359Y-117946939D01*
X132744405Y-117846304D01*
X132486486Y-117795000D01*
X132223514Y-117795000D01*
X131965595Y-117846304D01*
X131722641Y-117946939D01*
X131503987Y-118093038D01*
X131335000Y-118262025D01*
X131166013Y-118093038D01*
X130947359Y-117946939D01*
X130704405Y-117846304D01*
X130446486Y-117795000D01*
X130183514Y-117795000D01*
X129925595Y-117846304D01*
X129682641Y-117946939D01*
X129463987Y-118093038D01*
X129278038Y-118278987D01*
X129131939Y-118497641D01*
X129031304Y-118740595D01*
X128980000Y-118998514D01*
X128980000Y-119261486D01*
X129031304Y-119519405D01*
X129131939Y-119762359D01*
X129278038Y-119981013D01*
X129463987Y-120166962D01*
X129682641Y-120313061D01*
X129925595Y-120413696D01*
X130082643Y-120444935D01*
X130051304Y-120520595D01*
X130000000Y-120778514D01*
X130000000Y-121041486D01*
X130051304Y-121299405D01*
X130151939Y-121542359D01*
X130298038Y-121761013D01*
X130483987Y-121946962D01*
X130702641Y-122093061D01*
X130945595Y-122193696D01*
X131203514Y-122245000D01*
X131466486Y-122245000D01*
X131724405Y-122193696D01*
X131967359Y-122093061D01*
X132186013Y-121946962D01*
X132371962Y-121761013D01*
X132446291Y-121649771D01*
X132453731Y-121651664D01*
X133195395Y-120910000D01*
X133181253Y-120895858D01*
X133360858Y-120716253D01*
X133375000Y-120730395D01*
X133389143Y-120716253D01*
X133568748Y-120895858D01*
X133554605Y-120910000D01*
X133568748Y-120924143D01*
X133389143Y-121103748D01*
X133375000Y-121089605D01*
X132633336Y-121831269D01*
X132692797Y-122065037D01*
X132931242Y-122175934D01*
X132960959Y-122183174D01*
X132854133Y-122290000D01*
X129145869Y-122290000D01*
X126935000Y-120079133D01*
X126935000Y-106270867D01*
X127864283Y-105341586D01*
X128045986Y-105490706D01*
X128071722Y-105504462D01*
X127865571Y-105660951D01*
X127672504Y-105878807D01*
X127525648Y-106130142D01*
X127433524Y-106393110D01*
X127554845Y-106623000D01*
X128873000Y-106623000D01*
X128873000Y-106603000D01*
X129127000Y-106603000D01*
X129127000Y-106623000D01*
X130445155Y-106623000D01*
X130566476Y-106393110D01*
X130474352Y-106130142D01*
X130327496Y-105878807D01*
X130134429Y-105660951D01*
X129928278Y-105504462D01*
X129954014Y-105490706D01*
X130180134Y-105305134D01*
X130365706Y-105079014D01*
X130503599Y-104821034D01*
X130588513Y-104541111D01*
X130617185Y-104250000D01*
X130588513Y-103958889D01*
X130503599Y-103678966D01*
X130365706Y-103420986D01*
X130180134Y-103194866D01*
X129954014Y-103009294D01*
X129696034Y-102871401D01*
X129416111Y-102786487D01*
X129197950Y-102765000D01*
X128802050Y-102765000D01*
X128583889Y-102786487D01*
X128303966Y-102871401D01*
X128045986Y-103009294D01*
X127819866Y-103194866D01*
X127634294Y-103420986D01*
X127632132Y-103425031D01*
X127611311Y-103427082D01*
X127453913Y-103474828D01*
X127308854Y-103552364D01*
X127181709Y-103656709D01*
X127155563Y-103688568D01*
X125538579Y-105305554D01*
X125506709Y-105331709D01*
X125431104Y-105423835D01*
X125402364Y-105458855D01*
X125324828Y-105603914D01*
X125277082Y-105761312D01*
X125260960Y-105925000D01*
X122354487Y-105925000D01*
X122327496Y-105878807D01*
X122134429Y-105660951D01*
X121928278Y-105504462D01*
X121954014Y-105490706D01*
X122180134Y-105305134D01*
X122365706Y-105079014D01*
X122503599Y-104821034D01*
X122588513Y-104541111D01*
X122617185Y-104250000D01*
X122588513Y-103958889D01*
X122503599Y-103678966D01*
X122365706Y-103420986D01*
X122180134Y-103194866D01*
X121954014Y-103009294D01*
X121696034Y-102871401D01*
X121416111Y-102786487D01*
X121197950Y-102765000D01*
X120802050Y-102765000D01*
X120583889Y-102786487D01*
X120303966Y-102871401D01*
X120045986Y-103009294D01*
X119819866Y-103194866D01*
X119634294Y-103420986D01*
X119496401Y-103678966D01*
X119411487Y-103958889D01*
X119382815Y-104250000D01*
X116021735Y-104250000D01*
X116047918Y-104163689D01*
X116060000Y-104041019D01*
X116060000Y-104041009D01*
X116064039Y-104000001D01*
X116060000Y-103958993D01*
X116060000Y-102616018D01*
X116064040Y-102575000D01*
X116047918Y-102411312D01*
X116000172Y-102253913D01*
X115922636Y-102108854D01*
X115844439Y-102013570D01*
X115844437Y-102013568D01*
X115818291Y-101981709D01*
X115786433Y-101955564D01*
X114619445Y-100788578D01*
X114593291Y-100756709D01*
X114475451Y-100660000D01*
X151340000Y-100660000D01*
X151340001Y-128340000D01*
X100660000Y-128340000D01*
X100660000Y-125229872D01*
X101315000Y-125229872D01*
X101315000Y-125670128D01*
X101400890Y-126101925D01*
X101569369Y-126508669D01*
X101813962Y-126874729D01*
X102125271Y-127186038D01*
X102491331Y-127430631D01*
X102898075Y-127599110D01*
X103329872Y-127685000D01*
X103770128Y-127685000D01*
X104201925Y-127599110D01*
X104608669Y-127430631D01*
X104974729Y-127186038D01*
X105286038Y-126874729D01*
X105530631Y-126508669D01*
X105699110Y-126101925D01*
X105785000Y-125670128D01*
X105785000Y-125229872D01*
X105699110Y-124798075D01*
X105530631Y-124391331D01*
X105286038Y-124025271D01*
X104974729Y-123713962D01*
X104608669Y-123469369D01*
X104201925Y-123300890D01*
X103832513Y-123227409D01*
X109515000Y-123227409D01*
X109515000Y-123672591D01*
X109601851Y-124109218D01*
X109772214Y-124520511D01*
X110019544Y-124890666D01*
X110334334Y-125205456D01*
X110704489Y-125452786D01*
X111115782Y-125623149D01*
X111552409Y-125710000D01*
X111997591Y-125710000D01*
X112434218Y-125623149D01*
X112845511Y-125452786D01*
X113215666Y-125205456D01*
X113530456Y-124890666D01*
X113777786Y-124520511D01*
X113948149Y-124109218D01*
X114035000Y-123672591D01*
X114035000Y-123227409D01*
X113948149Y-122790782D01*
X113777786Y-122379489D01*
X113530456Y-122009334D01*
X113215666Y-121694544D01*
X112845511Y-121447214D01*
X112434218Y-121276851D01*
X111997591Y-121190000D01*
X111552409Y-121190000D01*
X111115782Y-121276851D01*
X110704489Y-121447214D01*
X110334334Y-121694544D01*
X110019544Y-122009334D01*
X109772214Y-122379489D01*
X109601851Y-122790782D01*
X109515000Y-123227409D01*
X103832513Y-123227409D01*
X103770128Y-123215000D01*
X103329872Y-123215000D01*
X102898075Y-123300890D01*
X102491331Y-123469369D01*
X102125271Y-123713962D01*
X101813962Y-124025271D01*
X101569369Y-124391331D01*
X101400890Y-124798075D01*
X101315000Y-125229872D01*
X100660000Y-125229872D01*
X100660000Y-118877050D01*
X102015000Y-118877050D01*
X102015000Y-119322949D01*
X102036487Y-119541110D01*
X102121401Y-119821033D01*
X102259294Y-120079013D01*
X102444866Y-120305134D01*
X102670986Y-120490706D01*
X102928966Y-120628599D01*
X103208889Y-120713513D01*
X103500000Y-120742185D01*
X103791110Y-120713513D01*
X104071033Y-120628599D01*
X104329013Y-120490706D01*
X104555134Y-120305134D01*
X104607223Y-120241663D01*
X104661595Y-120343386D01*
X104772038Y-120477962D01*
X104906614Y-120588405D01*
X105060150Y-120670472D01*
X105226746Y-120721008D01*
X105400000Y-120738072D01*
X106600000Y-120738072D01*
X106773254Y-120721008D01*
X106939850Y-120670472D01*
X107093386Y-120588405D01*
X107227962Y-120477962D01*
X107338405Y-120343386D01*
X107420472Y-120189850D01*
X107471008Y-120023254D01*
X107488072Y-119850000D01*
X107488072Y-118350000D01*
X107471008Y-118176746D01*
X107420472Y-118010150D01*
X107338405Y-117856614D01*
X107227962Y-117722038D01*
X107093386Y-117611595D01*
X106939850Y-117529528D01*
X106773254Y-117478992D01*
X106600000Y-117461928D01*
X105400000Y-117461928D01*
X105226746Y-117478992D01*
X105060150Y-117529528D01*
X104906614Y-117611595D01*
X104772038Y-117722038D01*
X104661595Y-117856614D01*
X104607223Y-117958337D01*
X104555134Y-117894866D01*
X104329014Y-117709294D01*
X104071034Y-117571401D01*
X103791111Y-117486487D01*
X103500000Y-117457815D01*
X103208890Y-117486487D01*
X102928967Y-117571401D01*
X102670987Y-117709294D01*
X102444866Y-117894866D01*
X102259294Y-118120986D01*
X102121401Y-118378966D01*
X102036487Y-118658889D01*
X102015000Y-118877050D01*
X100660000Y-118877050D01*
X100660000Y-111077050D01*
X102015000Y-111077050D01*
X102015000Y-111522949D01*
X102036487Y-111741110D01*
X102121401Y-112021033D01*
X102259294Y-112279013D01*
X102444866Y-112505134D01*
X102670986Y-112690706D01*
X102928966Y-112828599D01*
X103208889Y-112913513D01*
X103500000Y-112942185D01*
X103791110Y-112913513D01*
X104071033Y-112828599D01*
X104329013Y-112690706D01*
X104555134Y-112505134D01*
X104607223Y-112441663D01*
X104661595Y-112543386D01*
X104772038Y-112677962D01*
X104906614Y-112788405D01*
X105060150Y-112870472D01*
X105226746Y-112921008D01*
X105400000Y-112938072D01*
X106600000Y-112938072D01*
X106773254Y-112921008D01*
X106939850Y-112870472D01*
X107093386Y-112788405D01*
X107227962Y-112677962D01*
X107338405Y-112543386D01*
X107420472Y-112389850D01*
X107471008Y-112223254D01*
X107488072Y-112050000D01*
X107488072Y-110550000D01*
X107471008Y-110376746D01*
X107420472Y-110210150D01*
X107338405Y-110056614D01*
X107227962Y-109922038D01*
X107093386Y-109811595D01*
X106939850Y-109729528D01*
X106773254Y-109678992D01*
X106600000Y-109661928D01*
X105400000Y-109661928D01*
X105226746Y-109678992D01*
X105060150Y-109729528D01*
X104906614Y-109811595D01*
X104772038Y-109922038D01*
X104661595Y-110056614D01*
X104607223Y-110158337D01*
X104555134Y-110094866D01*
X104329014Y-109909294D01*
X104071034Y-109771401D01*
X103791111Y-109686487D01*
X103500000Y-109657815D01*
X103208890Y-109686487D01*
X102928967Y-109771401D01*
X102670987Y-109909294D01*
X102444866Y-110094866D01*
X102259294Y-110320986D01*
X102121401Y-110578966D01*
X102036487Y-110858889D01*
X102015000Y-111077050D01*
X100660000Y-111077050D01*
X100660000Y-103329872D01*
X101315000Y-103329872D01*
X101315000Y-103770128D01*
X101400890Y-104201925D01*
X101569369Y-104608669D01*
X101813962Y-104974729D01*
X102125271Y-105286038D01*
X102491331Y-105530631D01*
X102898075Y-105699110D01*
X103329872Y-105785000D01*
X103770128Y-105785000D01*
X104201925Y-105699110D01*
X104608669Y-105530631D01*
X104974729Y-105286038D01*
X105286038Y-104974729D01*
X105530631Y-104608669D01*
X105699110Y-104201925D01*
X105785000Y-103770128D01*
X105785000Y-103329872D01*
X105699110Y-102898075D01*
X105530631Y-102491331D01*
X105286038Y-102125271D01*
X104974729Y-101813962D01*
X104608669Y-101569369D01*
X104201925Y-101400890D01*
X103770128Y-101315000D01*
X103329872Y-101315000D01*
X102898075Y-101400890D01*
X102491331Y-101569369D01*
X102125271Y-101813962D01*
X101813962Y-102125271D01*
X101569369Y-102491331D01*
X101400890Y-102898075D01*
X101315000Y-103329872D01*
X100660000Y-103329872D01*
X100660000Y-100660000D01*
X110149549Y-100660000D01*
X110031709Y-100756709D01*
G37*
X110031709Y-100756709D02*
X110005563Y-100788568D01*
X109038574Y-101755559D01*
X109006710Y-101781709D01*
X108928208Y-101877364D01*
X108902364Y-101908855D01*
X108824828Y-102053914D01*
X108777082Y-102211312D01*
X108760960Y-102375000D01*
X108765001Y-102416029D01*
X108765000Y-113833981D01*
X108760960Y-113875000D01*
X108765000Y-113916018D01*
X108777082Y-114038688D01*
X108824828Y-114196086D01*
X108902364Y-114341145D01*
X109006709Y-114468291D01*
X109038579Y-114494446D01*
X112190001Y-117645869D01*
X112190000Y-119298930D01*
X112185960Y-119339949D01*
X112190000Y-119380967D01*
X112202082Y-119503637D01*
X112249828Y-119661035D01*
X112327364Y-119806094D01*
X112431709Y-119933240D01*
X112463579Y-119959395D01*
X113975610Y-121471426D01*
X114001760Y-121503291D01*
X114128905Y-121607636D01*
X114273964Y-121685172D01*
X114431362Y-121732918D01*
X114536163Y-121743240D01*
X114548038Y-121761013D01*
X114733987Y-121946962D01*
X114952641Y-122093061D01*
X115195595Y-122193696D01*
X115453514Y-122245000D01*
X115716486Y-122245000D01*
X115974405Y-122193696D01*
X116217359Y-122093061D01*
X116436013Y-121946962D01*
X116605500Y-121777475D01*
X116774987Y-121946962D01*
X116993641Y-122093061D01*
X117236595Y-122193696D01*
X117494514Y-122245000D01*
X117757486Y-122245000D01*
X117776375Y-122241243D01*
X119071559Y-123536427D01*
X119097709Y-123568291D01*
X119224799Y-123672591D01*
X119224854Y-123672636D01*
X119369913Y-123750172D01*
X119527311Y-123797918D01*
X119690999Y-123814040D01*
X119732018Y-123810000D01*
X122308982Y-123810000D01*
X122350000Y-123814040D01*
X122391018Y-123810000D01*
X122391019Y-123810000D01*
X122513689Y-123797918D01*
X122671087Y-123750172D01*
X122816146Y-123672636D01*
X122943291Y-123568291D01*
X122969446Y-123536422D01*
X124211432Y-122294437D01*
X124243291Y-122268291D01*
X124304510Y-122193696D01*
X124347636Y-122141146D01*
X124425172Y-121996087D01*
X124472918Y-121838688D01*
X124489040Y-121675000D01*
X124485000Y-121633982D01*
X124485000Y-119491018D01*
X124489040Y-119449999D01*
X124472918Y-119286311D01*
X124425172Y-119128913D01*
X124347636Y-118983854D01*
X124243291Y-118856709D01*
X124211428Y-118830560D01*
X122344446Y-116963579D01*
X122318291Y-116931709D01*
X122191146Y-116827364D01*
X122046087Y-116749828D01*
X121888689Y-116702082D01*
X121766019Y-116690000D01*
X121766018Y-116690000D01*
X121725000Y-116685960D01*
X121683982Y-116690000D01*
X120320869Y-116690000D01*
X116985000Y-113354133D01*
X116985000Y-111113285D01*
X117067205Y-110990256D01*
X117145226Y-110801898D01*
X117185000Y-110601939D01*
X117185000Y-110398061D01*
X117145226Y-110198102D01*
X117067205Y-110009744D01*
X116953937Y-109840226D01*
X116809774Y-109696063D01*
X116640256Y-109582795D01*
X116451898Y-109504774D01*
X116251939Y-109465000D01*
X116048061Y-109465000D01*
X115848102Y-109504774D01*
X115659744Y-109582795D01*
X115490226Y-109696063D01*
X115346063Y-109840226D01*
X115235000Y-110006444D01*
X115235000Y-108716018D01*
X115239040Y-108674999D01*
X115236578Y-108650000D01*
X119386928Y-108650000D01*
X119386928Y-109850000D01*
X119403992Y-110023254D01*
X119454528Y-110189850D01*
X119536595Y-110343386D01*
X119647038Y-110477962D01*
X119781614Y-110588405D01*
X119935150Y-110670472D01*
X120101746Y-110721008D01*
X120275000Y-110738072D01*
X121725000Y-110738072D01*
X121898254Y-110721008D01*
X122064850Y-110670472D01*
X122218386Y-110588405D01*
X122352962Y-110477962D01*
X122463405Y-110343386D01*
X122545472Y-110189850D01*
X122596008Y-110023254D01*
X122613072Y-109850000D01*
X122613072Y-108650000D01*
X122596008Y-108476746D01*
X122545472Y-108310150D01*
X122463405Y-108156614D01*
X122352962Y-108022038D01*
X122218386Y-107911595D01*
X122113039Y-107855286D01*
X122134429Y-107839049D01*
X122327496Y-107621193D01*
X122474352Y-107369858D01*
X122566476Y-107106890D01*
X122445155Y-106877000D01*
X121127000Y-106877000D01*
X121127000Y-106897000D01*
X120873000Y-106897000D01*
X120873000Y-106877000D01*
X119554845Y-106877000D01*
X119433524Y-107106890D01*
X119525648Y-107369858D01*
X119672504Y-107621193D01*
X119865571Y-107839049D01*
X119886961Y-107855286D01*
X119781614Y-107911595D01*
X119647038Y-108022038D01*
X119536595Y-108156614D01*
X119454528Y-108310150D01*
X119403992Y-108476746D01*
X119386928Y-108650000D01*
X115236578Y-108650000D01*
X115222918Y-108511311D01*
X115175172Y-108353913D01*
X115097636Y-108208854D01*
X115060569Y-108163688D01*
X114993291Y-108081709D01*
X114961427Y-108055559D01*
X114344446Y-107438578D01*
X114318291Y-107406709D01*
X114191146Y-107302364D01*
X114046087Y-107224828D01*
X113888689Y-107177082D01*
X113867868Y-107175031D01*
X113865706Y-107170986D01*
X113680134Y-106944866D01*
X113454014Y-106759294D01*
X113436626Y-106750000D01*
X113454014Y-106740706D01*
X113680134Y-106555134D01*
X113865706Y-106329014D01*
X113867868Y-106324969D01*
X113888689Y-106322918D01*
X114046087Y-106275172D01*
X114191146Y-106197636D01*
X114318291Y-106093291D01*
X114344446Y-106061421D01*
X115786426Y-104619441D01*
X115818291Y-104593291D01*
X115922636Y-104466146D01*
X116000172Y-104321087D01*
X116021735Y-104250000D01*
X119382815Y-104250000D01*
X119411487Y-104541111D01*
X119496401Y-104821034D01*
X119634294Y-105079014D01*
X119819866Y-105305134D01*
X120045986Y-105490706D01*
X120071722Y-105504462D01*
X119865571Y-105660951D01*
X119672504Y-105878807D01*
X119525648Y-106130142D01*
X119433524Y-106393110D01*
X119554845Y-106623000D01*
X120873000Y-106623000D01*
X120873000Y-106603000D01*
X121127000Y-106603000D01*
X121127000Y-106623000D01*
X122445155Y-106623000D01*
X122566476Y-106393110D01*
X122474352Y-106130142D01*
X122354487Y-105925000D01*
X125260960Y-105925000D01*
X125265000Y-105966019D01*
X125265001Y-120383971D01*
X125260960Y-120425000D01*
X125277082Y-120588688D01*
X125324828Y-120746086D01*
X125402364Y-120891145D01*
X125402365Y-120891146D01*
X125506710Y-121018291D01*
X125538574Y-121044441D01*
X128180563Y-123686432D01*
X128206709Y-123718291D01*
X128333854Y-123822636D01*
X128478913Y-123900172D01*
X128636311Y-123947918D01*
X128758981Y-123960000D01*
X128758982Y-123960000D01*
X128800000Y-123964040D01*
X128841018Y-123960000D01*
X133158982Y-123960000D01*
X133200000Y-123964040D01*
X133241018Y-123960000D01*
X133241019Y-123960000D01*
X133363689Y-123947918D01*
X133521087Y-123900172D01*
X133666146Y-123822636D01*
X133793291Y-123718291D01*
X133819446Y-123686421D01*
X134278458Y-123227409D01*
X137965000Y-123227409D01*
X137965000Y-123672591D01*
X138051851Y-124109218D01*
X138222214Y-124520511D01*
X138469544Y-124890666D01*
X138784334Y-125205456D01*
X139154489Y-125452786D01*
X139565782Y-125623149D01*
X140002409Y-125710000D01*
X140447591Y-125710000D01*
X140884218Y-125623149D01*
X141295511Y-125452786D01*
X141629124Y-125229872D01*
X146215000Y-125229872D01*
X146215000Y-125670128D01*
X146300890Y-126101925D01*
X146469369Y-126508669D01*
X146713962Y-126874729D01*
X147025271Y-127186038D01*
X147391331Y-127430631D01*
X147798075Y-127599110D01*
X148229872Y-127685000D01*
X148670128Y-127685000D01*
X149101925Y-127599110D01*
X149508669Y-127430631D01*
X149874729Y-127186038D01*
X150186038Y-126874729D01*
X150430631Y-126508669D01*
X150599110Y-126101925D01*
X150685000Y-125670128D01*
X150685000Y-125229872D01*
X150599110Y-124798075D01*
X150430631Y-124391331D01*
X150186038Y-124025271D01*
X149874729Y-123713962D01*
X149508669Y-123469369D01*
X149101925Y-123300890D01*
X148670128Y-123215000D01*
X148229872Y-123215000D01*
X147798075Y-123300890D01*
X147391331Y-123469369D01*
X147025271Y-123713962D01*
X146713962Y-124025271D01*
X146469369Y-124391331D01*
X146300890Y-124798075D01*
X146215000Y-125229872D01*
X141629124Y-125229872D01*
X141665666Y-125205456D01*
X141980456Y-124890666D01*
X142227786Y-124520511D01*
X142398149Y-124109218D01*
X142485000Y-123672591D01*
X142485000Y-123227409D01*
X142398149Y-122790782D01*
X142227786Y-122379489D01*
X141980456Y-122009334D01*
X141665666Y-121694544D01*
X141295511Y-121447214D01*
X140884218Y-121276851D01*
X140447591Y-121190000D01*
X140002409Y-121190000D01*
X139565782Y-121276851D01*
X139154489Y-121447214D01*
X138784334Y-121694544D01*
X138469544Y-122009334D01*
X138222214Y-122379489D01*
X138051851Y-122790782D01*
X137965000Y-123227409D01*
X134278458Y-123227409D01*
X135264625Y-122241243D01*
X135283514Y-122245000D01*
X135546486Y-122245000D01*
X135804405Y-122193696D01*
X136047359Y-122093061D01*
X136266013Y-121946962D01*
X136435000Y-121777975D01*
X136603987Y-121946962D01*
X136822641Y-122093061D01*
X137065595Y-122193696D01*
X137323514Y-122245000D01*
X137586486Y-122245000D01*
X137844405Y-122193696D01*
X138087359Y-122093061D01*
X138306013Y-121946962D01*
X138491962Y-121761013D01*
X138638061Y-121542359D01*
X138738696Y-121299405D01*
X138790000Y-121041486D01*
X138790000Y-120778514D01*
X138787902Y-120767965D01*
X143211428Y-116344440D01*
X143243291Y-116318291D01*
X143347636Y-116191146D01*
X143425172Y-116046087D01*
X143472918Y-115888689D01*
X143485000Y-115766019D01*
X143485000Y-115766017D01*
X143489040Y-115725001D01*
X143485000Y-115683985D01*
X143485000Y-115195867D01*
X144823977Y-113856890D01*
X145908524Y-113856890D01*
X145910446Y-113869261D01*
X146010146Y-114143009D01*
X146161336Y-114392046D01*
X146358205Y-114606802D01*
X146593188Y-114779025D01*
X146857255Y-114902096D01*
X147140258Y-114971285D01*
X147373000Y-114827232D01*
X147373000Y-113627000D01*
X147627000Y-113627000D01*
X147627000Y-114827232D01*
X147859742Y-114971285D01*
X148142745Y-114902096D01*
X148406812Y-114779025D01*
X148641795Y-114606802D01*
X148838664Y-114392046D01*
X148989854Y-114143009D01*
X149089554Y-113869261D01*
X149091476Y-113856890D01*
X148970155Y-113627000D01*
X147627000Y-113627000D01*
X147373000Y-113627000D01*
X146029845Y-113627000D01*
X145908524Y-113856890D01*
X144823977Y-113856890D01*
X146312559Y-112368308D01*
X146358593Y-112392914D01*
X146358205Y-112393198D01*
X146161336Y-112607954D01*
X146010146Y-112856991D01*
X145910446Y-113130739D01*
X145908524Y-113143110D01*
X146029845Y-113373000D01*
X147373000Y-113373000D01*
X147373000Y-113353000D01*
X147627000Y-113353000D01*
X147627000Y-113373000D01*
X148970155Y-113373000D01*
X149091476Y-113143110D01*
X149089554Y-113130739D01*
X148989854Y-112856991D01*
X148838664Y-112607954D01*
X148641795Y-112393198D01*
X148641407Y-112392914D01*
X148743386Y-112338405D01*
X148877962Y-112227962D01*
X148988405Y-112093386D01*
X149070472Y-111939850D01*
X149121008Y-111773254D01*
X149138072Y-111600000D01*
X149138072Y-110400000D01*
X149121008Y-110226746D01*
X149070472Y-110060150D01*
X148988405Y-109906614D01*
X148877962Y-109772038D01*
X148743386Y-109661595D01*
X148589850Y-109579528D01*
X148423254Y-109528992D01*
X148250000Y-109511928D01*
X146750000Y-109511928D01*
X146576746Y-109528992D01*
X146410150Y-109579528D01*
X146256614Y-109661595D01*
X146122038Y-109772038D01*
X146011595Y-109906614D01*
X145929528Y-110060150D01*
X145878992Y-110226746D01*
X145861928Y-110400000D01*
X145861928Y-110457204D01*
X142088574Y-114230559D01*
X142056710Y-114256709D01*
X141975907Y-114355168D01*
X141952364Y-114383855D01*
X141874828Y-114528914D01*
X141827082Y-114686312D01*
X141810960Y-114850000D01*
X141815000Y-114891018D01*
X141815000Y-115379132D01*
X137729614Y-119464519D01*
X137770000Y-119261486D01*
X137770000Y-118998514D01*
X137718696Y-118740595D01*
X137618061Y-118497641D01*
X137471962Y-118278987D01*
X137286013Y-118093038D01*
X137270000Y-118082339D01*
X137270000Y-113626018D01*
X137274040Y-113585000D01*
X137257918Y-113421311D01*
X137210172Y-113263913D01*
X137132636Y-113118854D01*
X137054439Y-113023570D01*
X137054437Y-113023568D01*
X137028291Y-112991709D01*
X136996432Y-112965563D01*
X132719446Y-108688579D01*
X132693291Y-108656709D01*
X132566146Y-108552364D01*
X132464553Y-108498061D01*
X133940000Y-108498061D01*
X133940000Y-108701939D01*
X133979774Y-108901898D01*
X134057795Y-109090256D01*
X134171063Y-109259774D01*
X134315226Y-109403937D01*
X134484744Y-109517205D01*
X134673102Y-109595226D01*
X134873061Y-109635000D01*
X135076939Y-109635000D01*
X135276898Y-109595226D01*
X135465256Y-109517205D01*
X135634774Y-109403937D01*
X135778937Y-109259774D01*
X135892205Y-109090256D01*
X135970226Y-108901898D01*
X136010000Y-108701939D01*
X136010000Y-108650000D01*
X136886928Y-108650000D01*
X136886928Y-109850000D01*
X136903992Y-110023254D01*
X136954528Y-110189850D01*
X137036595Y-110343386D01*
X137147038Y-110477962D01*
X137281614Y-110588405D01*
X137435150Y-110670472D01*
X137601746Y-110721008D01*
X137775000Y-110738072D01*
X139225000Y-110738072D01*
X139398254Y-110721008D01*
X139564850Y-110670472D01*
X139718386Y-110588405D01*
X139852962Y-110477962D01*
X139963405Y-110343386D01*
X140045472Y-110189850D01*
X140096008Y-110023254D01*
X140113072Y-109850000D01*
X140113072Y-108650000D01*
X140096008Y-108476746D01*
X140045472Y-108310150D01*
X139963405Y-108156614D01*
X139852962Y-108022038D01*
X139718386Y-107911595D01*
X139613039Y-107855286D01*
X139634429Y-107839049D01*
X139827496Y-107621193D01*
X139974352Y-107369858D01*
X140066476Y-107106890D01*
X139945155Y-106877000D01*
X138627000Y-106877000D01*
X138627000Y-106897000D01*
X138373000Y-106897000D01*
X138373000Y-106877000D01*
X137054845Y-106877000D01*
X136933524Y-107106890D01*
X137025648Y-107369858D01*
X137172504Y-107621193D01*
X137365571Y-107839049D01*
X137386961Y-107855286D01*
X137281614Y-107911595D01*
X137147038Y-108022038D01*
X137036595Y-108156614D01*
X136954528Y-108310150D01*
X136903992Y-108476746D01*
X136886928Y-108650000D01*
X136010000Y-108650000D01*
X136010000Y-108498061D01*
X135970226Y-108298102D01*
X135892205Y-108109744D01*
X135810000Y-107986715D01*
X135810000Y-106895867D01*
X137364282Y-105341586D01*
X137545986Y-105490706D01*
X137571722Y-105504462D01*
X137365571Y-105660951D01*
X137172504Y-105878807D01*
X137025648Y-106130142D01*
X136933524Y-106393110D01*
X137054845Y-106623000D01*
X138373000Y-106623000D01*
X138373000Y-106603000D01*
X138627000Y-106603000D01*
X138627000Y-106623000D01*
X139945155Y-106623000D01*
X140066476Y-106393110D01*
X139974352Y-106130142D01*
X139827496Y-105878807D01*
X139634429Y-105660951D01*
X139428278Y-105504462D01*
X139454014Y-105490706D01*
X139680134Y-105305134D01*
X139865706Y-105079014D01*
X140003599Y-104821034D01*
X140088513Y-104541111D01*
X140117185Y-104250000D01*
X140088513Y-103958889D01*
X140003599Y-103678966D01*
X139865706Y-103420986D01*
X139790931Y-103329872D01*
X146215000Y-103329872D01*
X146215000Y-103770128D01*
X146300890Y-104201925D01*
X146469369Y-104608669D01*
X146713962Y-104974729D01*
X147025271Y-105286038D01*
X147391331Y-105530631D01*
X147798075Y-105699110D01*
X148229872Y-105785000D01*
X148670128Y-105785000D01*
X149101925Y-105699110D01*
X149508669Y-105530631D01*
X149874729Y-105286038D01*
X150186038Y-104974729D01*
X150430631Y-104608669D01*
X150599110Y-104201925D01*
X150685000Y-103770128D01*
X150685000Y-103329872D01*
X150599110Y-102898075D01*
X150430631Y-102491331D01*
X150186038Y-102125271D01*
X149874729Y-101813962D01*
X149508669Y-101569369D01*
X149101925Y-101400890D01*
X148670128Y-101315000D01*
X148229872Y-101315000D01*
X147798075Y-101400890D01*
X147391331Y-101569369D01*
X147025271Y-101813962D01*
X146713962Y-102125271D01*
X146469369Y-102491331D01*
X146300890Y-102898075D01*
X146215000Y-103329872D01*
X139790931Y-103329872D01*
X139680134Y-103194866D01*
X139454014Y-103009294D01*
X139196034Y-102871401D01*
X138916111Y-102786487D01*
X138697950Y-102765000D01*
X138302050Y-102765000D01*
X138083889Y-102786487D01*
X137803966Y-102871401D01*
X137545986Y-103009294D01*
X137319866Y-103194866D01*
X137134294Y-103420986D01*
X137132132Y-103425031D01*
X137111311Y-103427082D01*
X136953913Y-103474828D01*
X136808854Y-103552364D01*
X136681709Y-103656709D01*
X136655559Y-103688573D01*
X134413579Y-105930554D01*
X134381709Y-105956709D01*
X134287886Y-106071034D01*
X134277364Y-106083855D01*
X134199828Y-106228914D01*
X134152082Y-106386312D01*
X134135960Y-106550000D01*
X134140000Y-106591019D01*
X134140001Y-107986714D01*
X134057795Y-108109744D01*
X133979774Y-108298102D01*
X133940000Y-108498061D01*
X132464553Y-108498061D01*
X132421087Y-108474828D01*
X132263689Y-108427082D01*
X132141019Y-108415000D01*
X132141018Y-108415000D01*
X132100000Y-108410960D01*
X132058982Y-108415000D01*
X130577278Y-108415000D01*
X130545472Y-108310150D01*
X130463405Y-108156614D01*
X130352962Y-108022038D01*
X130218386Y-107911595D01*
X130113039Y-107855286D01*
X130134429Y-107839049D01*
X130327496Y-107621193D01*
X130474352Y-107369858D01*
X130566476Y-107106890D01*
X130445155Y-106877000D01*
X129127000Y-106877000D01*
X129127000Y-106897000D01*
X128873000Y-106897000D01*
X128873000Y-106877000D01*
X127554845Y-106877000D01*
X127433524Y-107106890D01*
X127525648Y-107369858D01*
X127672504Y-107621193D01*
X127865571Y-107839049D01*
X127886961Y-107855286D01*
X127781614Y-107911595D01*
X127647038Y-108022038D01*
X127536595Y-108156614D01*
X127454528Y-108310150D01*
X127403992Y-108476746D01*
X127386928Y-108650000D01*
X127386928Y-109850000D01*
X127403992Y-110023254D01*
X127454528Y-110189850D01*
X127536595Y-110343386D01*
X127647038Y-110477962D01*
X127781614Y-110588405D01*
X127935150Y-110670472D01*
X128101746Y-110721008D01*
X128275000Y-110738072D01*
X129725000Y-110738072D01*
X129898254Y-110721008D01*
X130064850Y-110670472D01*
X130218386Y-110588405D01*
X130352962Y-110477962D01*
X130463405Y-110343386D01*
X130545472Y-110189850D01*
X130577278Y-110085000D01*
X131754133Y-110085000D01*
X135600001Y-113930870D01*
X135600000Y-118082338D01*
X135583987Y-118093038D01*
X135415000Y-118262025D01*
X135246013Y-118093038D01*
X135027359Y-117946939D01*
X134784405Y-117846304D01*
X134526486Y-117795000D01*
X134263514Y-117795000D01*
X134005595Y-117846304D01*
X133762641Y-117946939D01*
X133543987Y-118093038D01*
X133375000Y-118262025D01*
X133206013Y-118093038D01*
X132987359Y-117946939D01*
X132744405Y-117846304D01*
X132486486Y-117795000D01*
X132223514Y-117795000D01*
X131965595Y-117846304D01*
X131722641Y-117946939D01*
X131503987Y-118093038D01*
X131335000Y-118262025D01*
X131166013Y-118093038D01*
X130947359Y-117946939D01*
X130704405Y-117846304D01*
X130446486Y-117795000D01*
X130183514Y-117795000D01*
X129925595Y-117846304D01*
X129682641Y-117946939D01*
X129463987Y-118093038D01*
X129278038Y-118278987D01*
X129131939Y-118497641D01*
X129031304Y-118740595D01*
X128980000Y-118998514D01*
X128980000Y-119261486D01*
X129031304Y-119519405D01*
X129131939Y-119762359D01*
X129278038Y-119981013D01*
X129463987Y-120166962D01*
X129682641Y-120313061D01*
X129925595Y-120413696D01*
X130082643Y-120444935D01*
X130051304Y-120520595D01*
X130000000Y-120778514D01*
X130000000Y-121041486D01*
X130051304Y-121299405D01*
X130151939Y-121542359D01*
X130298038Y-121761013D01*
X130483987Y-121946962D01*
X130702641Y-122093061D01*
X130945595Y-122193696D01*
X131203514Y-122245000D01*
X131466486Y-122245000D01*
X131724405Y-122193696D01*
X131967359Y-122093061D01*
X132186013Y-121946962D01*
X132371962Y-121761013D01*
X132446291Y-121649771D01*
X132453731Y-121651664D01*
X133195395Y-120910000D01*
X133181253Y-120895858D01*
X133360858Y-120716253D01*
X133375000Y-120730395D01*
X133389143Y-120716253D01*
X133568748Y-120895858D01*
X133554605Y-120910000D01*
X133568748Y-120924143D01*
X133389143Y-121103748D01*
X133375000Y-121089605D01*
X132633336Y-121831269D01*
X132692797Y-122065037D01*
X132931242Y-122175934D01*
X132960959Y-122183174D01*
X132854133Y-122290000D01*
X129145869Y-122290000D01*
X126935000Y-120079133D01*
X126935000Y-106270867D01*
X127864283Y-105341586D01*
X128045986Y-105490706D01*
X128071722Y-105504462D01*
X127865571Y-105660951D01*
X127672504Y-105878807D01*
X127525648Y-106130142D01*
X127433524Y-106393110D01*
X127554845Y-106623000D01*
X128873000Y-106623000D01*
X128873000Y-106603000D01*
X129127000Y-106603000D01*
X129127000Y-106623000D01*
X130445155Y-106623000D01*
X130566476Y-106393110D01*
X130474352Y-106130142D01*
X130327496Y-105878807D01*
X130134429Y-105660951D01*
X129928278Y-105504462D01*
X129954014Y-105490706D01*
X130180134Y-105305134D01*
X130365706Y-105079014D01*
X130503599Y-104821034D01*
X130588513Y-104541111D01*
X130617185Y-104250000D01*
X130588513Y-103958889D01*
X130503599Y-103678966D01*
X130365706Y-103420986D01*
X130180134Y-103194866D01*
X129954014Y-103009294D01*
X129696034Y-102871401D01*
X129416111Y-102786487D01*
X129197950Y-102765000D01*
X128802050Y-102765000D01*
X128583889Y-102786487D01*
X128303966Y-102871401D01*
X128045986Y-103009294D01*
X127819866Y-103194866D01*
X127634294Y-103420986D01*
X127632132Y-103425031D01*
X127611311Y-103427082D01*
X127453913Y-103474828D01*
X127308854Y-103552364D01*
X127181709Y-103656709D01*
X127155563Y-103688568D01*
X125538579Y-105305554D01*
X125506709Y-105331709D01*
X125431104Y-105423835D01*
X125402364Y-105458855D01*
X125324828Y-105603914D01*
X125277082Y-105761312D01*
X125260960Y-105925000D01*
X122354487Y-105925000D01*
X122327496Y-105878807D01*
X122134429Y-105660951D01*
X121928278Y-105504462D01*
X121954014Y-105490706D01*
X122180134Y-105305134D01*
X122365706Y-105079014D01*
X122503599Y-104821034D01*
X122588513Y-104541111D01*
X122617185Y-104250000D01*
X122588513Y-103958889D01*
X122503599Y-103678966D01*
X122365706Y-103420986D01*
X122180134Y-103194866D01*
X121954014Y-103009294D01*
X121696034Y-102871401D01*
X121416111Y-102786487D01*
X121197950Y-102765000D01*
X120802050Y-102765000D01*
X120583889Y-102786487D01*
X120303966Y-102871401D01*
X120045986Y-103009294D01*
X119819866Y-103194866D01*
X119634294Y-103420986D01*
X119496401Y-103678966D01*
X119411487Y-103958889D01*
X119382815Y-104250000D01*
X116021735Y-104250000D01*
X116047918Y-104163689D01*
X116060000Y-104041019D01*
X116060000Y-104041009D01*
X116064039Y-104000001D01*
X116060000Y-103958993D01*
X116060000Y-102616018D01*
X116064040Y-102575000D01*
X116047918Y-102411312D01*
X116000172Y-102253913D01*
X115922636Y-102108854D01*
X115844439Y-102013570D01*
X115844437Y-102013568D01*
X115818291Y-101981709D01*
X115786433Y-101955564D01*
X114619445Y-100788578D01*
X114593291Y-100756709D01*
X114475451Y-100660000D01*
X151340000Y-100660000D01*
X151340001Y-128340000D01*
X100660000Y-128340000D01*
X100660000Y-125229872D01*
X101315000Y-125229872D01*
X101315000Y-125670128D01*
X101400890Y-126101925D01*
X101569369Y-126508669D01*
X101813962Y-126874729D01*
X102125271Y-127186038D01*
X102491331Y-127430631D01*
X102898075Y-127599110D01*
X103329872Y-127685000D01*
X103770128Y-127685000D01*
X104201925Y-127599110D01*
X104608669Y-127430631D01*
X104974729Y-127186038D01*
X105286038Y-126874729D01*
X105530631Y-126508669D01*
X105699110Y-126101925D01*
X105785000Y-125670128D01*
X105785000Y-125229872D01*
X105699110Y-124798075D01*
X105530631Y-124391331D01*
X105286038Y-124025271D01*
X104974729Y-123713962D01*
X104608669Y-123469369D01*
X104201925Y-123300890D01*
X103832513Y-123227409D01*
X109515000Y-123227409D01*
X109515000Y-123672591D01*
X109601851Y-124109218D01*
X109772214Y-124520511D01*
X110019544Y-124890666D01*
X110334334Y-125205456D01*
X110704489Y-125452786D01*
X111115782Y-125623149D01*
X111552409Y-125710000D01*
X111997591Y-125710000D01*
X112434218Y-125623149D01*
X112845511Y-125452786D01*
X113215666Y-125205456D01*
X113530456Y-124890666D01*
X113777786Y-124520511D01*
X113948149Y-124109218D01*
X114035000Y-123672591D01*
X114035000Y-123227409D01*
X113948149Y-122790782D01*
X113777786Y-122379489D01*
X113530456Y-122009334D01*
X113215666Y-121694544D01*
X112845511Y-121447214D01*
X112434218Y-121276851D01*
X111997591Y-121190000D01*
X111552409Y-121190000D01*
X111115782Y-121276851D01*
X110704489Y-121447214D01*
X110334334Y-121694544D01*
X110019544Y-122009334D01*
X109772214Y-122379489D01*
X109601851Y-122790782D01*
X109515000Y-123227409D01*
X103832513Y-123227409D01*
X103770128Y-123215000D01*
X103329872Y-123215000D01*
X102898075Y-123300890D01*
X102491331Y-123469369D01*
X102125271Y-123713962D01*
X101813962Y-124025271D01*
X101569369Y-124391331D01*
X101400890Y-124798075D01*
X101315000Y-125229872D01*
X100660000Y-125229872D01*
X100660000Y-118877050D01*
X102015000Y-118877050D01*
X102015000Y-119322949D01*
X102036487Y-119541110D01*
X102121401Y-119821033D01*
X102259294Y-120079013D01*
X102444866Y-120305134D01*
X102670986Y-120490706D01*
X102928966Y-120628599D01*
X103208889Y-120713513D01*
X103500000Y-120742185D01*
X103791110Y-120713513D01*
X104071033Y-120628599D01*
X104329013Y-120490706D01*
X104555134Y-120305134D01*
X104607223Y-120241663D01*
X104661595Y-120343386D01*
X104772038Y-120477962D01*
X104906614Y-120588405D01*
X105060150Y-120670472D01*
X105226746Y-120721008D01*
X105400000Y-120738072D01*
X106600000Y-120738072D01*
X106773254Y-120721008D01*
X106939850Y-120670472D01*
X107093386Y-120588405D01*
X107227962Y-120477962D01*
X107338405Y-120343386D01*
X107420472Y-120189850D01*
X107471008Y-120023254D01*
X107488072Y-119850000D01*
X107488072Y-118350000D01*
X107471008Y-118176746D01*
X107420472Y-118010150D01*
X107338405Y-117856614D01*
X107227962Y-117722038D01*
X107093386Y-117611595D01*
X106939850Y-117529528D01*
X106773254Y-117478992D01*
X106600000Y-117461928D01*
X105400000Y-117461928D01*
X105226746Y-117478992D01*
X105060150Y-117529528D01*
X104906614Y-117611595D01*
X104772038Y-117722038D01*
X104661595Y-117856614D01*
X104607223Y-117958337D01*
X104555134Y-117894866D01*
X104329014Y-117709294D01*
X104071034Y-117571401D01*
X103791111Y-117486487D01*
X103500000Y-117457815D01*
X103208890Y-117486487D01*
X102928967Y-117571401D01*
X102670987Y-117709294D01*
X102444866Y-117894866D01*
X102259294Y-118120986D01*
X102121401Y-118378966D01*
X102036487Y-118658889D01*
X102015000Y-118877050D01*
X100660000Y-118877050D01*
X100660000Y-111077050D01*
X102015000Y-111077050D01*
X102015000Y-111522949D01*
X102036487Y-111741110D01*
X102121401Y-112021033D01*
X102259294Y-112279013D01*
X102444866Y-112505134D01*
X102670986Y-112690706D01*
X102928966Y-112828599D01*
X103208889Y-112913513D01*
X103500000Y-112942185D01*
X103791110Y-112913513D01*
X104071033Y-112828599D01*
X104329013Y-112690706D01*
X104555134Y-112505134D01*
X104607223Y-112441663D01*
X104661595Y-112543386D01*
X104772038Y-112677962D01*
X104906614Y-112788405D01*
X105060150Y-112870472D01*
X105226746Y-112921008D01*
X105400000Y-112938072D01*
X106600000Y-112938072D01*
X106773254Y-112921008D01*
X106939850Y-112870472D01*
X107093386Y-112788405D01*
X107227962Y-112677962D01*
X107338405Y-112543386D01*
X107420472Y-112389850D01*
X107471008Y-112223254D01*
X107488072Y-112050000D01*
X107488072Y-110550000D01*
X107471008Y-110376746D01*
X107420472Y-110210150D01*
X107338405Y-110056614D01*
X107227962Y-109922038D01*
X107093386Y-109811595D01*
X106939850Y-109729528D01*
X106773254Y-109678992D01*
X106600000Y-109661928D01*
X105400000Y-109661928D01*
X105226746Y-109678992D01*
X105060150Y-109729528D01*
X104906614Y-109811595D01*
X104772038Y-109922038D01*
X104661595Y-110056614D01*
X104607223Y-110158337D01*
X104555134Y-110094866D01*
X104329014Y-109909294D01*
X104071034Y-109771401D01*
X103791111Y-109686487D01*
X103500000Y-109657815D01*
X103208890Y-109686487D01*
X102928967Y-109771401D01*
X102670987Y-109909294D01*
X102444866Y-110094866D01*
X102259294Y-110320986D01*
X102121401Y-110578966D01*
X102036487Y-110858889D01*
X102015000Y-111077050D01*
X100660000Y-111077050D01*
X100660000Y-103329872D01*
X101315000Y-103329872D01*
X101315000Y-103770128D01*
X101400890Y-104201925D01*
X101569369Y-104608669D01*
X101813962Y-104974729D01*
X102125271Y-105286038D01*
X102491331Y-105530631D01*
X102898075Y-105699110D01*
X103329872Y-105785000D01*
X103770128Y-105785000D01*
X104201925Y-105699110D01*
X104608669Y-105530631D01*
X104974729Y-105286038D01*
X105286038Y-104974729D01*
X105530631Y-104608669D01*
X105699110Y-104201925D01*
X105785000Y-103770128D01*
X105785000Y-103329872D01*
X105699110Y-102898075D01*
X105530631Y-102491331D01*
X105286038Y-102125271D01*
X104974729Y-101813962D01*
X104608669Y-101569369D01*
X104201925Y-101400890D01*
X103770128Y-101315000D01*
X103329872Y-101315000D01*
X102898075Y-101400890D01*
X102491331Y-101569369D01*
X102125271Y-101813962D01*
X101813962Y-102125271D01*
X101569369Y-102491331D01*
X101400890Y-102898075D01*
X101315000Y-103329872D01*
X100660000Y-103329872D01*
X100660000Y-100660000D01*
X110149549Y-100660000D01*
X110031709Y-100756709D01*
M02*
